/* XPM */
static char *result[] = {
/* columns rows colors chars-per-pixel */
"32 32 121 2 ",
"   c #132E2F",
".  c #17302F",
"X  c #142F30",
"o  c #163030",
"O  c #173030",
"+  c #173130",
"@  c #183130",
"#  c #193230",
"$  c #404934",
"%  c #414934",
"&  c #414A35",
"*  c #434B34",
"=  c #444B35",
"-  c #464C35",
";  c #474D35",
":  c #484D35",
">  c #4A5037",
",  c #4D543B",
"<  c #4F553B",
"1  c #4D543C",
"2  c #4E553C",
"3  c #4F553C",
"4  c #50553B",
"5  c #50563C",
"6  c #51563C",
"7  c #53583C",
"8  c #54583C",
"9  c #54583D",
"0  c #615C37",
"q  c #655E38",
"w  c #686139",
"e  c #6C653E",
"r  c #6F673E",
"t  c #7B7044",
"y  c #86723B",
"u  c #87723C",
"i  c #87733C",
"p  c #9F803E",
"a  c #A0813E",
"s  c #A1813E",
"d  c #A1823E",
"f  c #A2823E",
"g  c #A3833E",
"h  c #A3833F",
"j  c #A4833F",
"k  c #A5843F",
"l  c #AA873F",
"z  c #AB883F",
"x  c #AD883F",
"c  c #AD8940",
"v  c #AE8A41",
"b  c #AA8A44",
"n  c #A48C4E",
"m  c #B08A40",
"M  c #B08B41",
"N  c #BD9A4F",
"B  c #C29542",
"V  c #C39542",
"C  c #C59742",
"Z  c #CB9941",
"A  c #CB9A41",
"S  c #CC9A42",
"D  c #CD9B42",
"F  c #CE9C42",
"G  c #CF9C42",
"H  c #CE9C43",
"J  c #CF9C43",
"K  c #CF9D43",
"L  c #CC9E47",
"P  c #CC9E48",
"I  c #D09D43",
"U  c #D19D43",
"Y  c #D19E43",
"T  c #D29E43",
"R  c #D29F43",
"E  c #D39F43",
"W  c #D49F43",
"Q  c #D19F45",
"!  c #D39F44",
"~  c #D49F44",
"^  c #D6A043",
"/  c #D4A044",
"(  c #D5A044",
")  c #D6A144",
"_  c #D8A244",
"`  c #D7A448",
"'  c #D7A449",
"]  c #D6A64D",
"[  c #D8A449",
"{  c #DAA64A",
"}  c #DAA74A",
"|  c #DBA74B",
" . c #DCA84B",
".. c #DDA84B",
"X. c #DEA94B",
"o. c #C6A255",
"O. c #C7A355",
"+. c #C6A256",
"@. c #C8A151",
"#. c #CDA453",
"$. c #C8A355",
"%. c #C8A356",
"&. c #C9A456",
"*. c #CAA556",
"=. c #EAB554",
"-. c #EBB655",
";. c #F4BD5A",
":. c #F6BF5A",
">. c #F6BF5B",
",. c #F7BF5B",
"<. c #F8C05B",
"1. c #F9C05B",
"2. c #F8C05C",
"3. c #F9C15C",
"4. c #FFCB63",
"5. c #FFCC63",
"6. c #FFCD63",
"7. c #FFCE64",
"8. c #FFCF64",
"9. c #FFD064",
"0. c None",
/* pixels */
"0.0.0.0.0.0.0.0.O O O     6 *.9.9.*.6     O O O 0.0.0.0.0.0.0.0.",
"0.0.0.0.0.0.0.0.< 7 7 6 5 t #.1.1.#.t 5 6 7 7 < 0.0.0.0.0.0.0.0.",
"0.0.0.0.0.0.O < n &.$.O.%.#.] { { ] #.%.O.$.&.n < O 0.0.0.0.0.0.",
"0.0.0.0.0.0.O 8 *.8.6.5.5.,.} Z Z } ,.5.5.6.8.*.8 O 0.0.0.0.0.0.",
"0.0.0.0.0.0.. 9 &.7.5.4.4.>.} A A } >.4.4.5.7.&.9 . 0.0.0.0.0.0.",
"0.0.0.0.0.0.+ 4 N <.:.;.;.=.` D D ` =.;.;.:.<.N 4 + 0.0.0.0.0.0.",
"0.0.0.0.0.0.@ > b X...} } ` Q H H Q ` } } ..X.b > @ 0.0.0.0.0.0.",
"0.0.0.0.0.0.# ; s U J D G J H H H H J K K T W f ; # 0.0.0.0.0.0.",
"0.0.0.0.0.0.# ; d Y I H I U J H H J U Y Y W ^ g : # 0.0.0.0.0.0.",
"0.0.0.0.0.0.# ; f E T B l l B I I V z p a f f y = # 0.0.0.0.0.0.",
"0.0.0.0.0.0.# ; f / ~ l 0 0 l ! ! x q $ % * * % 0.0.0.0.0.0.0.0.",
"0.0.0.0.0.0.# ; f ~ W v e e v E E M r 1 2 5 5 , 0.0.0.0.0.0.0.0.",
"0.0.0.0.0.0.# ; f T U P @.@.P F F L @.+.o.%.&.n 3 . 0.0.0.0.0.0.",
"0.0.0.0.0.0.# ; f Y J  .3.3. .S S | <.5.5.6.8.*.8 O 0.0.0.0.0.0.",
"0.0.0.0.0.0.# ; f Y J  .2.2. .S S | ,.4.4.5.7.&.9 . 0.0.0.0.0.0.",
"0.0.0.0.0.0.# ; f T I [ -.-.[ D D ` =.;.;.:.<.N 4 + 0.0.0.0.0.0.",
"0.0.0.0.0.0.# ; f T I Q ' ' Q H H Q ` } } ..X.b > @ 0.0.0.0.0.0.",
"0.0.0.0.0.0.# : h ( ! I I J H H H H J G D J U s ; # 0.0.0.0.0.0.",
"0.0.0.0.0.0.# : j ) ( T T U J H H J U I H I Y d ; # 0.0.0.0.0.0.",
"0.0.0.0.0.0.# = y f f a p z V I I B l l B T E f ; # 0.0.0.0.0.0.",
"0.0.0.0.0.0.0.0.% * * % $ q x ! ! l 0 0 l ~ / f ; # 0.0.0.0.0.0.",
"0.0.0.0.0.0.0.0., 5 5 2 1 r M E E v e e v W ~ f ; # 0.0.0.0.0.0.",
"0.0.0.0.0.0.. 3 n &.%.o.+.@.L F F P @.@.P U T f ; # 0.0.0.0.0.0.",
"0.0.0.0.0.0.O 8 *.8.6.5.5.<.| S S  .3.3. .J Y f ; # 0.0.0.0.0.0.",
"0.0.0.0.0.0.. 9 &.7.5.4.4.,.| S S  .2.2. .J Y f ; # 0.0.0.0.0.0.",
"0.0.0.0.0.0.+ 4 N <.:.;.;.=.` D D [ -.-.[ I T f ; # 0.0.0.0.0.0.",
"0.0.0.0.0.0.@ > b X...} } ` Q H H Q ' ' Q I T f ; # 0.0.0.0.0.0.",
"0.0.0.0.0.0.# ; f W T K K J H H H H J I I ! ( h : # 0.0.0.0.0.0.",
"0.0.0.0.0.0.# : g ^ W Y Y U J H H J U T T ( ) j : # 0.0.0.0.0.0.",
"0.0.0.0.0.0.# = u j h d s c C R R C c s d h j u = # 0.0.0.0.0.0.",
"0.0.0.0.0.0.0.0.= : : - = w m _ _ m w = - : : = 0.0.0.0.0.0.0.0.",
"0.0.0.0.0.0.0.0.# # # o X & i k k i & X o # # # 0.0.0.0.0.0.0.0."
};
