/* XPM */
static char *cd58f24d5ec94c46841b827261034916gXzCSXptiGwURAsV[] = {
/* columns rows colors chars-per-pixel */
"64 64 203 2 ",
"   c None",
".  c #763574",
"X  c #773976",
"o  c #7A3A77",
"O  c #7D3877",
"+  c #9F302D",
"@  c #9E302E",
"#  c #A13232",
"$  c #A83F3F",
"%  c #A0312E",
"&  c #A73A44",
"*  c #AB3E54",
"=  c #8D3D7E",
"-  c #823C7A",
";  c #B24A5C",
":  c #86467D",
">  c #B3496C",
",  c #B14668",
"<  c #B85175",
"1  c #BD7F7E",
"2  c #3F5E88",
"3  c #445D88",
"4  c #575A89",
"5  c #605687",
"6  c #615788",
"7  c #615A8A",
"8  c #76598A",
"9  c #795A8B",
"0  c #7B5187",
"q  c #7E4E86",
"w  c #49638C",
"e  c #47628C",
"r  c #57668E",
"t  c #79729E",
"y  c #9B3E81",
"u  c #854985",
"i  c #924181",
"p  c #9D4384",
"a  c #9D4B88",
"s  c #994C86",
"d  c #8A598C",
"f  c #86558A",
"g  c #96568C",
"h  c #A24685",
"j  c #AB4686",
"k  c #A44887",
"l  c #AA4987",
"z  c #A54D88",
"x  c #AC4C89",
"c  c #B54D83",
"v  c #B24D8A",
"b  c #A4558E",
"n  c #AC538B",
"m  c #AA5A8D",
"M  c #B4528C",
"N  c #BD548E",
"B  c #B25B8E",
"V  c #BD5687",
"C  c #A55B93",
"Z  c #B55E90",
"A  c #BB5B92",
"S  c #BE5691",
"D  c #8A6293",
"F  c #946798",
"G  c #897295",
"H  c #AF6C9D",
"J  c #A96494",
"K  c #B66192",
"L  c #BC6393",
"P  c #BE6A95",
"I  c #B26D9D",
"U  c #BC6B9A",
"Y  c #B46698",
"T  c #B8729C",
"R  c #AE6F94",
"E  c #8E78A7",
"W  c #9376A5",
"Q  c #AB77A4",
"!  c #BA7BA5",
"~  c #C1558F",
"^  c #C15B91",
"/  c #C05690",
"(  c #C4638D",
")  c #C46781",
"_  c #C56494",
"`  c #C36C96",
"'  c #C86A96",
"]  c #C0689B",
"[  c #CB6F98",
"{  c #C86695",
"}  c #C47097",
"|  c #C67298",
" . c #CB749A",
".. c #CE7B9C",
"X. c #D27C9D",
"o. c #D0798C",
"O. c #C278A4",
"+. c #D37EA0",
"@. c #759EBB",
"#. c #7489AC",
"$. c #70A0BB",
"%. c #6FA0BC",
"&. c #7DB7CE",
"*. c #7DB8CF",
"=. c #7DBBD1",
"-. c #A5949A",
";. c #9A86A4",
":. c #8893B7",
">. c #8A97B9",
",. c #879BBC",
"<. c #9A9BBC",
"1. c #8987B0",
"2. c #A982A8",
"3. c #BC85AC",
"4. c #BC8AAC",
"5. c #B684A8",
"6. c #BB95AF",
"7. c #A19DBC",
"8. c #BB9BB2",
"9. c #BC94B2",
"0. c #B292AD",
"q. c #B7A1BB",
"w. c #A7A2BF",
"e. c #D3819E",
"r. c #D8859F",
"t. c #C689A6",
"y. c #C887A7",
"u. c #D585A1",
"i. c #D887A0",
"p. c #D98AA2",
"a. c #D48BA7",
"s. c #C897AD",
"d. c #DA94A9",
"f. c #C88DB1",
"g. c #C895B6",
"h. c #D599B4",
"j. c #D6A3BD",
"k. c #DCA4B6",
"l. c #C6AABD",
"z. c #E1A9B9",
"x. c #84A6C3",
"c. c #8BA9C5",
"v. c #93ACC7",
"b. c #98A8C4",
"n. c #84B6CD",
"m. c #86BDD2",
"M. c #8ABDD2",
"N. c #93BBD0",
"B. c #AAA8C3",
"V. c #BBABC4",
"C. c #B7B5C8",
"Z. c #A8B6C0",
"A. c #D6A7C1",
"S. c #D7A8C1",
"D. c #C5BCCC",
"F. c #CCBBCB",
"G. c #DCB6CA",
"H. c #D6BDCF",
"J. c #DAB4C7",
"K. c #CDABC3",
"L. c #E2BAC6",
"P. c #8CC2D4",
"I. c #92C5D5",
"U. c #99C6D7",
"Y. c #9ACDD7",
"T. c #94CAD6",
"R. c #A6CDDA",
"E. c #A9CDDA",
"W. c #B3C2D3",
"Q. c #ADD2DD",
"!. c #B3D4DE",
"~. c #BBD6DF",
"^. c #BBC8CF",
"/. c #BCD9E1",
"(. c #BBD7E0",
"). c #BFE1E8",
"_. c #CDC9D5",
"`. c #D7C4D1",
"'. c #C7D5DB",
"]. c #C9D4DB",
"[. c #CED8DD",
"{. c #D5DBDF",
"}. c #D0C3CF",
"|. c #E4C6CE",
" X c #E5CBD3",
".X c #E1C5D3",
"XX c #E2D6DD",
"oX c #E7D4D9",
"OX c #C3DDE3",
"+X c #CEDFE4",
"@X c #D5DCE1",
"#X c #E7DDE0",
"$X c #CEE1E5",
"%X c #D5E3E6",
"&X c #DAE6E8",
"*X c #E6EDEA",
"=X c #ECEDEC",
"-X c #E8E5E6",
";X c #EFF1EE",
":X c #EDF1EE",
">X c #F1F1EE",
",X c #EEF3F0",
"<X c #F0F7F2",
/* pixels */
"                                                                                                                                ",
"                                                                                                                                ",
"                                                                                                                                ",
"                                                                                                                                ",
"                                                                                                                                ",
"                                                                                                                                ",
"                                                                                                                                ",
"                                                                                                                                ",
"                                                                                                                                ",
"                                                                                                                                ",
"                                                                                                                                ",
"                                                                                                                                ",
"                                                                                                                                ",
"                                                                                                                                ",
"                                                                                                                                ",
"                                                                                                                                ",
"                                                                                                                                ",
"                                                                                                                                ",
"                                                                                                                                ",
"                                                                                                                                ",
"                                                                                  h h h h h p                                   ",
"                                                                                z | e.e.e.e.X.n l                               ",
"                                                                              P i.p.p.p.p.p.p.i...n                             ",
"                                                      i.p.p.p.              J h.r.p.p.p.p.p.p.i.p.t.y                           ",
"                                      y p e.p.p.p.^  .p.p.p.p.p...p y y y y b j.|.d.i.p.p.p.p.L.L.T y y y                       ",
"                                    W C.7.a.p.X._ ^ e.p.p.p.p.p.a.l.H.H.H.K.h K y.G.oX X X X Xf.O.h ! `.<.g                     ",
"                                  F n.OXE.a.X.^ N N e.p.p.p.p.p.e.f.=X,X:XXXJ 4.n L ] ] ] ] U m H 5.g.<XU.,.a                   ",
"                                  F =.OXoX+.N N N N X.p.p.p.p.p...N f.-X:X#XC y..X3.I I I I I J.J.n q.:XU.x.a                   ",
"                                  F v.F.a.N p k N N S X.p.p.p...N x y 3.-X&Xx.C v h.G.G.G.G.G.A x 1.!.>XU.x.a                   ",
"                                  J 4.' S x p p x N N ^ [ [ [ ^ N p p y `.=XQ.x.E b j j j j j W 1.I.%X=XU.x.a                   ",
"                                  ` ^ N N v p k N N N N N N N N N x p W @X:X*XQ.=.,.:.:.:.:.:.n.P.%X:X=XU.x.a                   ",
"                                  X.Q v.b.U A N N A A I v.v.c.Y N Q c.~.=X=X:X=XE.m.P.P.P.P.P.I.%X:X=X=XU.x.a                   ",
"                                  6.&.!.%X@XF.N N <.n.N.$X$XU.Y V O.$X%X%X%X%X%X%X+X$X$X$X$X$X$X%X%X%X%XU.x.a                   ",
"                                p.8.=.U.R.R.B.N N B.R.R.E.E.R.2.^ g.R.E.E.E.E.E.E.E.E.E.E.E.E.E.E.E.R.R.m.x.a                   ",
"                                X.2.U.&X:XOXW.H H W.(.~.~.~.~.M.7.(.~.~.~.~.~.~.~.~.~.~.~.~.~.~.~.~.%X>X/.c.a                   ",
"                                X.2.!.>X!.m.=.c.c.T.Y.Y.I.&.*.m.=.&.P.Y.Y.n.*.&.P.Y.Y.*.P.P.*.T.n.&.P.%X=Xv.a                   ",
"                                  5.*X:X%XP.m.m.m.I.I.I.P.m.m.M.s.q.P.I.I.M.m.m.P.I.I.M.P.P.m.I.M.m.E.*X:X_.a                   ",
"                                  Q @X{.{.].].].].].].].].].]._.p.s.^.].'.'.].].'.'.'.].'.'.].'.'.'.[.{.{.}.a                   ",
"                            n n n u w w e w w w w w w w w w w r y.G w w 4 6 7 6 5 7 7 5 6 7 6 6 7 7 5 4 w 4 p                   ",
"                        n K ` i.X.u 2 7 9 9 9 9 9 9 9 9 9 4 3 w G 3 3 4 Q 3.Z T 4.U K 4.! B ! 4.K U f.D 3 4 p                   ",
"                    k P ` X._ X...s d n ~ ~ ~ ~ ~ ~ ~ ~ ~ b 0 f d d f 2.-X-Xp.L.<Xz.d.:X Xr.oX=Xp.z.<X`.D f p                   ",
"                  k `  ...[ { X...x ~ ^ A.u...........a.h.~ j N ~ N v J.:Xk.h.#X:Xk.d.=X Xr. X:X|.d. X,XI v p                   ",
"                k ` e._ .. .{ X...l N S.j.s s : : : : g J.h.h N n 0 f.=X=Xd.k.:X:Xk.d.=X Xr. X,X#Xi.L.:XXXb p                   ",
"                P ' X._  .[  .u...l N G.F = = X O o X O 3.j.h M b s g.:X-Xu.h.*X*Xh.u.-X|.X..X*XXXX.J.*X-Xb p                   ",
"                P { X._ X.X...` L l N G.F . o X = = o . 2.j.k M 9 f I 8.6.M K 8.8.K M 8.! v 5.8.4.v T 8.6.n p                   ",
"                P _ X.X...K M x l l N G.F . X X - = o . 2.j.k M f g M l 3.k y y y y y y y y y y y y H U j M p                   ",
"                P ' e...M v N N N l v Y T P Z i i i i = 5.j.k M g g N N .XO.V.B.B.V.<.V.w.B.V.7.V.7.XXf.V N p                   ",
"                P i...n N N N N M l x K _ _ { 2.C.B.D.B.A._ k n 7 9 N N .X! E.(.(.Q.OXQ./.(.!.OXQ.).-.& & c p                   ",
"                P e.n c V V N N M l N x v M v n L L L Z S N l n 7 9 / S .Xg.~.(.!./.Q./.!.!./.Q.~.Z.1 + # c p                   ",
"                B M c & * ; S N M l N N x k x N N N N k x N l M N N < V A.`.C.D.D.C.}.C.D.D.C.}.0.# # + # c p                   ",
"                k N ' ; $ ) [ [ _ n  .[ [ [ [ [ [ [ [ [ [  .n _ [  .; & ( i.p.p.p.p.p.p.p.p.p.p.o.% + + # c p                   ",
"                K _ _ ( < ' ' ' L x ' ' ' ' ' ' ' ' ' ' ' ' x L ' ' V , ( ' ' ' ' ' ' ' ' ' ' ' ( > > > > M p                   ",
"                P e.X.X.X.X.X.X.| n X.X.X.X.X.X.X.X.X.X.X.X.n | X.X.X.+.X.X.X.X.X.X.X.X.X.X.X.X.X.+.+.+.+. .p                   ",
"                P p.p.p.p.p.p.p.X.B i.p.p.p.p.p.p.p.p.p.p.p.B ..p.p.p.p.p.p.p.p.p.p.p.p.p.p.p.p.p.p.p.p.p.X.p                   ",
"                K X.X.X.X.X.X.X. .K B  . .X.X.X.X.X.X.X.X.X.n ` X.X.X.X.X.X.X.X.X. .| | | | ..X.X.X.X.X.X. .p                   ",
"                x ~ ~ ~ ~ ~ N v h Z Z Z h x N N N N N N N N l N ~ ~ ~ ~ ~ ~ ~ ~ M h B Z K z k N ~ ~ ~ ~ N x                     ",
"                v d 8 8 8 8 s h ` p.p.p.} h x x l l l l l l q 8 9 8 8 8 8 8 8 d h K i.p.p...z k 9 8 8 8 Y k                     ",
"                k R Q ;.$.t i ` X.n n n ..| p F >.>.>.>.>.>.@.$.$.$.$.$.$.$.#.i Z e.B n n | ..k f @.%.;.B                       ",
"                  x x Z t.K p ..x p k p z ..p J t.t.t.t.t.t.t.t.t.t.t.t.t.t.T y ` Z p h p p  .x z t.t.Y                         ",
"                        h p p  .h n p.B p  .p p h h h h h h h h h h h h h h h y ` n h i.` y | n p h h                           ",
"                            p  .h n } n p  .h                                   ` n p ` Z y | n                                 ",
"                              K K p y p Z K                                     B L h y y n L z                                 ",
"                                Z | | | Z                                         m ` | | L z                                   ",
"                                  n n n                                             n n n z                                     "
};
