/* XPM */
static char *result[] = {
/* columns rows colors chars-per-pixel */
"64 64 202 2 ",
"   c #763674",
".  c #793A77",
"X  c #7B3977",
"o  c #9F302D",
"O  c #9E2B29",
"+  c #A0322F",
"@  c #A13333",
"#  c #A93F3F",
"$  c #A83A45",
"%  c #AB3F54",
"&  c #8E3E7E",
"*  c #823C7A",
"=  c #B24A5D",
"-  c #87467D",
";  c #B3496D",
":  c #B24769",
">  c #B95275",
",  c #BD807F",
"<  c #425F89",
"1  c #495987",
"2  c #585B89",
"3  c #615688",
"4  c #625A8A",
"5  c #765A8B",
"6  c #795A8C",
"7  c #7B5187",
"8  c #7F4F87",
"9  c #49638C",
"0  c #57668E",
"q  c #79739F",
"w  c #9B3E82",
"e  c #854A85",
"r  c #924282",
"t  c #9D4385",
"y  c #9A4C87",
"u  c #8B5A8D",
"i  c #86558B",
"p  c #96578C",
"a  c #A24686",
"s  c #AB4686",
"d  c #A34987",
"f  c #AA4887",
"g  c #A54D89",
"h  c #AB4A89",
"j  c #B64F83",
"k  c #B24D8A",
"l  c #AC538C",
"z  c #AF5A8E",
"x  c #A3568E",
"c  c #B4538D",
"v  c #BD558E",
"b  c #B25B8E",
"n  c #BB5485",
"m  c #A55B93",
"M  c #BE5790",
"N  c #B55E90",
"B  c #BC5C93",
"V  c #8A6293",
"C  c #956899",
"Z  c #8A7395",
"A  c #AF6C9D",
"S  c #AA6495",
"D  c #B66192",
"F  c #BB6393",
"G  c #BE6A95",
"H  c #B26D9E",
"J  c #BA6B9B",
"K  c #B56599",
"L  c #BA749D",
"P  c #B87098",
"I  c #AE6F95",
"U  c #9376A5",
"Y  c #8F72A3",
"T  c #AA7AA6",
"R  c #BC7CA5",
"E  c #B477A4",
"W  c #C1558F",
"Q  c #C15B91",
"!  c #C05790",
"~  c #C5638D",
"^  c #C56782",
"/  c #C46494",
"(  c #C36D96",
")  c #C96A96",
"_  c #C16A9B",
"`  c #CB6E98",
"'  c #C96694",
"]  c #C67298",
"[  c #CB739A",
"{  c #CE7B9C",
"}  c #D27C9D",
"|  c #D0779B",
" . c #D0798C",
".. c #C275A2",
"X. c #D47FA0",
"o. c #769FBB",
"O. c #7589AD",
"+. c #71A1BB",
"@. c #6FA1BC",
"#. c #7DB8CF",
"$. c #7EBCD1",
"%. c #A6949B",
"&. c #8C82AD",
"*. c #9B86A4",
"=. c #8993B7",
"-. c #8B98BA",
";. c #879ABC",
":. c #979ABB",
">. c #898CB3",
",. c #AC84AA",
"<. c #A681A5",
"1. c #BC85AC",
"2. c #BD8AAC",
"3. c #B684A8",
"4. c #BC95AF",
"5. c #A19DBD",
"6. c #BB9CB3",
"7. c #BA97B0",
"8. c #A599A9",
"9. c #B8A1BC",
"0. c #A0A0BE",
"q. c #D3819F",
"w. c #D9859F",
"e. c #C68AA6",
"r. c #C786A8",
"t. c #D583A1",
"y. c #D986A1",
"u. c #D48BA5",
"i. c #DA8AA2",
"p. c #D38CA9",
"a. c #C998AD",
"s. c #DB92A9",
"d. c #DA97AB",
"f. c #C48DB1",
"g. c #C894B5",
"h. c #D699B5",
"j. c #DAA4BD",
"k. c #D9A4B9",
"l. c #C6AABE",
"z. c #E1AAB9",
"x. c #84A6C3",
"c. c #8BAAC6",
"v. c #93ACC6",
"b. c #98A9C4",
"n. c #81B4CC",
"m. c #8DB8CD",
"M. c #84BCD1",
"N. c #89BED2",
"B. c #94BCD0",
"V. c #ABA4C1",
"C. c #A9ABC5",
"Z. c #BBABC5",
"A. c #B6B7C8",
"S. c #B8B4C9",
"D. c #A9B6C1",
"F. c #D7A8C1",
"G. c #C5BDCC",
"H. c #CEBACB",
"J. c #DCB7CA",
"K. c #D6BDCF",
"L. c #DBB5C8",
"P. c #CEACC4",
"I. c #E2BAC6",
"U. c #8CC2D4",
"Y. c #93C5D5",
"T. c #99C7D7",
"R. c #9BCDD8",
"E. c #97CCD6",
"W. c #A7CDDA",
"Q. c #A9CDDB",
"!. c #B6C4D2",
"~. c #ACD2DD",
"^. c #B3D4DF",
"/. c #BCD5DE",
"(. c #BCD7E0",
"). c #BCD9E1",
"_. c #B5D6E0",
"`. c #BFE1E9",
"'. c #CDCAD5",
"]. c #D8C4D2",
"[. c #C9D5DC",
"{. c #C9D6DC",
"}. c #D6DBDF",
"|. c #CDC2CE",
" X c #E5CBD4",
".X c #E4C8D2",
"XX c #E5D6DC",
"oX c #E0C3CD",
"OX c #C3DDE3",
"+X c #D6DDE2",
"@X c #E5DDE1",
"#X c #CFE1E5",
"$X c #D5E3E7",
"%X c #DAE7E8",
"&X c #E6EDEB",
"*X c #EBEEEC",
"=X c #E9E5E5",
"-X c #EEF1EE",
";X c #F0F1EE",
":X c #EFF4F0",
">X c #F1F8F3",
",X c None",
/* pixels */
",X,X,X,X,X,X,X,X,X,X,X,X,X,X,X,X,X,X,X,X,X,X,X,X,X,X,X,X,X,X,X,X,X,X,X,X,X,X,X,X,X,X,X,X,X,X,X,X,X,X,X,X,X,X,X,X,X,X,X,X,X,X,X,X",
",X,X,X,X,X,X,X,X,X,X,X,X,X,X,X,X,X,X,X,X,X,X,X,X,X,X,X,X,X,X,X,X,X,X,X,X,X,X,X,X,X,X,X,X,X,X,X,X,X,X,X,X,X,X,X,X,X,X,X,X,X,X,X,X",
",X,X,X,X,X,X,X,X,X,X,X,X,X,X,X,X,X,X,X,X,X,X,X,X,X,X,X,X,X,X,X,X,X,X,X,X,X,X,X,X,X,X,X,X,X,X,X,X,X,X,X,X,X,X,X,X,X,X,X,X,X,X,X,X",
",X,X,X,X,X,X,X,X,X,X,X,X,X,X,X,X,X,X,X,X,X,X,X,X,X,X,X,X,X,X,X,X,X,X,X,X,X,X,X,X,X,X,X,X,X,X,X,X,X,X,X,X,X,X,X,X,X,X,X,X,X,X,X,X",
",X,X,X,X,X,X,X,X,X,X,X,X,X,X,X,X,X,X,X,X,X,X,X,X,X,X,X,X,X,X,X,X,X,X,X,X,X,X,X,X,X,X,X,X,X,X,X,X,X,X,X,X,X,X,X,X,X,X,X,X,X,X,X,X",
",X,X,X,X,X,X,X,X,X,X,X,X,X,X,X,X,X,X,X,X,X,X,X,X,X,X,X,X,X,X,X,X,X,X,X,X,X,X,X,X,X,X,X,X,X,X,X,X,X,X,X,X,X,X,X,X,X,X,X,X,X,X,X,X",
",X,X,X,X,X,X,X,X,X,X,X,X,X,X,X,X,X,X,X,X,X,X,X,X,X,X,X,X,X,X,X,X,X,X,X,X,X,X,X,X,X,X,X,X,X,X,X,X,X,X,X,X,X,X,X,X,X,X,X,X,X,X,X,X",
",X,X,X,X,X,X,X,X,X,X,X,X,X,X,X,X,X,X,X,X,X,X,X,X,X,X,X,X,X,X,X,X,X,X,X,X,X,X,X,X,X,X,X,X,X,X,X,X,X,X,X,X,X,X,X,X,X,X,X,X,X,X,X,X",
",X,X,X,X,X,X,X,X,X,X,X,X,X,X,X,X,X,X,X,X,X,X,X,X,X,X,X,X,X,X,X,X,X,X,X,X,X,X,X,X,X,X,X,X,X,X,X,X,X,X,X,X,X,X,X,X,X,X,X,X,X,X,X,X",
",X,X,X,X,X,X,X,X,X,X,X,X,X,X,X,X,X,X,X,X,X,X,X,X,X,X,X,X,X,X,X,X,X,X,X,X,X,X,X,X,X,X,X,X,X,X,X,X,X,X,X,X,X,X,X,X,X,X,X,X,X,X,X,X",
",X,X,X,X,X,X,X,X,X,X,X,X,X,X,X,X,X,X,X,X,X,X,X,X,X,X,X,X,X,X,X,X,X,X,X,X,X,X,X,X,X,X,X,X,X,X,X,X,X,X,X,X,X,X,X,X,X,X,X,X,X,X,X,X",
",X,X,X,X,X,X,X,X,X,X,X,X,X,X,X,X,X,X,X,X,X,X,X,X,X,X,X,X,X,X,X,X,X,X,X,X,X,X,X,X,X,X,X,X,X,X,X,X,X,X,X,X,X,X,X,X,X,X,X,X,X,X,X,X",
",X,X,X,X,X,X,X,X,X,X,X,X,X,X,X,X,X,X,X,X,X,X,X,X,X,X,X,X,X,X,X,X,X,X,X,X,X,X,X,X,X,X,X,X,X,X,X,X,X,X,X,X,X,X,X,X,X,X,X,X,X,X,X,X",
",X,X,X,X,X,X,X,X,X,X,X,X,X,X,X,X,X,X,X,X,X,X,X,X,X,X,X,X,X,X,X,X,X,X,X,X,X,X,X,X,X,X,X,X,X,X,X,X,X,X,X,X,X,X,X,X,X,X,X,X,X,X,X,X",
",X,X,X,X,X,X,X,X,X,X,X,X,X,X,X,X,X,X,X,X,X,X,X,X,X,X,X,X,X,X,X,X,X,X,X,X,X,X,X,X,X,X,X,X,X,X,X,X,X,X,X,X,X,X,X,X,X,X,X,X,X,X,X,X",
",X,X,X,X,X,X,X,X,X,X,X,X,X,X,X,X,X,X,X,X,X,X,X,X,X,X,X,X,X,X,X,X,X,X,X,X,X,X,X,X,X,X,X,X,X,X,X,X,X,X,X,X,X,X,X,X,X,X,X,X,X,X,X,X",
",X,X,X,X,X,X,X,X,X,X,X,X,X,X,X,X,X,X,X,X,X,X,X,X,X,X,X,X,X,X,X,X,X,X,X,X,X,X,X,X,X,X,X,X,X,X,X,X,X,X,X,X,X,X,X,X,X,X,X,X,X,X,X,X",
",X,X,X,X,X,X,X,X,X,X,X,X,X,X,X,X,X,X,X,X,X,X,X,X,X,X,X,X,X,X,X,X,X,X,X,X,X,X,X,X,X,X,X,X,X,X,X,X,X,X,X,X,X,X,X,X,X,X,X,X,X,X,X,X",
",X,X,X,X,X,X,X,X,X,X,X,X,X,X,X,X,X,X,X,X,X,X,X,X,X,X,X,X,X,X,X,X,X,X,X,X,X,X,X,X,X,X,X,X,X,X,X,X,X,X,X,X,X,X,X,X,X,X,X,X,X,X,X,X",
",X,X,X,X,X,X,X,X,X,X,X,X,X,X,X,X,X,X,X,X,X,X,X,X,X,X,X,X,X,X,X,X,X,X,X,X,X,X,X,X,X,X,X,X,X,X,X,X,X,X,X,X,X,X,X,X,X,X,X,X,X,X,X,X",
",X,X,X,X,X,X,X,X,X,X,X,X,X,X,X,X,Xa y t d t d ,X,X,X,X,X,X,X,X,X,X,X,X,X,X,X,X,X,X,X,X,X,X,X,X,X,X,X,X,X,X,X,X,X,X,X,X,X,X,X,X,X",
",X,X,X,X,X,X,X,X,X,X,X,X,X,X,Xy z t.} X.X.t.] g ,X,X,X,X,X,X,X,X,X,X,X,X,X,X,X,X,X,X,X,X,X,X,X,X,X,X,X,X,X,X,X,X,X,X,X,X,X,X,X,X",
",X,X,X,X,X,X,X,X,X,X,X,X,X,Xk X.y.i.y.i.y.i.i.i._ ,X,X,X,X,X,X,X,X,X,X,X,X,X,X,X,X,X,X,X,X,X,X,X,X,X,X,X,X,X,X,X,X,X,X,X,X,X,X,X",
",X,X,X,X,X,X,X,X,X,X,X,X,Xw r.s.y.i.i.i.i.i.y.y.d.S ,X,X,X,X,X,X,Xi.i.i.y.,X,X,X,X,X,X,X,X,X,X,X,X,X,X,X,X,X,X,X,X,X,X,X,X,X,X,X",
",X,X,X,X,X,X,X,X,X,X,Xt w w E I.I.y.y.i.y.y.d..Xj.m w w w w t X.i.i.i.y.y.` Q i.i.i.t.t t ,X,X,X,X,X,X,X,X,X,X,X,X,X,X,X,X,X,X,X",
",X,X,X,X,X,X,X,X,X,Xp :.K.R a ..g. X X X XXXJ.p.B t P.K.K.K.P.u.y.i.i.i.i.t.Q _ | i.u.0.S.Y ,X,X,X,X,X,X,X,X,X,X,X,X,X,X,X,X,X,X",
",X,X,X,X,X,X,X,X,Xy ;.T.>Xg.T A z _ _ _ J _ J m f.m @X-X;X;Xf.X.i.i.y.y.i.t.M M Q | p.Q.OXn.C ,X,X,X,X,X,X,X,X,X,X,X,X,X,X,X,X,X",
",X,X,X,X,X,X,X,X,Xt x.T.>X9.z L.L.E H H H E ..].r.m +X-X=Xf.W X.i.i.i.i.i.| ! v c v t.XXOX$.C ,X,X,X,X,X,X,X,X,X,X,X,X,X,X,X,X,X",
",X,X,X,X,X,X,X,X,Xt x.T.:X_.&.k B L.J.J.J.J.h.k m c.%X=X1.w h ! | i.i.i.| Q v v a a v u.G.m.C ,X,X,X,X,X,X,X,X,X,X,X,X,X,X,X,X,X",
",X,X,X,X,X,X,X,X,Xy x.T.:X+XY.>.U f s h h s m U x.~.*X].w a w c Q ` ` ` Q M W h w t h M ) 2.S ,X,X,X,X,X,X,X,X,X,X,X,X,X,X,X,X,X",
",X,X,X,X,X,X,X,X,Xy x.T.-X-X$XN.n.=.=.=.=.=.;.$.~.*X-X+XU w k v W v B v v B v v a t k B v Q ` ,X,X,X,X,X,X,X,X,X,X,X,X,X,X,X,X,X",
",X,X,X,X,X,X,X,X,Xt x.T.-X-X;X%XY.N.U.N.N.U.U.~.&X-X-X-X(.c.E v K v.v.v.H B B v M B J b.v.<.| ,X,X,X,X,X,X,X,X,X,X,X,X,X,X,X,X,X",
",X,X,X,X,X,X,X,X,Xt x.T.%X$X$X$X#X+X#X#X#X+X#X$X%X$X%X$X$X#Xr.n K T.$X#XB.#.:.v M H.+X#X~.n.4.,X,X,X,X,X,X,X,X,X,X,X,X,X,X,X,X,X",
",X,X,X,X,X,X,X,X,Xt x.M.W.W.Q.W.W.Q.Q.Q.W.Q.Q.Q.W.Q.W.Q.W.W.g.Q T W.Q.Q.W.W.V.v M C.W.W.T.$.7.i.,X,X,X,X,X,X,X,X,X,X,X,X,X,X,X,X",
",X,X,X,X,X,X,X,X,Xy c.).-X$X/./.(.(./._.).(./.).).).)./.).).^.5.N.(.(.(./.).!.A E A.OX;X%XT.T { ,X,X,X,X,X,X,X,X,X,X,X,X,X,X,X,X",
",X,X,X,X,X,X,X,X,Xt v.*X$XY.#.M.Y.$.U.U.#.E.R.U.#.#.$.E.R.U.#.U.M.#.#.U.E.R.E.c.c.$.n./.;X_.,.q.,X,X,X,X,X,X,X,X,X,X,X,X,X,X,X,X",
",X,X,X,X,X,X,X,X,Xy '.:X&XQ.M.N.U.M.U.U.N.Y.Y.U.M.M.U.Y.Y.U.9.7.m.N.N.Y.Y.Y.Y.U.U.M.U.$X;X%X1.,X,X,X,X,X,X,X,X,X,X,X,X,X,X,X,X,X",
",X,X,X,X,X,X,X,X,Xg |.+X}.}.[.[.{.{.{.{.{.{.{.{.[.[.[.[.{.|.a.i.'.[.[.OX{.{.{.{.{.{.{.+X+X}.E ,X,X,X,X,X,X,X,X,X,X,X,X,X,X,X,X,X",
",X,X,X,X,X,X,X,X,Xt 2 9 9 3 4 4 3 4 4 3 3 3 3 3 3 4 3 2 1 9 Z e.0 9 9 9 9 9 9 9 9 9 9 9 9 9 i g b l ,X,X,X,X,X,X,X,X,X,X,X,X,X,X",
",X,X,X,X,X,X,X,X,Xt 2 1 V f.G F f.R N R 2.K J f.L D r.T 2 < < Z 9 9 2 6 5 5 5 5 6 6 6 6 4 < e { y.` D l ,X,X,X,X,X,X,X,X,X,X,X,X",
",X,X,X,X,X,X,X,X,Xt i u ].>Xz.s.*X Xw. X;Xs.z.>XI.i.=X=X3.i u u i 7 x W W W W W W W W W c u y { } ) } / G d ,X,X,X,X,X,X,X,X,X,X",
",X,X,X,X,X,X,X,X,Xt v H ;X.Xs..X;X Xw..X;Xs.k.-X=Xd.z.;XP.k M v v s Q h.u.[ } { } [ t.j.Q W f { q.) [ | [ ( d ,X,X,X,X,X,X,X,X,X",
",X,X,X,X,X,X,X,X,Xt x XX;XI.w.@X>X Xw. X*Xs.z.*X-Xk.s.&X*X2.7 z v a h.L.p - - 8 - y y k.F.v g { } ) [ | / q.( d ,X,X,X,X,X,X,X,X",
",X,X,X,X,X,X,X,X,Xw x =X-XL.} XX*X.X} oX=Xi.d.&X*Xh.t.=X-Xf.y m k a j.1.X     . X & - C L.v g q.t.| [ [ ' } ) G ,X,X,X,X,X,X,X,X",
",X,X,X,X,X,X,X,X,Xt l 4.6.H c 2.a.1.k 3.6.v K 7.a.K c 4.9.I i 5 k f F.T   . w *   X   C L.n f F ` [ } } / | ) G ,X,X,X,X,X,X,X,X",
",X,X,X,X,X,X,X,X,Xa c s J A w w w & w w & a w & & t g 1.h c p u k s F.<.  . w * .     C J.W f f h c F { } } ) _ ,X,X,X,X,X,X,X,X",
",X,X,X,X,X,X,X,X,Xt c v p.@X0.Z.:.Z.V.V.Z.:.P.V.V.Z.R  XW W x p c s j.3.w w r r - D P P K c f c Q v h b q.q.' _ ,X,X,X,X,X,X,X,X",
",X,X,X,X,X,X,X,X,Xt j $ $ %.`.~.OX_.).)._.OX^._./.Q...oXM W 6 4 l f B F.b.G.b.S.3.' / ' D h f v v v v v l { w.G ,X,X,X,X,X,X,X,X",
",X,X,X,X,X,X,X,X,Xt j @ O > !.).~.)._.~.).~.).^.^./.g.].W W 6 4 c f W Q N B F / c k v k l v f c v M n v j l q.( ,X,X,X,X,X,X,X,X",
",X,X,X,X,X,X,X,X,Xa j @ + @ @ 8.].A.|.|.A.|.A.|.|.A.].F.W n v v c f M k f v M v v f a k v v f v M M = % $ > c b ,X,X,X,X,X,X,X,X",
",X,X,X,X,X,X,X,X,Xa k @ o o o q.i.w.w.w.i.w.i.w.w.i.i.~ $ = | ` / h ..` ` ` [ ` [ [ ` [ ` ` l / ` ` ^ # = ` v s ,X,X,X,X,X,X,X,X",
",X,X,X,X,X,X,X,X,Xt v ; > = > > ) ` ` ) ` ) ) ) ) ) ` ~ : W ) ` F l ) ) ) ) ) ` ) ) ` ) ) ) h F ) ) ) > ~ / / N ,X,X,X,X,X,X,X,X",
",X,X,X,X,X,X,X,X,Xt [ } q.w.q.q.q.} } } } } } } } } } q.q.} } X.` l X.| } } } } | } } } q.q.l ] X.X.X.X.| X.y._ ,X,X,X,X,X,X,X,X",
",X,X,X,X,X,X,X,X,Xt q.i.u.i.i.i.i.w.i.i.i.i.i.i.i.i.i.i.i.i.i.i.{ N i.i.i.i.i.i.i.i.i.i.w.w.D q.i.i.i.y.i.i.i.G ,X,X,X,X,X,X,X,X",
",X,X,X,X,X,X,X,X,Xt [ } } } { } } { { ] [ ] [ } } } } } } } | } [ l X.} | } } | } | } { [ z D { X.X.| X.| | X.F ,X,X,X,X,X,X,X,X",
",X,X,X,X,X,X,X,X,X,Xk v W W W v v f g D D b a c W W W W W W Q W v f M M Q v ! W Q ! h d N D b d k M W W ! ! ! k ,X,X,X,X,X,X,X,X",
",X,X,X,X,X,X,X,X,X,Xd P 5 5 5 6 d g { i.i.w.D a u 5 6 6 6 5 6 6 5 8 f f f h h h f h d ] i.i.i.( a p 5 5 5 5 u k ,X,X,X,X,X,X,X,X",
",X,X,X,X,X,X,X,X,X,X,XD *.@.+.i d } ] l z D w.b r O.+.+.o.@.o.+.o.o.-.-.-.-.-.-.C t ] { l z l } ) r q @.*.I I g ,X,X,X,X,X,X,X,X",
",X,X,X,X,X,X,X,X,X,X,X,XK e.e.g g { t a d t b G w L e.e.e.e.e.e.r.e.e.e.e.e.e.e.z t { g t g t g { t D e.D g g ,X,X,X,X,X,X,X,X,X",
",X,X,X,X,X,X,X,X,X,X,X,X,Xa d t g ] t ( w.y b ( t a t a a a a a t a a a d a a a t a [ y b i.b a [ t a a ,X,X,X,X,X,X,X,X,X,X,X,X",
",X,X,X,X,X,X,X,X,X,X,X,X,X,X,X,Xl ] r b ( t l G ,X,X,X,X,X,X,X,X,X,X,X,X,X,X,X,X,Xd [ t l ( l t [ t ,X,X,X,X,X,X,X,X,X,X,X,X,X,X",
",X,X,X,X,X,X,X,X,X,X,X,X,X,X,X,Xg F l t t a G b ,X,X,X,X,X,X,X,X,X,X,X,X,X,X,X,X,X,XD D t w t D D ,X,X,X,X,X,X,X,X,X,X,X,X,X,X,X",
",X,X,X,X,X,X,X,X,X,X,X,X,X,X,X,X,Xl F ( ` G b ,X,X,X,X,X,X,X,X,X,X,X,X,X,X,X,X,X,X,X,XD ( ( ] D ,X,X,X,X,X,X,X,X,X,X,X,X,X,X,X,X",
",X,X,X,X,X,X,X,X,X,X,X,X,X,X,X,X,X,Xg l l l ,X,X,X,X,X,X,X,X,X,X,X,X,X,X,X,X,X,X,X,X,X,Xl l l ,X,X,X,X,X,X,X,X,X,X,X,X,X,X,X,X,X"
};
