/* XPM */
static char *result[] = {
/* columns rows colors chars-per-pixel */
"64 64 119 2 ",
"   c #0B0C17",
".  c #0C0E19",
"X  c #0F111C",
"o  c #11131D",
"O  c #131621",
"+  c #161A25",
"@  c #191D27",
"#  c #171D28",
"$  c #191F2A",
"%  c #1B222C",
"&  c #1E2631",
"*  c #1F2833",
"=  c #1D2738",
"-  c #1E293C",
";  c #22272F",
":  c #202731",
">  c #242C35",
",  c #282F37",
"<  c #252E3A",
"1  c #282F38",
"2  c #293037",
"3  c #26303A",
"4  c #2C343C",
"5  c #30383F",
"6  c #273440",
"7  c #2C3740",
"8  c #2E3941",
"9  c #2D3C49",
"0  c #333C44",
"q  c #353F48",
"w  c #374047",
"e  c #374149",
"r  c #3A444B",
"t  c #3E494F",
"y  c #334553",
"u  c #354957",
"i  c #3F4A50",
"p  c #30455D",
"a  c #364C5A",
"s  c #384E5C",
"d  c #3A515F",
"f  c #344C66",
"g  c #364E69",
"h  c #3B5261",
"j  c #37506A",
"k  c #3B5775",
"l  c #3C5877",
"z  c #414C52",
"x  c #455157",
"c  c #455259",
"v  c #4A575D",
"b  c #4B585F",
"n  c #4D5B62",
"m  c #405969",
"M  c #505F65",
"N  c #516067",
"B  c #55646A",
"V  c #58686F",
"C  c #476473",
"Z  c #496778",
"A  c #4C6C7C",
"S  c #546770",
"D  c #5A6B71",
"F  c #6B6E72",
"G  c #6E7175",
"H  c #507283",
"J  c #547688",
"K  c #55798A",
"L  c #587D8F",
"P  c #5A7F91",
"I  c #587F99",
"U  c #617B81",
"Y  c #697B81",
"T  c #787E81",
"R  c #547CA2",
"E  c #5B8395",
"W  c #5D8598",
"Q  c #5F889A",
"!  c #678288",
"~  c #7D8385",
"^  c #618A9D",
"/  c #708C91",
"(  c #759396",
")  c #78979A",
"_  c #5985AB",
"`  c #5E8CB4",
"'  c #638EA1",
"]  c #6895A8",
"[  c #6C9AAE",
"{  c #6493B2",
"}  c #6797BB",
"|  c #6798BC",
" . c #70A2B6",
".. c #73A5BA",
"X. c #76AABF",
"o. c #78ACC1",
"O. c #75ACCB",
"+. c #7BB2C7",
"@. c #7DB4CC",
"#. c #7FB8CE",
"$. c #7EB7D1",
"%. c #7FB9D2",
"&. c #A4A9A9",
"*. c #ACB1B1",
"=. c #BCC1BF",
"-. c #89B7C3",
";. c #80B9CF",
":. c #8FBDCA",
">. c #82BBD1",
",. c #91C1CC",
"<. c #85C0D6",
"1. c #8BC3D6",
"2. c #87C3DA",
"3. c #89C5DC",
"4. c #97C8D1",
"5. c #9DCFD7",
"6. c #A2D4DB",
"7. c #93CEE0",
"8. c None",
/* pixels */
"8.8.8.8.8.8.8.8.8.8.8.8.8.8.8.8.8.8.8.8.8.8.8.8.8.8.8.8.8.8.8.8.8.8.8.8.8.8.8.8.8.8.8.8.8.8.8.8.8.8.8.8.8.8.8.8.8.8.8.8.8.8.8.8.",
"8.8.8.8.8.8.8.8.8.8.8.8.8.8.8.8.8.8.8.8.8.8.8.8.8.8.8.8.8.8.8.8.8.8.8.8.8.8.8.8.8.8.8.8.8.8.8.8.8.8.8.8.8.8.8.8.8.8.8.8.8.8.8.8.",
"8.8.8.8.8.8.8.8.8.8.8.8.8.8.8.8.8.8.8.8.8.8.8.8.8.8.8.8.8.8.8.8.8.8.8.8.8.8.8.8.8.8.8.8.8.8.8.8.8.8.8.8.8.8.8.8.8.8.8.8.8.8.8.8.",
"8.8.8.8.8.8.8.8.8.8.8.8.8.8.8.8.8.8.8.8.8.8.8.8.8.8.8.8.8.8.8.8.8.8.8.8.8.8.8.8.8.8.8.8.8.8.8.8.8.8.8.8.8.8.8.8.8.8.8.8.8.8.8.8.",
"8.8.8.8.8.8.8.8.8.8.8.8.8.8.8.8.8.8.8.8.8.8.8.8.8.8.8.8.8.8.8.8.8.8.8.8.8.8.8.8.8.8.8.8.8.8.8.8.8.8.8.8.8.8.8.8.8.8.8.8.8.8.8.8.",
"8.8.8.8.8.8.8.8.8.8.8.8.8.8.8.8.8.8.8.8.8.8.8.8.8.8.8.8.8.8.8.8.8.8.8.8.8.8.8.8.8.8.8.8.8.8.8.8.8.8.8.8.8.8.8.8.8.8.8.8.8.8.8.8.",
"8.8.8.8.8.8.8.8.8.8.8.8.8.8.8.8.8.8.8.8.8.8.8.8.8.8.8.8.8.8.8.8.8.8.8.8.8.8.8.8.8.8.8.8.8.8.8.8.8.8.8.8.8.8.8.8.8.8.8.8.8.8.8.8.",
"8.8.8.8.8.8.8.8.8.8.8.8.8.8.8.8.8.8.8.8.8.8.8.8.8.8.8.8.8.8.8.8.8.8.8.8.8.8.8.8.8.8.8.8.8.8.8.8.8.8.8.8.8.8.8.8.8.8.8.8.8.8.8.8.",
"8.8.8.8.8.8.8.8.8.8.8.8.8.8.8.8.8.8.8.8.8.8.8.8.8.8.8.8.8.8.8.8.8.8.8.8.8.8.8.8.8.8.8.8.8.8.8.8.8.8.8.8.8.8.8.8.8.8.8.8.8.8.8.8.",
"8.8.8.8.8.8.8.8.8.8.8.8.8.8.8.8.8.8.8.8.8.8.8.8.8.8.8.8.8.8.8.8.8.8.8.8.8.8.8.8.8.8.8.8.8.8.8.8.8.8.8.8.8.8.8.8.8.8.8.8.8.8.8.8.",
"8.8.8.8.8.8.8.8.8.8.8.8.8.8.8.8.8.8.8.8.8.8.8.8.8.8.8.8.8.8.8.8.8.8.8.8.8.8.8.8.8.8.8.8.8.8.8.8.8.8.8.8.8.8.8.8.8.8.8.8.8.8.8.8.",
"8.8.8.8.8.8.8.8.8.8.8.8.8.8.8.8.8.8.8.8.8.8.8.8.8.8.8.8.8.8.8.8.8.8.8.8.8.8.8.8.8.8.8.8.8.8.8.8.8.8.8.8.8.8.8.8.8.8.8.8.8.8.8.8.",
"8.8.8.8.8.8.8.8.8.8.8.8.8.8.8.8.8.8.8.8.8.8.8.8.8.8.8.8.8.8.8.8.8.8.8.8.8.8.8.8.8.8.8.8.8.8.8.8.8.8.8.8.8.8.8.8.8.8.8.8.8.8.8.8.",
"8.8.8.8.8.8.8.8.8.8.8.8.8.8.8.8.8.8.8.8.8.8.8.8.8.8.8.8.8.8.8.8.8.8.8.8.8.8.8.8.8.8.8.8.8.8.8.8.8.8.8.8.8.8.8.8.8.8.8.8.8.8.8.8.",
"8.8.8.8.8.8.8.8.8.8.8.8.8.8.8.8.8.8.8.8.8.8.8.8.8.8.8.8.8.8.8.8.8.8.8.8.8.8.8.8.8.8.8.8.8.8.8.8.8.8.8.8.8.8.8.8.8.8.8.8.8.8.8.8.",
"8.8.8.8.8.8.8.8.8.8.8.8.8.8.8.8.8.8.8.8.8.8.8.8.8.8.8.8.8.8.8.8.8.8.8.8.8.8.8.8.8.8.8.8.8.8.8.8.8.8.8.8.8.8.8.8.8.8.8.8.8.8.8.8.",
"8.8.8.8.8.8.8.8.8.8.8.8.8.8.8.8.8.8.8.8.8.8.8.8.8.8.8.8.8.8.8.8.8.8.8.8.8.8.8.8.8.8.8.8.8.8.8.8.8.8.8.8.8.8.8.8.8.8.8.8.8.8.8.8.",
"8.8.8.8.8.8.8.8.8.8.8.8.8.8.8.8.8.8.8.8.8.8.8.8.8.8.8.8.8.8.8.8.8.8.8.8.8.8.8.8.8.8.8.8.8.8.8.8.8.8.8.8.8.8.8.8.8.8.8.8.8.8.8.8.",
"8.8.8.8.8.8.8.8.8.8.8.8.8.8.8.8.8.8.8.8.8.8.8.8.8.8.8.8.8.8.8.8.8.8.8.8.8.8.8.8.8.8.8.8.8.8.8.8.8.8.8.8.8.8.8.8.8.8.8.8.8.8.8.8.",
"8.8.8.8.8.8.8.8.8.8.8.8.8.8.8.8.8.8.8.8.8.8.8.8.8.8.8.8.8.8.8.8.8.8.8.8.8.8.8.8.8.8.8.8.8.8.8.8.8.8.8.8.8.8.8.8.8.8.8.8.8.8.8.8.",
"8.8.8.8.8.8.8.8.8.8.8.8.8.8.8.8.8.8.8.8.8.8.8.8.8.8.8.8.8.8.8.8.8.8.8.8.8.8.8.8.8.8.8.8.8.8.8.8.8.8.8.8.8.8.8.8.8.8.8.8.8.8.8.8.",
"8.8.8.8.8.8.8.8.8.8.8.8.8.8.8.8.8.8.8.8.8.8.8.8.8.8.8.8.8.8.8.8.8.8.8.8.8.8.8.8.8.8.8.8.8.8.8.8.8.8.8.8.8.8.8.8.8.8.8.8.8.8.8.8.",
"8.8.8.8.. . 8.8.8.8.8.8.8.8.8.8.8.8.8.8.8.8.8.8.8.8.8.8.8.8.8.8.8.8.8.8.8.8.8.8.8.8.8.8.8.8.8.8.8.8.8.8.8.8.8.8.8.8.8.8.8.8.8.8.",
"8.8.8.  > ,   8.8.8.8.8.8.8.8.8.8.8.8.8.8.8.8.8.8.8.8.8.8.8.8.8.8.8.8.8.8.8.8.8.8.8.8.8.8.8.8.8.8.8.8.8.8.8.8.8.8.8.8.8.8.8.8.8.",
"8.8.o ; w 4   8.8.8.8.8.8.8.8.8.8.8.8.8.8.8.8.8.8.8.8.8.8.8.8.8.8.8.8.8.8.8.8.8.8.8.8.8.8.8.8.8.8.8.8.8.8.8.8.8.8.8.8.8.8.8.8.8.",
"8.8.o w x 0 + 8.8.8.8.8.8.8.8.8.8.8.8.8.8.8.8.8.. X . . . o . . . . . . . . . O = - & 8.8.8.8.8.8.8.8.8.8.8.8.8.8.8.8.8.8.8.8.8.",
"8.8.o 0 i i w o 8.8.8.8.8.8.8.8.8.8.8.8.8.    X O + + + + o o + + + O + O + o < R ` g . 8.8.8.8.8.8.8.8.8.8.8.8.8.8.8.8.8.8.8.8.",
"8.8.X , 4 4 2 X 8.8.8.8.8.8.8.8.8.8.8.    X X o 5 0 0 0 0 w w 5 0 q 0 0 0 q : < _ O.{ l X 8.8.8.8.8.8.8.8.8.8.8.8.8.8.8.8.8.8.8.",
"8.8.. : , > * X 8.8.8.8.8.8.8.8.8.  X % X % 2 4 r z z z t z z z i z i z z z 2 6 _ @.$.{ g # 8.8.8.8.8.8.8.8.8.8.8.8.8.8.8.8.8.8.",
"8.8.X 3 7 7 4 o   8.8.8.8.8.8.8.o o + > + 2 x z z z z t t t t z t z t z i z 1 - _ @.>.$.| p $ 8.8.8.8.8.8.8.8.8.8.8.8.8.8.8.8.8.",
"8.8.o 0 i i e o X o 8.8.. X X X % < > < + 4 t z t t z t z t t t t z i i i z 1 < _ O.>.%.$.| f X 8.8.8.8.8.8.8.8.8.8.8.8.8.8.8.8.",
"8.8.o w z z e o w r     % : & & % + + > + 2 t t z t t z t z z t z t i i i z 1 - _ +.>.>.$.$.{ l X               . 8.8.8.8.8.8.8.",
"8.8.o w z i e o c v % % * > % & C a + > + 1 z t z z z z z t t z t t t z t z , > _ O.>.>.>.>.;.I + : 1 1 2 2 > 2 > . 8.8.8.8.8.8.",
"8.8.o w z z e o 8 t > 3 * 4 d h ..J $ > + , z t z r z r t t z t t z t z t z < < _ O.>.>.>.>.2.' $ q z z t x i x t % o 8.8.8.8.8.",
"8.8.o 0 i i w o + * 2 < > A #.#.>.H $ > + 1 z t r z z z t z z t t z t t t z 2 < _ +.>.>.;.;.>.' $ 0 z z i i i i t t %   8.8.8.8.",
"8.8.X > 4 4 3 X O & * O H +.>.;.>.Z o , + 1 z t z z z r z t t z z t t z i z < - _ +.>.>.>.;.2.' $ 0 z z i i t t t z > o . 8.8.8.",
"8.8.X * > > * X o & * % Q 2.2.%.K 9 % & O < i z b B B B B N B B B B B B B B b S :.>.>.>.>.>.<.' $ 4 0 7 7 0 8 8 0 i 2 O . 8.8.8.",
"8.8.o 2 w 8 3 o > 8 * % ' X.E E 9 % 3 t 0 t n n c x x c x v v x c c c c c c c N ( :.1.>.>.>.<.' $ : < > > > > > 3 0 > o . 8.8.8.",
"8.8.o w i i e o i n > % E H % % 3 7 e B B B V M 1 : 7 6 6 6 6 6 4 6 6 6 6 * @ o O / 4.>.>.;.>.' $ > 2 2 3 3 3 3 3 3 * + . 8.8.8.",
"8.8.o w x i e O c n * X = 3 > 3 v D b 3 > > > : $ A X................... .u + + O ; ! 6.>.>.>.' $ 0 t t t t t t r 3 % O   8.8.8.",
"8.8.X r x 5 % + 3 7 > % % 9 n n t 7 u E E W Z + + L 3.>.>.2.>.>.>.>.>.<.>.[ h + # O 3 U 5.1.>.' $ 0 z z z i z z t e > o . 8.8.8.",
"8.8.X 2 r 4   @ # % 3 i i z c c & 3 H >.<.<...m : s ] >.>.>.>.;.>.>.>.>.>.2.[ h * $ o < / ,.7.] $ 0 z z t t t t t t , O   8.8.8.",
"8.8.8.  > > o % % * e M S i $ % 3 K >.%.;.;.<.+.h $ y  .;.>.>.;.>.>.>.>.>.X...Q > $ % + $ ) -.P , z c z z c x x x i 2 O . 8.8.8.",
"8.8.8.. . % > 2 > i n < : % # % E +.%.#.;.#.#.@.o.m # 9  .>.;.#.#.#.#.$.#.h > > $ $ $ $ $ : * 8 B V D D D D D D V z 3 O   8.8.8.",
"8.8.8.  5 b N M M c 6 % # $ $ % y d a a d a d a h 6 + $ y s s s a a a a u : + @ # $ # + $ + O % 5 0 8 8 8 8 8 8 q M N 0   8.8.8.",
"8.8.8.  4 c x x c 0 + $ $ # & 2 , , , , > , , , , 1 4 1 $ + $ , , , , > ; % + + # + + + $ $ $ $ + + + # # # # + % t x 1   8.8.8.",
"8.8.8.  O # # % $ $ $ $ $ $ : 0 r w w r w r w w r r r 0 : # , q r r q r r % O + O O + % $ $ $ $ $ $ $ $ $ $ $ $ $ $ 4 >   8.8.8.",
"8.8.8.  O % % + $ $ $ $ $ $ % % % % ; % % % % % % % $ ; $ $ $ : % % % % % % @ $ $ $ $ $ $ $ $ $ $ $ $ $ $ $ $ $ $ * T F   8.8.8.",
"8.8.8.. O % # % # # % # % % # + + + + # # # $ # $ $ $ # $ $ $ $ $ $ $ $ $ $ $ $ $ $ $ # # # # # $ $ $ $ $ $ $ # 1 T *.G   8.8.8.",
"8.8.8.  O % % # # % # % # + & t z z i r : # $ $ $ $ $ $ $ $ $ $ $ $ $ $ $ $ $ $ $ $ # & r t t z r * # $ $ $ $ # 4 &.*.F   8.8.8.",
"8.8.8.  O % + % % # % + % % 9 v M n n n q : # $ $ $ $ % $ $ $ $ $ $ $ $ $ $ $ $ $ $ : q n n n n n 8 : # $ $ $ + 1 ~ *.F . 8.8.8.",
"8.8.8.  O % % % # % # % % e v + . o X O v r $ $ $ $ $ $ $ $ $ $ $ $ $ $ $ $ $ $ $ $ t c + . o X + n r $ $ $ $ $ $ : &.B   8.8.8.",
"8.8.8.  , 4 % + $ # # $ i i % o X o X o # t x $ # $ # # # $ # # $ # # $ $ $ # # $ c t # O . o o X $ z z $ # $ $ @ @ z w   8.8.8.",
"8.8.8.  r c 4 4 4 4 8 t r > . + + # # + X : r t 8 7 5 1 4 4 4 4 7 5 4 4 4 4 1 0 z r : . + + # + + . : r z 8 7 1 4 5 x 0 . 8.8.8.",
"8.8.8.. 0 n b b v v v v & . + $ $ $ $ $ #   % v n v v v b b v v v v v v v v v v n $ X + $ $ # # $ + X & n v v v v v M 0 . 8.8.8.",
"8.8.8.  O 7 V V V D n + o + $ $ $ : : $ # # o O v D V V V V V V V V V V V V D v O o # # $ % * & $ $ + X O n V V V V q +   8.8.8.",
"8.8.8.8.  + 1 , < 1 : . o + $ % c B c % # # o . > 1 1 < 1 1 1 1 1 1 1 1 1 1 1 : . o + $ % c B c $ $ + o . > 1 1 , 1 0 >   8.8.8.",
"8.8.8.8.8.. O 4 8 8 4 . O $ $ % M Y M & $ # O X , 8 4 5 8 8 4 5 5 7 5 8 7 7 8 1 o O $ $ * M Y M % $ $ O o 1 8 5 5 5 > ; 8.8.8.8.",
"8.8.8.8.8.8.o 4 5 8 , o O $ $ $ i n z % # $ O . , 8 5 5 4 8 5 5 5 5 5 7 5 8 0 , . O $ @ $ z n t % $ $ O . 4 5 5 5 7 @ 8.8.8.8.8.",
"8.8.8.8.8.8.8..   . .   o + $ $ $ % $ $ $ + o       .   . . . .   .     .         o + $ $ $ % $ $ $ O o     . .     8.8.8.8.8.8.",
"8.8.8.8.8.8.8.8.8.8.8.8.  o + $ $ $ $ $ + o . 8.8.8.8.8.8.8.8.8.8.8.8.8.8.8.8.8.8.. o + $ $ $ $ $ + X   8.8.8.8.8.8.8.8.8.8.8.8.",
"8.8.8.8.8.8.8.8.8.8.8.8.8.. o O + + + O o . 8.8.8.8.8.8.8.8.8.8.8.8.8.8.8.8.8.8.8.8.. o + + + + + o . 8.8.8.8.8.8.8.8.8.8.8.8.8.",
"8.8.8.8.8.8.8.8.8.8.8.8.8.8.. o o o o o . 8.8.8.8.8.8.8.8.8.8.8.8.8.8.8.8.8.8.8.8.8.8.. X o o o o . 8.8.8.8.8.8.8.8.8.8.8.8.8.8.",
"8.8.8.8.8.8.8.8.8.8.8.8.8.8.8.        . 8.8.8.8.8.8.8.8.8.8.8.8.8.8.8.8.8.8.8.8.8.8.8.8.    .     8.8.8.8.8.8.8.8.8.8.8.8.8.8.8."
};
