/* XPM */
static char *result[] = {
/* columns rows colors chars-per-pixel */
"76 76 11 1 ",
"  c #793A77",
". c #A0312F",
"X c #465E89",
"o c #9D4284",
"O c #BE568F",
"+ c #D989A2",
"@ c #81BAD0",
"# c #AFDDDD",
"$ c #CDCFCE",
"% c #EDEFED",
"& c None",
/* pixels */
"&&&&&&&&&&&&&&&&&&&&&&&&&&&&&&&&&&&&&&&&&&&&&&&&&&&&&&&&&&&&&&&&&&&&&&&&&&&&",
"&&&&&&&&&&&&&&&&&&&&&&&&&&&&&&&&&&&&&&&&&&&&&&&&&&&&&&&&&&&&&&&&&&&&&&&&&&&&",
"&&&&&&&&&&&&&&&&&&&&&&&&&&&&&&&&&&&&&&&&&&&&&&&&&&&&&&&&&&&&&&&&&&&&&&&&&&&&",
"&&&&&&&&&&&&&&&&&&&&&&&&&&&&&&&&&&&&&&&&&&&&&&&&&&&&&&&&&&&&&&&&&&&&&&&&&&&&",
"&&&&&&&&&&&&&&&&&&&&&&&&&&&&&&&&&&&&&&&&&&&&&&&&&&&&&&&&&&&&&&&&&&&&&&&&&&&&",
"&&&&&&&&&&&&&&&&&&&&&&&&&&&&&&&&&&&&&&&&&&&&&&&&&&&&&&&&&&&&&&&&&&&&&&&&&&&&",
"&&&&&&&&&&&&&&&&&&&&&&&&&&&&&&&&&&&&&&&&&&&&&&&&&&&&&&&&&&&&&&&&&&&&&&&&&&&&",
"&&&&&&&&&&&&&&&&&&&&&&&&&&&&&&&&&&&&&&&&&&&&&&&&&&&&&&&&&&&&&&&&&&&&&&&&&&&&",
"&&&&&&&&&&&&&&&&&&&&&&&&&&&&&&&&&&&&&&&&&&&&&&&&&&&&&&&&&&&&&&&&&&&&&&&&&&&&",
"&&&&&&&&&&&&&&&&&&&&&&&&&&&&&&&&&&&&&&&&&&&&&&&&&&&&&&&&&&&&&&&&&&&&&&&&&&&&",
"&&&&&&&&&&&&&&&&&&&&&&&&&&&&&&&&&&&&&&&&&&&&&&&&&&&&&&&&&&&&&&&&&&&&&&&&&&&&",
"&&&&&&&&&&&&&&&&&&&&&&&&&&&&&&&&&&&&&&&&&&&&&&&&&&&&&&&&&&&&&&&&&&&&&&&&&&&&",
"&&&&&&&&&&&&&&&&&&&&&&&&&&&&&&&&&&&&&&&&&&&&&&&&&&&&&&&&&&&&&&&&&&&&&&&&&&&&",
"&&&&&&&&&&&&&&&&&&&&&&&&&&&&&&&&&&&&&&&&&&&&&&&&&&&&&&&&&&&&&&&&&&&&&&&&&&&&",
"&&&&&&&&&&&&&&&&&&&&&&&&&&&&&&&&&&&&&&&&&&&&&&&&&&&&&&&&&&&&&&&&&&&&&&&&&&&&",
"&&&&&&&&&&&&&&&&&&&&&&&&&&&&&&&&&&&&&&&&&&&&&&&&&&&&&&&&&&&&&&&&&&&&&&&&&&&&",
"&&&&&&&&&&&&&&&&&&&&&&&&&&&&&&&&&&&&&&&&&&&&&&&&&&&&&&&&&&&&&&&&&&&&&&&&&&&&",
"&&&&&&&&&&&&&&&&&&&&&&&&&&&&&&&&&&&&&&&&&&&&&&&&&&&&&&&&&&&&&&&&&&&&&&&&&&&&",
"&&&&&&&&&&&&&&&&&&&&&&&&&&&&&&&&&&&&&&&&&&&&&&&&&&&&&&&&&&&&&&&&&&&&&&&&&&&&",
"&&&&&&&&&&&&&&&&&&&&&&&&&&&&&&&&&&&&&&&&&&&&&&&&&&&&&&&&&&&&&&&&&&&&&&&&&&&&",
"&&&&&&&&&&&&&&&&&&&&&&&&&&&&&&&&&&&&&&&&&&&&&&&&&&&&&&&&&&&&&&&&&&&&&&&&&&&&",
"&&&&&&&&&&&&&&&&&&&&&&&&&&&&&&&&&&&&&&&&&&&&&&&&&&&&&&&&&&&&&&&&&&&&&&&&&&&&",
"&&&&&&&&&&&&&&&&&&&&&&&&&&&&&&&&&&&&&&&&&&&&&&&&&&&&&&&&&&&&&&&&&&&&&&&&&&&&",
"&&&&&&&&&&&&&&&&&&&&&&&&&&&&&&&&&&&&&&&&&&&&&&&&&&&&&&&&&&&&&&&&&&&&&&&&&&&&",
"&&&&&&&&&&&&&&&&&&&&&&&&&&&&&&&&&&&&&&&&&&&&&&&&&ooooooo&&&&&&&&&&&&&&&&&&&&",
"&&&&&&&&&&&&&&&&&&&&&&&&&&&&&&&&&&&&&&&&&&&&&&&oo+++++++oo&&&&&&&&&&&&&&&&&&",
"&&&&&&&&&&&&&&&&&&&&&&&&&&&&&&&&&&&&&&&&&&&&&&o+++++++++++o&&&&&&&&&&&&&&&&&",
"&&&&&&&&&&&&&&&&&&&&&&&&&&&&&&&&&++++&&&&&&&&o+++++++++++++o&&&&&&&&&&&&&&&&",
"&&&&&&&&&&&&&&&&&&&&&&&&&&+++&OO++++++&&&&&&&o$+++++++++++$o&&&&&&&&&&&&&&&&",
"&&&&&&&&&&&&&&&&&&&&&&ooo+++++O++++++++oooooooO%%+++++++%%Ooooo&&&&&&&&&&&&&",
"&&&&&&&&&&&&&&&&&&&&&o@%@+++OOO++++++++$%%%%%ooOO%%%%%%%OOoo%%@o&&&&&&&&&&&&",
"&&&&&&&&&&&&&&&&&&&&o@@%@++OOOO++++++++O%%%%%o$ooOOOOOOOoo$o%%@@o&&&&&&&&&&&",
"&&&&&&&&&&&&&&&&&&&&o@@%%+OOOOO++++++++OO%%%%oO%%ooooooo%%Oo%%@@o&&&&&&&&&&&",
"&&&&&&&&&&&&&&&&&&&&o@@%+OooOOOO++++++OOoo%%%@oOO%%%%%%%OOo@%%@@o&&&&&&&&&&&",
"&&&&&&&&&&&&&&&&&&&&o@++OOoooOOOO++++OOoooo%%@@ooOOOOOOOoo@@%%@@o&&&&&&&&&&&",
"&&&&&&&&&&&&&&&&&&&&o+OOOooooOOOOOOOOOOoooo%%%@@@ooooooo@@@%%%@@o&&&&&&&&&&&",
"&&&&&&&&&&&&&&&&&&&&+OOOOOooOOOOOOOOOOOOoo@%%%%@@@@@@@@@@@%%%%@@o&&&&&&&&&&&",
"&&&&&&&&&&&&&&&&&&&&+O@@@OOOOOOOO@@@@OOO@@%%%%%%@@@@@@@@@%%%%%@@o&&&&&&&&&&&",
"&&&&&&&&&&&&&&&&&&&&+@@%%%%OOO@@@%%%@OOO%%%%%%%%%%%%%%%%%%%%%%@@o&&&&&&&&&&&",
"&&&&&&&&&&&&&&&&&&&++@@@@@@OOO@@@@@@@OOO@@@@@@@@@@@@@@@@@@@@@@@@o&&&&&&&&&&&",
"&&&&&&&&&&&&&&&&&&&++@@%%%%OOO%%%%%%%@O%%%%%%%%%%%%%%%%%%%%%%%@@o&&&&&&&&&&&",
"&&&&&&&&&&&&&&&&&&&&o@%%%@@@O@@@@@@@@@@@@@@@@@@@@@@@@@@@@@@@%%%@o&&&&&&&&&&&",
"&&&&&&&&&&&&&&&&&&&++@%%@@@@@@####@@@@@@@###@@@@###@@#@@#@@@@%%@o&&&&&&&&&&&",
"&&&&&&&&&&&&&&&&&&&&o%%%%@@@@@@@@@@@@@++@@@@@@@@@@@@@@@@@@@@%%%%o&&&&&&&&&&&",
"&&&&&&&&&&&&&&&&&&&&o%%%%%%%%%%%%%%%%%++$%%%%%%%%%%%%%%%%%%%%%%%o&&&&&&&&&&&",
"&&&&&&&&&&&&&&&&&ooooXXXXXXXXXXXXXXXXX++XXXXXXXXXXXXXXXXXXXXXXXXo&&&&&&&&&&&",
"&&&&&&&&&&&&&&&oo+++oXXXXXXXXXXXXXXXXX+XXXXooooooooooooooooooXXXo&&&&&&&&&&&",
"&&&&&&&&&&&&&oo++O++oXXOOOOOOOOOOOOXXXXXXXo%%++%%++%%++%%++%%oXXo&&&&&&&&&&&",
"&&&&&&&&&&&&o++O+O++oOOOOOOOOOOOOOOOoOOOOo%%%++%%++%%++%%++%%%oOo&&&&&&&&&&&",
"&&&&&&&&&&&o+O+O+O++oOOO%++++++++%OOoOOOOo%%++%%%++%%++%%%++%%oOo&&&&&&&&&&&",
"&&&&&&&&&&o++O+O+O++oOO%+ o      +%OoOOXo%%%++%%%++%%++%%%++%%%oo&&&&&&&&&&&",
"&&&&&&&&&o+O+O+O+O++oOO% oo      o%OoOOOo%%%++%%%++%%++%%%++%%%oo&&&&&&&&&&&",
"&&&&&&&&&o+O+O+O++++oOO%     o    %OoOXXo$$$OO$$$OO$$OO$$$OO$$$oo&&&&&&&&&&&",
"&&&&&&&&&o+O+O+++ooooOO%     oo   %OoOOOOooooooooooooooooooooooOo&&&&&&&&&&&",
"&&&&&&&&&o+O+++ooOOOoOO%          %OoOXXOOO%oooooooooooooooo%OOOo&&&&&&&&&&&",
"&&&&&&&&&o+O++oOOOOOoOoo+++ooooooo%OoOOOOOO%O%@%@%@%@%@%@%@%%OOOo&&&&&&&&&&&",
"&&&&&&&&&o+++oOOOOOOoOo+OOO+@%@%@%OOoOXXOOO%O@%@%@%@%@%@%@%@...Oo&&&&&&&&&&&",
"&&&&&&&&&o++oOOOOOOOoOOoOOOoOOOOOOOOoOXXOOO%O%@%@%@%@%@%@%@%...Oo&&&&&&&&&&&",
"&&&&&&&&&o+oO.O.OOOOoOOOoooOOOOOooOOoOOOOOO%%@%@%@%@%@%@%@.....Oo&&&&&&&&&&&",
"&&&&&&&&&ooOO...OOOOoOOOOOOOOOOOOOOOoOOOO.OO++++++++++++++.....Oo&&&&&&&&&&&",
"&&&&&&&&&oOO++.+++++o+++++++++++++++o++++..+++++++++++++++.....Oo&&&&&&&&&&&",
"&&&&&&&&&o+OOOOOOOOOoOOOOOOOOOOOOOOOoOOOOOOOOOOOOOOOOOOOOOOOOOOOo&&&&&&&&&&&",
"&&&&&&&&&o++++++++++o+++++++++++++++o+++++++++++++++++++++++++++o&&&&&&&&&&&",
"&&&&&&&&&o++++++++++o+++++++++++++++o+++++++++++++++++++++++++++o&&&&&&&&&&&",
"&&&&&&&&&o+++++++++++o++++++++++++++o+++++++++++++++++++++++++++o&&&&&&&&&&&",
"&&&&&&&&&oOOOOOOOOOooooooOOOOOOOOOOOoOOOOOOOOOOOOooooooOOOOOOOOOo&&&&&&&&&&&",
"&&&&&&&&&oOOOOOOOOoo++++ooOOOOOOOOOOoOOOOOOOOOOOoo++++ooOOOOOOOo&&&&&&&&&&&&",
"&&&&&&&&&oOXXXXXXoo++++++oooooooooooXXXXXXXXXXXoo++++++ooXXXXX+o&&&&&&&&&&&&",
"&&&&&&&&&&o+++@@oo++oooo++oo@@@@@@@@@@@@@@@@@@oo++oooo++oo@@@+o&&&&&&&&&&&&&",
"&&&&&&&&&&&ooo++oo+oooooo+oo++++++++++++++++++oo+oooooo+oo+++o&&&&&&&&&&&&&&",
"&&&&&&&&&&&&&&oooo+oo++oo+oooooooooooooooooooooo+oo++oo+ooooo&&&&&&&&&&&&&&&",
"&&&&&&&&&&&&&&&&&o+oo++oo+o&&&&&&&&&&&&&&&&&&&&o+oo++oo+o&&&&&&&&&&&&&&&&&&&",
"&&&&&&&&&&&&&&&&&o+oooooo+o&&&&&&&&&&&&&&&&&&&&o+oooooo+o&&&&&&&&&&&&&&&&&&&",
"&&&&&&&&&&&&&&&&&&o+oooo+o&&&&&&&&&&&&&&&&&&&&&&o+oooo+o&&&&&&&&&&&&&&&&&&&&",
"&&&&&&&&&&&&&&&&&&&o++++o&&&&&&&&&&&&&&&&&&&&&&&&o++++o&&&&&&&&&&&&&&&&&&&&&",
"&&&&&&&&&&&&&&&&&&&&oooo&&&&&&&&&&&&&&&&&&&&&&&&&&oooo&&&&&&&&&&&&&&&&&&&&&&"
};
