/* XPM */
static char *_e6cdc0b35cb43cec320c23e9f2748f56MS7T2jmaYMkVL5s[] = {
/* columns rows colors chars-per-pixel */
"64 28 118 2 ",
"   c None",
".  c #050712",
"X  c #070914",
"o  c #0B0C17",
"O  c #0D0E19",
"+  c #110E1B",
"@  c #0F111B",
"#  c #13131E",
"$  c #131620",
"%  c #1B1322",
"&  c #161924",
"*  c #191C26",
"=  c #1B1F28",
"-  c #211526",
";  c #261729",
":  c #2C1A2D",
">  c #1E232C",
",  c #21242D",
"<  c #222730",
"1  c #232932",
"2  c #292E36",
"3  c #3B2037",
"4  c #3D2139",
"5  c #2C323B",
"6  c #31353D",
"7  c #30383F",
"8  c #43233D",
"9  c #343B42",
"0  c #492641",
"q  c #512946",
"w  c #552B49",
"e  c #653153",
"r  c #6A3356",
"t  c #6F355A",
"y  c #76385F",
"u  c #7A3A62",
"i  c #374147",
"p  c #374148",
"a  c #3B454C",
"s  c #3E4850",
"d  c #41464C",
"f  c #424B51",
"g  c #484E54",
"h  c #445056",
"j  c #46535A",
"k  c #4A555B",
"l  c #4B585E",
"z  c #53595E",
"x  c #4D5B61",
"c  c #535D63",
"v  c #526167",
"b  c #596064",
"n  c #546369",
"m  c #5B676C",
"M  c #5A696E",
"N  c #5C6C72",
"B  c #5F7076",
"V  c #626A6D",
"C  c #656D71",
"Z  c #617177",
"A  c #6A7275",
"S  c #627379",
"D  c #68777C",
"F  c #6A797E",
"G  c #6A7A7E",
"H  c #6B7A7E",
"J  c #6B7B7F",
"K  c #69797D",
"L  c #747D7F",
"P  c #747D7F",
"I  c #803C66",
"U  c #8F4370",
"Y  c #6C7C80",
"T  c #6E7D81",
"R  c #6E7E82",
"E  c #6F7E82",
"W  c #707E82",
"Q  c #707F83",
"!  c #718083",
"~  c #728083",
"^  c #728084",
"/  c #728184",
"(  c #738184",
")  c #738185",
"_  c #738285",
"`  c #748184",
"'  c #748285",
"]  c #758386",
"[  c #778487",
"{  c #788689",
"}  c #798689",
"|  c #7A8789",
" . c #7D898B",
".. c #7D8A8B",
"X. c #7E8A8C",
"o. c #7E8B8C",
"O. c #7F8B8D",
"+. c #828D8D",
"@. c #808C8E",
"#. c #828D8D",
"$. c #838F90",
"%. c #839091",
"&. c #849091",
"*. c #859091",
"=. c #859192",
"-. c #879393",
";. c #879192",
":. c #889393",
">. c #8A9595",
",. c #8B9696",
"<. c #8C9696",
"1. c #899494",
"2. c #8D9897",
"3. c #8E9998",
"4. c #8E9A99",
"5. c #929D9D",
"6. c #94A09F",
"7. c #96A2A1",
/* pixels */
"                                          ,.,.,.-.S N B B B B B B B B B B B B B } ,.,.,.,.                                      ",
"                              3. .S B N S ! ^ ^ W S N B B B B B B B B B B B B B K ^ ^ ^ Y B B N R <.2.                          ",
"                            X.@.^ S B B B B B B B S S S S S S S S S S S S S S S S B B B B B B N K X.X.[                         ",
"                      :.] B S S S B B N N N N N N N N N N N N N N N N N N N N N N N N N N N B B S S S B K -.                    ",
"                  X.S K S B B B S S S n k k l a < < < < < < < < < < < < < < < < < 5 k k k x B S S B B B S K S W ,.              ",
"                ] ^ S S S B n n l a a 9 2 2 5 = . X X X X . . X X X X X X X X X . # 2 2 2 5 p a h v n N S S B K [ D             ",
"          -.X.S N N N n n x a p 2 O X o o o o # - + o o O - % o o o o o o o o o o o o o o o o X = i p j n n M N B B ] -.        ",
"        ,.} S B x h f < & & $ # # o X o o o X 0 U ; X X + u r o o o o o o o o o o o o o o o X X O # # & & * 9 c N B S R -.      ",
"      ,.} S x x 9 > > O X X X X X o o o o o X : q % X X O 8 4 o o o o o o o o o o o o o o o o o X X X X X X * 2 9 k M D ^ $.    ",
"       .S h 7 5 * X X o o o o o o o o o o o o X X o o o o X X o o o o o o o o o o o o o o o o o o o o o o o X X O 5 s x m ] %.  ",
"  ,. .N j 2 O O O o o o o o o o o o o o o o o o o o o o o o o o o o o o o o o o o o o o o o o o o o o o o o o o o O O = a n ! -.",
"  R S j 1 # X X o o o o o o o o o o o o o o o o o o o o o o o o o o o o o o o o o o o o o o o o o o o o o o X X o X X o * a M R ",
"  n j 2 # X o o o o o o o o o o o o o o o o o o o o o o o o o o o o o o o o o o o o o o o o o o o o o o o O 8 8 o X 3 0 + > a v ",
"  a 5 O X o o o o o o o o o o o o o o o o o o o o o o o o o o o o o o o o o o o o o o o o o o o o o o o X + u t O X e I # X > i ",
"  $ # o o o o o o o o o o o o o o o o o o o o o o o o o o o o o o o o o o o o o o o o o o o o o o o o o o O % % o o % - O X @ # ",
"  . . o o o o o o o o o o o o o o o o o o o o o o o o o o o o o o o o o o o o o o o o o o o o o o o o o o o X X o o X X o o X . ",
"  6 1 o X o o o o o o o X X o o o o X X o o o o o o o o o o o o o o o o o X X o o o o X X o o o o o o o o o o o o o o o o X * 6 ",
"  ,.V & o o o o o o o o + + O o o O + + o o o o o o o o o o o o o o o o o + + O o o O + + o o o o o o o o o o o o o o o o O d @.",
"      V , . o o o o o X q u % X X % u q X o o o o o o o o o o o o o o o X 0 u % X X # y w X o o o o o o o o o o o o o X O k L   ",
"      ,.z 2 X X X o o X 8 e # X X # e 8 X o o o o o o o o o o o o o o o X 8 r % X X # e 0 X o o o o o o o o o o X X X * d P     ",
"        3.z O = # X X o o o o o o o o o o o o o o o o o o o o o o o o o o o o o o o o o o o o o o o o o o o X X O * # 5 @.      ",
"              L 9 X o o o o o o o o o o o o o o o o o o o o o o o o o o o o o o o o o o o o o o o o o o o o o X * C A           ",
"                  7 k = X X X . X o o o o o o o o o o o o o o o o o o o o o o o o o o o o o o o X . . X X O d g                 ",
"                    #.2 . $ 5 6 , O o X X X X X o o o o o o o o o o o o o o o o o X X X X X o X * 5 6 , X @ C                   ",
"                            @.-.b O X @ # # # @ o o o o o o o o o o o o o o o o o O # # # # O . 9 @.#.                          ",
"                                      c A A A f O X o o o o o o o o o o o o o o X 2 C A A V                                     ",
"                                        5.5.7.m O X o o o o o o o o o o o o o o . 9 3.6.5.                                      ",
"                                                                                                                                "
};
