/* XPM */
static char *result[] = {
/* columns rows colors chars-per-pixel */
"64 64 47 1 ",
"  c #010000",
". c #0B0103",
"X c #0D0F0F",
"o c #100305",
"O c #1C0408",
"+ c #0E100F",
"@ c #0F1010",
"# c #101010",
"$ c #26050A",
"% c #2A060C",
"& c #34080F",
"* c #360810",
"= c #390910",
"- c #3A161C",
"; c #2F3030",
": c #313131",
"> c #3D3234",
", c #440B14",
"< c #4A0B16",
"1 c #4F0D18",
"2 c #500814",
"3 c #540D19",
"4 c #5A0E1B",
"5 c #620F1D",
"6 c #64101E",
"7 c #69101F",
"8 c #6E1121",
"9 c #731222",
"0 c #7C1325",
"q c #5B383E",
"w c #434444",
"e c #6D4A50",
"r c #831427",
"t c #881327",
"y c #871528",
"u c #8A1629",
"i c #8E182B",
"p c #90172B",
"a c #94182D",
"s c #9B1A2F",
"d c #9E1A30",
"f c #A21B31",
"g c #969797",
"h c #A4999B",
"j c #CECFCF",
"k c #DCD1D3",
"l c None",
/* pixels */
"llllllllllllllllllllllllllllllllllllllllllllllllllllllllllllllll",
"llllllllllllllllllllllllllllllllllllllllllllllllllllllllllllllll",
"llllllllllllllllllllllllllllllllllllllllllllllllllllllllllllllll",
"llllllllllllllllllllllllllllllllllllllllllllllllllllllllllllllll",
"llllllllllllllllllllllllllllllllllllllllllllllllllllllllllllllll",
"llllllllllllllllllllllllllllllllllllllllllllllllllllllllllllllll",
"llllllllllllllllllllllllllllllllllllllllllllllllllllllllllllllll",
"llllllllllllllllllllllllllllllllllllllllllllllllllllllllllllllll",
"llllllllllllllllllllllllllll*****=******=*llllllllllllllllllllll",
"llllllllllllllllllllllllllll3333333333111<llllllllllllllllllllll",
"llllllllllllllllllllllllll&<0uuuuuiuuuur96<*llllllllllllllllllll",
"llllllllllllllllllllllllll<80uiuuuiiffffp03<llllllllllllllllllll",
"llllllllllllllllllllllll*<0063333337afffdi96,*llllllllllllllllll",
"llllllllllllllllllllllll1809,$%%%%%-9afffda04<llllllllllllllllll",
"llllllllllllllllllllll&<0r8-O......O,8afffdi06,=llllllllllllllll",
"llllllllllllllllllllll<809,O.      .O=8idffdu8<=llllllllllllllll",
"llllllllllllllllllll*3006,O.        .O,6affsu7<*llllllllllllllll",
"llllllllllllllllllll*3uu3%.          .%3uffsu94<llllllllllllllll",
"llllllllllllllllllll*3ui3%.          .%2uffsu095<*llllllllllllll",
"llllllllllllllllllll*3uu2->;@    @;;+.%3ufsatrr8<=llllllllllllll",
"llllllllllllllllllll*3uu2qhg:    :gg;.$3udiyyry9<=llllllllllllll",
"llllllllllllllllllll*3uy2ekjw    wjjw $3idu09908<=llllllllllllll",
"llllllllllllllllllll&3uy2ekjw    wjjw.$3usu93498<=llllllllllllll",
"llllllllllllllllllll*3rr<qhg:    :gg;.$3udu8,<99<=llllllllllllll",
"llllllllllllllllllll=<092->;@    #;;X.$3udu8,<99<=llllllllllllll",
"llllllllllllllllllll=<991%.         .O=6uau9<,56<=llllllllllllll",
"llllllllllllllllllll=<99<%.        .O=9iuty9<=<<llllllllllllllll",
"llllllllllllllllllll&<673=O.      .O=6usu096<===llllllllllllllll",
"llllllllllllllllllllll<375=O.    .$=60yuy94,llllllllllllllllllll",
"llllllllllllllllllllll*<574=O....O=4009886<&llllllllllllllllllll",
"llllllllllllllllllllllll<375=%%%$=40r93<<,llllllllllllllllllllll",
"llllllllllllllllllllllll<4005333360uy93<<<llllllllllllllllllllll",
"llllllllllllllllllllll&,40pspuuuyiaau09895,*llllllllllllllllllll",
"llllllllllllllllllllll<30adffffffffdiuuuu04<llllllllllllllllllll",
"llllllllllllllllllll=<60pdffffffffffdasssp05<=llllllllllllllllll",
"llllllllllllllllllll=<9usfffffdffffffffffsu8<*llllllllllllllllll",
"llllllllllllllllllll*<8usffffdfffdffffdffsu8<=llllllllllllllllll",
"llllllllllllllllllll=<9psfffffffffffffffddp9<=llllllllllllllllll",
"llllllllllllllllllll*1rddffffffffffdffffffdr3&llllllllllllllllll",
"llllllllllllllllllll*3uffffffffffffffdfffffu6,llllllllllllllllll",
"llllllllllllllllllll&3uffffdffffdfffffdffffa05<*llllllllllllllll",
"llllllllllllllllllll<4uffffffdssdffffffffffsu9<*llllllllllllllll",
"llllllllllllllllll=<60sffffffsuusffddffffffsu8<*llllllllllllllll",
"llllllllllllllllll*<9usffffffstusffffffffffsu9<*llllllllllllllll",
"llllllllllllllllll=<8usffffffduysffffffdfffsu9<*llllllllllllllll",
"llllllllllllllllll=<8yasddffdi90usfffffffffsu7<*llllllllllllllll",
"llllllllllllllllll=<8ruusffsu0440usfffffdffsu9<&llllllllllllllll",
"llllllllllllllllll=<8rrusfdau8<<8uasffsssfsat93<llllllllllllllll",
"llllllllllllllllll=<9rrussuuy9<<7yuusspussprr095<*llllllllllllll",
"llllllllllllllllll=<8rrypau094==500taauuaatrrry8<=llllllllllllll",
"llllllllllllllllll=<8rryyyy94=OO=49yuuasuurrrry9<=llllllllllllll",
"llllllllllllllllll=<90990rr9<$..$=59rtaarrr09908<=llllllllllllll",
"llllllllllllllllll=<90338yy83%. .O=49rturrr94309<=llllllllllllll",
"llllllllllllllllll*<66338r95*$.  .%<9yr099r9<,56<=llllllllllllll",
"llllllllllllllllllll,389r04*O.   .%<9tr93499<=,1llllllllllllllll",
"llllllllllllllllllll*<6985<%.    o%<5995<<55<===llllllllllllllll",
"llllllllllllllllllllll<1<,,%. llll*=<<<<ll<,==llllllllllllllllll",
"llllllllllllllllllllll*=***$. llll=*&%%%ll====llllllllllllllllll",
"llllllllllllllllllllllllllo.llllllllo.o.llllllllllllllllllllllll",
"llllllllllllllllllllllllll  llllllll    llllllllllllllllllllllll",
"llllllllllllllllllllllllll  llllllll  llllllllllllllllllllllllll",
"llllllllllllllllllllllllll  llllllll  llllllllllllllllllllllllll",
"llllllllllllllllllllllllll  llllllll  llllllllllllllllllllllllll",
"llllllllllllllllllllllllll  llllllll  llllllllllllllllllllllllll"
};
