/* XPM */
static char *result[] = {
/* columns rows colors chars-per-pixel */
"64 64 47 1 ",
"  c #010000",
". c #0A0103",
"X c #0D0F0F",
"o c #100305",
"O c #1C0408",
"+ c #0E100F",
"@ c #0F1010",
"# c #101010",
"$ c #26040A",
"% c #2A060C",
"& c #34080F",
"* c #360810",
"= c #390911",
"- c #3A161C",
"; c #2F3030",
": c #313131",
"> c #3D3234",
", c #450B14",
"< c #4A0B16",
"1 c #4F0D18",
"2 c #500814",
"3 c #540D19",
"4 c #5A0E1B",
"5 c #620F1D",
"6 c #64101E",
"7 c #69101F",
"8 c #6E1121",
"9 c #731222",
"0 c #7C1325",
"q c #5B383E",
"w c #434444",
"e c #6D4A50",
"r c #831427",
"t c #881327",
"y c #871528",
"u c #8A1629",
"i c #8E182B",
"p c #90172B",
"a c #94182D",
"s c #9B1A2F",
"d c #9E1A30",
"f c #A21B31",
"g c #969797",
"h c #A4999B",
"j c #CECFCF",
"k c #DCD1D3",
"l c None",
/* pixels */
"llllllllllllllllllllllllllllllllllllllllllllllllllllllllllllllll",
"llllllllllllllllllllllllllllllllllllllllllllllllllllllllllllllll",
"llllllllllllllllllllllllllllllllllllllllllllllllllllllllllllllll",
"llllllllllllllllllllllllllllllllllllllllllllllllllllllllllllllll",
"llllllllllllllllllllllllllllllllllllllllllllllllllllllllllllllll",
"llllllllllllllllllllllllllllllllllllllllllllllllllllllllllllllll",
"llllllllllllllllllllllllllllllllllllllllllllllllllllllllllllllll",
"llllllllllllllllllllllllllllllllllllllllllllllllllllllllllllllll",
"llllllllllllllllllllllllllllllllllllllllllllllllllllllllllllllll",
"llllllllllllllllllllllllllllllllllllllllllllllllllllllllllllllll",
"llllllllllllllllllllllllllll**-&=***&*&-=*llllllllllllllllllllll",
"llllllllllllllllllllllllllll333333333331<<llllllllllllllllllllll",
"llllllllllllllllllllllllll&10uuuuuuuuyur97<&llllllllllllllllllll",
"llllllllllllllllllllllllll160uuuuuuidfffp03<llllllllllllllllllll",
"llllllllllllllllllllllll*10083344338afffsp06<*llllllllllllllllll",
"llllllllllllllllllllllll16r9=%%%%%%=9ifffdp03<llllllllllllllllll",
"llllllllllllllllllllll&30r7=O......O=8pfffdi05<=llllllllllllllll",
"llllllllllllllllllllll15r9,O.      .O,9idffdu8<&llllllllllllllll",
"llllllllllllllllllll*3906=O.        .O=8iffdu8<&llllllllllllllll",
"llllllllllllllllllll*3ui3$.          .%3uffsu94<llllllllllllllll",
"llllllllllllllllllll*3ui3%.          .$3uffsu095<*llllllllllllll",
"llllllllllllllllllll*3uu3->;@    @;;X.$3ufdatrr9<=llllllllllllll",
"llllllllllllllllllll*3uy2qhg:    :gg;.$3udptyrr9<=llllllllllllll",
"llllllllllllllllllll*3uy<ekjw    wjjw.$3udu09908<=llllllllllllll",
"llllllllllllllllllll*3uy2ekjw    wjjw $3usu93498<*llllllllllllll",
"llllllllllllllllllll=3yr<qhg:    :gg:.$3isi7<<99<=llllllllllllll",
"llllllllllllllllllll=<991->;@    #:;@.$3usi7<<99<=llllllllllllll",
"llllllllllllllllllll=<991$.         .O=8uai8<,55<=llllllllllllll",
"llllllllllllllllllll=<991$.         O=9iuyy8<=<<llllllllllllllll",
"llllllllllllllllllll=<674=O.      .O=6usu096<=&=llllllllllllllll",
"llllllllllllllllllllll<375=$.    .$=50yuy94<llllllllllllllllllll",
"llllllllllllllllllllll*<574=O....O=4909886<=llllllllllllllllllll",
"llllllllllllllllllllllll<375=%%$$=59094<<<llllllllllllllllllllll",
"llllllllllllllllllllllll,3006333360uy93<<<llllllllllllllllllllll",
"llllllllllllllllllllll&,50psiuityisay09875<&llllllllllllllllllll",
"llllllllllllllllllllll<40pdffffffffdiuuui04<llllllllllllllllllll",
"llllllllllllllllllll=<50pdfffffffffddssssp05<*llllllllllllllllll",
"llllllllllllllllllll=<7isfffffffffffdffdfsi7<=llllllllllllllllll",
"llllllllllllllllllll=<8usfffffffffffdffffsi8<=llllllllllllllllll",
"llllllllllllllllllll&19isffffsffdffffffffsi9<&llllllllllllllllll",
"llllllllllllllllllll=<rdfffffffffffdfffdffdr1&llllllllllllllllll",
"llllllllllllllllllll*3uffffffffffffffdfffffu5<llllllllllllllllll",
"llllllllllllllllllll&3yfffffffffffffffdffffa05<=llllllllllllllll",
"llllllllllllllllllll<6iffsfffsssddfffffffffdi8<&llllllllllllllll",
"llllllllllllllllll*<50affffffsiisfdffffffffsu8<=llllllllllllllll",
"llllllllllllllllll=<8udffffffsyysffffffffffsu8<=llllllllllllllll",
"llllllllllllllllll*<8usffffffsyusffffffdfffsu9<=llllllllllllllll",
"llllllllllllllllll=<8uasfffssi00isffdfffdffsu7<&llllllllllllllll",
"llllllllllllllllll=<9ryisffsi0330psffffffffsi7<&llllllllllllllll",
"llllllllllllllllll=<8rrysfsau8<<7uasfsssffsat94,llllllllllllllll",
"llllllllllllllllll=<8rrusspty9<<9rtpddiissirr097<*llllllllllllll",
"llllllllllllllllll=<8rryaat094==590taaiiaau0rrr9<=llllllllllllll",
"llllllllllllllllll=<8yryyur94=OO=40ruiaairrryry8<=llllllllllllll",
"llllllllllllllllll*<90990rr9<%..O=400taatrr09909<=llllllllllllll",
"llllllllllllllllll*199339rr9<%. .O=49yttrrr93398<=llllllllllllll",
"llllllllllllllllll=155339r95,O.  .%19rr09909<<67<=llllllllllllll",
"llllllllllllllllllll<369095=O.   .%<9ry93398<=<<llllllllllllllll",
"llllllllllllllllllll*,8996<%.    o%<7976<<77<===llllllllllllllll",
"llllllllllllllllllllll<<1<=%. llll*,<<<<ll<<==llllllllllllllllll",
"llllllllllllllllllllll=*%%*&. llll%%&===ll*===llllllllllllllllll",
"lllllllllllllllllllllllloollllllll.ollllllllllllllllllllllllllll",
"llllllllllllllllllllllll  llllllll  llllllllllllllllllllllllllll",
"llllllllllllllllllllllllll  llllllll  llllllllllllllllllllllllll",
"llllllllllllllllllllllllll  llllllll  llllllllllllllllllllllllll"
};
