/* XPM */
static char *result[] = {
/* columns rows colors chars-per-pixel */
"32 40 218 2 ",
"   c #181927",
".  c #151B3C",
"X  c #1D1C3E",
"o  c #2B1E35",
"O  c #271E37",
"+  c #311F39",
"@  c #201928",
"#  c #182234",
"$  c #25222E",
"%  c #25243A",
"&  c #2C223D",
"*  c #28273A",
"=  c #33223D",
"-  c #38263B",
";  c #231F42",
":  c #1E2A49",
">  c #1E2B52",
",  c #0B3950",
"<  c #153349",
"1  c #232445",
"2  c #242B44",
"3  c #2C2B45",
"4  c #26254A",
"5  c #24294C",
"6  c #2D2D4B",
"7  c #2E2542",
"8  c #332A43",
"9  c #352C4C",
"0  c #3B2C4C",
"q  c #3C2643",
"w  c #29304A",
"e  c #24374B",
"r  c #35334A",
"t  c #37364A",
"y  c #2B2C53",
"u  c #222D55",
"i  c #293353",
"p  c #2B3A57",
"a  c #2A355A",
"s  c #333353",
"d  c #3B3254",
"f  c #34345B",
"g  c #3B335C",
"h  c #3D3B5F",
"j  c #393C54",
"k  c #322E57",
"l  c #2B3E60",
"z  c #243665",
"x  c #353462",
"c  c #3D3562",
"v  c #393C62",
"b  c #373D68",
"n  c #393F73",
"m  c #433C5A",
"M  c #4A395A",
"N  c #4C304B",
"B  c #443A64",
"V  c #443E71",
"C  c #6D3E64",
"Z  c #124244",
"A  c #24425C",
"S  c #3C4A5A",
"D  c #3B4458",
"F  c #29565B",
"G  c #1D556F",
"H  c #1C4A6E",
"J  c #2A4263",
"K  c #2A486B",
"L  c #314362",
"P  c #34446A",
"I  c #3C466A",
"U  c #324B69",
"Y  c #3B4765",
"T  c #2A5A6F",
"R  c #39526C",
"E  c #3B5665",
"W  c #3C4576",
"Q  c #2A5473",
"!  c #245172",
"~  c #395879",
"^  c #0B6F6F",
"/  c #177B79",
"(  c #0F6A78",
")  c #32626F",
"_  c #38677D",
"`  c #2F6C6F",
"'  c #5E404F",
"]  c #42425B",
"[  c #5C4B5C",
"{  c #7D4F5D",
"}  c #684657",
"|  c #4C4E68",
" . c #484864",
".. c #534B66",
"X. c #4A5669",
"o. c #51506C",
"O. c #454777",
"+. c #544A78",
"@. c #4C5B74",
"#. c #455778",
"$. c #5C5672",
"%. c #545A76",
"&. c #734161",
"*. c #64546E",
"=. c #77556A",
"-. c #645A74",
";. c #7D5671",
":. c #6A4776",
">. c #4D6579",
",. c #59637B",
"<. c #57657A",
"1. c #63667B",
"2. c #815565",
"3. c #9E577C",
"4. c #996F7C",
"5. c #9E656C",
"6. c #AB716D",
"7. c #A4707A",
"8. c #AE6E78",
"9. c #118977",
"0. c #CB9677",
"q. c #315890",
"w. c #335A82",
"e. c #1E7285",
"r. c #376885",
"t. c #337A87",
"y. c #3D7696",
"u. c #3B6F98",
"i. c #434C80",
"p. c #495E82",
"a. c #515C91",
"s. c #4E6986",
"d. c #5A6681",
"f. c #576B86",
"g. c #5C6D85",
"h. c #546B8A",
"j. c #5E6F8C",
"k. c #58648A",
"l. c #5D728C",
"z. c #5E7E83",
"x. c #566E94",
"c. c #5C7693",
"v. c #5D7B94",
"b. c #59769B",
"n. c #636C85",
"m. c #65718E",
"M. c #65738B",
"N. c #7A7280",
"B. c #616D9E",
"V. c #607293",
"C. c #697997",
"Z. c #727A99",
"A. c #4C5DA0",
"S. c #4A74AF",
"D. c #456EB0",
"F. c #567BA4",
"G. c #6178A0",
"H. c #706AAB",
"J. c #8F5993",
"K. c #AC5580",
"L. c #8170A7",
"P. c #C27980",
"I. c #138083",
"U. c #129581",
"Y. c #1A879D",
"T. c #2E8E89",
"R. c #3A8586",
"E. c #3C8988",
"W. c #388B9B",
"Q. c #259392",
"!. c #10A699",
"~. c #3B86A4",
"^. c #3990A3",
"/. c #2A99AB",
"(. c #1FA2A5",
"). c #21A5BC",
"_. c #38BABF",
"`. c #468386",
"'. c #5B8A9F",
"]. c #68819C",
"[. c #72809F",
"{. c #5D88A4",
"}. c #4799A4",
"|. c #618DBC",
" X c #43A7AA",
".X c #53A0AC",
"XX c #57BCBA",
"oX c #25C7B9",
"OX c #39A4CB",
"+X c #5B92C5",
"@X c #5984C2",
"#X c #689CC9",
"$X c #4EB1C8",
"%X c #52ACCC",
"&X c #68AAD8",
"*X c #62B3DB",
"=X c #4ABBE8",
"-X c #65BDE4",
";X c #1AD9D8",
":X c #2CC0D0",
">X c #33CEC6",
",X c #15E6C1",
"<X c #30E6E2",
"1X c #3FEFF0",
"2X c #36FFF0",
"3X c #49D9DD",
"4X c #55D4D7",
"5X c #56CECC",
"6X c #72DAF8",
"7X c #45ECEF",
"8X c #4FEBF3",
"9X c #57F5EF",
"0X c #73E8F6",
"qX c #76F6F8",
"wX c #6CF5F7",
"eX c #B69785",
"rX c #D2A887",
"tX c None",
/* pixels */
"tXtXtXtXtXtXtXtXtXtXtXtXtXtXtXtXtXtXtXtXtXtXtXtXtXtXtXtXtXtXtXtX",
"tXtXtXtXtXtXtXtXtXtXtXtXtXtXtXtXtXtXtXtXtXtXtXtXtXtXtXtXtXtXtXtX",
"tXtXtXtXtXtXtXtXtXtXtXtXtXtXtXtXtXtXtXtXtXtXtXtXtXtXtXtXtXtXtXtX",
"tXtXtXtXtXtXtXtXtXtXtXtXtXtXtXtXtXtXtXtXtXtXtXtXtXtXtXtXtXtXtXtX",
"tXtXtXtXtX) t.R.R.R.`.`.`.>.~ R Y D ] S S E ` `.E.R.tXtXtXtXtXtX",
"tXtXtXtXtXy.$X3X9X9XqXqX0X*X+XF.b.h.g.l.'.'.XX5X5X XF tXtXtXtXtX",
"tXtXtXtXtXJ Q ~.3XwXqX0X6X&X|.b.x.f.g.l.].'.XX5X X_ A tXtXtXtXtX",
"tXtXtXtXtXv P a.@X*X-X&X#X{.b.j.s.<.n.M.].'..X}._ U e tXtXtXtXtX",
"tXtXtXtXtX:.J.H.A.D.D.x.G.V.j.d.<.,.1.1.M.X.R L p s 3 tXtXtXtXtX",
"tXtXtXtXtXK.J.:.+.w.n x f Y #.#.>.,.1.,. .3 s k 9 9 o tXtXtXtXtX",
"tXtXtXtXtXP.3.C B k B g 5 u u u 2 s ] 0 $ o 0 0 & = tXtXtXtXtXtX",
"tXtXtXtXtX0.8.&.N 9 c k : e : #   3 6 * o o q N + = tXtXtXtXtXtX",
"tXtXtXtXtXtXtXtXtXtXtXtXtXtXtX5 5 y 6 % + + + + - & tXtXtXtXtXtX",
"tXtXtXtXtXtXtXtXtXtXtXtXtX% * w  .D & O 7 o O @ tXtXtXtXtXtXtXtX",
"tXtXtXtXtXtXtXtXtXtXtXtX6 f D X.,.| o o - +   tXtXtXtXtXtXtXtXtX",
"tXtXtXtXtXtXtXtXtXtXy a a I #.h.f.Y 1 8 8 tXtXtXtXtXtXtXtXtXtXtX",
"tXtXtXtXtXtXtXtXtXB x u i L p.c.h.P P 2 tXtXtXtXtXtXtXtXtXtXtXtX",
"tXtXtXtXtXtXtXtXL.+.c k 4 5 I k.p.K p * tXtXtXtXtXtXtXtXtXtXtXtX",
"tXtXtXtXtXtXtXtXH.O.n x 4 O ; 5 u z J p 3 8 * tXtXtXtXtXtXtXtXtX",
"tXtXtXtXtXtXtXtXa.w.n W a 4 ; X . > l i r t D o.[ tXtXtXtXtXtXtX",
"tXtXtXtXtXtXtXtX+.V V b f y 1 ; . > a s | | | $.;.5.tXtXtXtXtXtX",
"tXtXtXtXtXtXtXtXM M V x y 5 > > . > a 9 -.d.%.-.2.8.tXtXtXtXtXtX",
"tXtXtXtXtXtXtXtXm d B k 6 3 w 2 : i v + B V.d.-.{ 6.rXtXtXtXtXtX",
"tXtXtXtXtXtXtXtX3 tXtXtXtXtXtXtXtXtXr & r ,.m.-.} 2.4.tXtXtXtXtX",
"tXtXtXtXtXtXtXtXtXtXtXtXtXtXtXtXtXtXtX8 8 v m.$.N N *.' tXtXtXtX",
"tXtXtXtXtXtXtXtXtXtXtXtXtXtXtXtXtXtXtX$ 8 3 %...t N ] - tXtXtXtX",
"tXtXtXtXtXS X.tXtXtXtXtXtXtXtXtXtXtXtX$ 8 ; o. .q 9 d - tXtXtXtX",
"tXtXtXtXtX].c.tXtXtXtXtXtXtXtXtXtXtXtX  % 9 o.M 0 j g 3 tXtXtXtX",
"tXtXtXtXtXV.C.l.X.tXtXtXtXtXtXtXtXtXtXW 1 j %.d k I w.i tXtXtXtX",
"tXtXtXtXtX$.Z.C.[.X.tXtXtXtXtXtXtXtXr +. .@. .k v r.y.tXtXtXtXtX",
"tXtXtXtXtX2.=.,.Z.l.f.@.X.tXtXtXD X.k.O.D j & B #.~.W.tXtXtXtXtX",
"tXtXtXtXtX7.=...m.M.l.l.l.f.>.@.X.<.B.W 3 7 7 v w.^.` tXtXtXtXtX",
"tXtXtXtXtX0.=.[ p.~ h.v.b.l.f.>.s.s.@Xq.u i I #.u.t.tXtXtXtXtXtX",
"tXtXtXtXtXeX1.g.s.! T ~ _ ~ R U K G =XOXK A J K Q tXtXtXtXtXtXtX",
"tXtXtXtXtXtX]. XOX(.e.G Q H , , , I.1X9XW.Q J A tXtXtXtXtXtXtXtX",
"tXtXtXtXtXtXtXT.>X<X3X:X).Y.( ^ !.,X2X7X$XT e tXtXtXtXtXtXtXtXtX",
"tXtXtXtXtXtXtXtXtXQ.>X;X;X(./ 9.!.9.oXQ.T tXtXtXtXtXtXtXtXtXtXtX",
"tXtXtXtXtXtXtXtXtXtXtXtXtX/ Z tXtXtXtXtXtXtXtXtXtXtXtXtXtXtXtXtX",
"tXtXtXtXtXtXtXtXtXtXtXtXtXtXtXtXtXtXtXtXtXtXtXtXtXtXtXtXtXtXtXtX",
"tXtXtXtXtXtXtXtXtXtXtXtXtXtXtXtXtXtXtXtXtXtXtXtXtXtXtXtXtXtXtXtX"
};
