/* XPM */
static char *result[] = {
/* columns rows colors chars-per-pixel */
"32 40 213 2 ",
"   c #1E1F30",
".  c #271B31",
"X  c #2B1C34",
"o  c #281F3C",
"O  c #1E263E",
"+  c #20242E",
"@  c #242435",
"#  c #2C233D",
"$  c #23283B",
"%  c #28273B",
"&  c #32223C",
"*  c #302B3E",
"=  c #33323D",
"-  c #1B1D40",
";  c #1C2245",
":  c #1D334B",
">  c #2D2A44",
",  c #25264B",
"<  c #2C2D4A",
"1  c #292645",
"2  c #342543",
"3  c #322B46",
"4  c #352C4B",
"5  c #3B2B4B",
"6  c #263549",
"7  c #36314F",
"8  c #3C324D",
"9  c #313347",
"0  c #342D54",
"q  c #2F345B",
"w  c #293757",
"e  c #343253",
"r  c #3B3354",
"t  c #3C3B53",
"y  c #3B3359",
"u  c #333A5C",
"i  c #3B3E5C",
"p  c #353958",
"a  c #243261",
"s  c #3C3C64",
"d  c #412C49",
"f  c #47354D",
"g  c #492E51",
"h  c #483958",
"j  c #5B3750",
"k  c #6B3D58",
"l  c #433C65",
"z  c #483B68",
"x  c #28455C",
"c  c #3C415C",
"v  c #384157",
"b  c #175A64",
"n  c #1D5874",
"m  c #2A4B69",
"M  c #364464",
"N  c #3A446C",
"B  c #364968",
"V  c #2B536F",
"C  c #3A566D",
"Z  c #284476",
"A  c #394A79",
"S  c #2B5878",
"D  c #385779",
"F  c #117C6D",
"G  c #106F74",
"H  c #177576",
"J  c #25677D",
"K  c #44435C",
"L  c #484059",
"P  c #6B4859",
"I  c #724054",
"U  c #60515E",
"Y  c #4C4A66",
"T  c #444A6C",
"R  c #454968",
"E  c #50496E",
"W  c #46526D",
"Q  c #48576D",
"!  c #56566B",
"~  c #444B75",
"^  c #4C4D74",
"/  c #4A4877",
"(  c #54497C",
")  c #5C4B7C",
"_  c #584878",
"`  c #495876",
"'  c #545371",
"]  c #525A75",
"[  c #5C5D77",
"{  c #595D7D",
"}  c #624866",
"|  c #64576C",
" . c #725F6C",
".. c #65477D",
"X. c #60567B",
"o. c #665A75",
"O. c #4A657B",
"+. c #53617B",
"@. c #5A637A",
"#. c #65607C",
"$. c #864759",
"%. c #904552",
"&. c #945954",
"*. c #9B5761",
"=. c #A45B60",
"-. c #927174",
";. c #A2797B",
":. c #BD7862",
">. c #108B78",
",. c #CC9168",
"<. c #2A508D",
"1. c #3C5988",
"2. c #3C5690",
"3. c #187C8B",
"4. c #3F6099",
"5. c #217092",
"6. c #38789C",
"7. c #30708F",
"8. c #4A4E81",
"9. c #425A85",
"0. c #5A5A88",
"q. c #53538A",
"w. c #694D86",
"e. c #67588A",
"r. c #685C92",
"t. c #765C93",
"y. c #466C8D",
"u. c #5C6A8A",
"i. c #566886",
"p. c #53738B",
"a. c #5A778B",
"s. c #4B6093",
"d. c #5E6899",
"f. c #4C7291",
"g. c #5B7796",
"h. c #636487",
"j. c #686895",
"k. c #746699",
"l. c #746D9A",
"z. c #657593",
"x. c #6E6F8A",
"c. c #517CA4",
"v. c #787AAB",
"b. c #6C7DA9",
"n. c #967B92",
"m. c #837DB1",
"M. c #906DA6",
"N. c #AA6FB3",
"B. c #108981",
"V. c #12928A",
"C. c #319799",
"Z. c #2F8B95",
"A. c #378BAA",
"S. c #319CA0",
"D. c #2E95AC",
"F. c #18B9B8",
"G. c #1EB7A9",
"H. c #30A8B2",
"J. c #22AFB7",
"K. c #51939E",
"L. c #63809A",
"P. c #4184A2",
"I. c #5D80A3",
"U. c #5C9AAB",
"Y. c #5497B5",
"T. c #608CB0",
"R. c #738CB7",
"E. c #6D82AC",
"W. c #5EB6BA",
"Q. c #5BA4B4",
"!. c #21C7B5",
"~. c #17E4BD",
"^. c #0EF2BC",
"/. c #56C0B8",
"(. c #5D84C8",
"). c #769BC4",
"_. c #58A6C5",
"`. c #6CB4CF",
"'. c #6EADD8",
"]. c #28DACD",
"[. c #14ECC3",
"{. c #30E7D8",
"}. c #1AE0E0",
"|. c #1CF2E9",
" X c #24FBF5",
".X c #3DFDF4",
"XX c #5DC7DC",
"oX c #54CDCC",
"OX c #4FE1DA",
"+X c #58EFDD",
"@X c #5AEBCF",
"#X c #4BC9E4",
"$X c #70D6EC",
"%X c #55E7E6",
"&X c #5AF9F8",
"*X c #49FFFA",
"=X c #70F1FC",
"-X c #B08A8E",
";X c #B68F9F",
":X c #8698B2",
">X c #9281A9",
",X c #A080A7",
"<X c #A28DB5",
"1X c #D1AF93",
"2X c #D3B5BD",
"3X c #E1C08D",
"4X c #9293C4",
"5X c #A89EC4",
"6X c #92A9D6",
"7X c #B9AED0",
"8X c #94C0E8",
"9X c #E3CCC1",
"0X c None",
/* pixels */
"0X0X0X0X0X0X0X0X0X0X0X0X0X0X0X0X0X0X0X0X0X0X0X0X0X0X0X0X0X0X0X0X",
"0X0X0X0X0X0X0X0X0X0X0X0X0X0X0X0X0X0X0X0X0X0X0X0X0X0X0X0X0X0X0X0X",
"0X0X0X0X0X0X0X0X0X0X0X0X0X0X0X0X0X0X0X0X0X0X0X0X0X0X0X0X0X0X0X0X",
"0X0X0X0X0X0X0X0X0X0X-X:X`.XX%X%XOXOX/.K.O.0X0X0X0X0X0X0X0X0X0X0X",
"0X0X0X0X0X0X0X0X0X9X7X8X=X=X&X&X%X+X@XoXU.a.O.0X0X0X0X0X0X0X0X0X",
"0X0X0X0X0X0X0X;.2X2X5X6X$XXXXX_.Y.Q.W.W.U.p.i.+.6 0X0X0X0X0X0X0X",
"0X0X0X0X0X0X0X>X,X<X4X).'.T.I.p.@.a.a.a.p.O.Q B C = 0X0X0X0X0X0X",
"0X0X0X0X0X0Xd.j.x.l.E.(.b.i.T c c Y @.z.L.+.+.Q Q C 0X0X0X0X0X0X",
"0X0X0X0X0XD s./ E { b.d.i , - ;   o & t @.u.@.Y c B x 0X0X0X0X0X",
"0X0X0X0X0Xw ~ R i T 0.e - , a <.Z 0 # . * ! #.L t p w 0X0X0X0X0X",
"0X0X0X0X0Xj.z g y z z 1 , a Z Z a w % X X & L L 8 4 6 : 0X0X0X0X",
"0X0X0X0Xj.6Xt.z s w.y 1 , 1 0X0X0X0X0X. & . 4 K 5 4 q M 0X0X0X0X",
"0X0X0X0X:X4X_ w.z t.y , 0X0X0X0X0X0X0X0X& X 2 R y g h ~ 0X0X0X0X",
"0X0X0X0Xv.t.( e.M.w.a , 0X0X0X0X0X0X0X0X# o # 4 p 4 4 s 0X0X0X0X",
"0X0X0X0Xj.( q...N./ A , 0X0X0X0X0X0X0X0X% > o 3 e 0 5 f 0X0X0X0X",
"0X0X0X0Xr./ _ ..M.8.2.0X0X0X0X0X0X0X0X0X0X> 2 2 r 5 d h 0X0X0X0X",
"0X0X0X0XE w.( w.d.4.2.0X0X0X0X0X0X0X0X0X0X9 1 g h h j P 0X0X0X0X",
"0X0X0X' r.k.R z q.2.1.0X0X0X0X0X0X0X0X0X0X3 # g } P $.*.&.0X0X0X",
"0X0X0Xo.e.e.l s 8.1.i.0X0X0X0X0X0X0X0X0X0Xh 5 d } k %.:.0X0X0X0X",
"0X0X0Xo.) 0./ u / s 0.0X0X0X0X0X0X0X0X0X0Xf 2 5 o.k %.,.0X0X0X0X",
"0X0X0XY r.r.~ s t K K 0X0X0X0X0X0X0X0X0X0X4 2 5 ' } $.=.0X0X0X0X",
"0X0X0Xc k.k.~ w > t * 0X0X0X0X0X0X0X0X0X0Xe 2 h ' h k I 0X0X0X0X",
"0X0X0X0Xv.k.` v @ 0X9 0X0X0X0X0X0X0X0X0X0Xp 2 E E 0 d f 0X0X0X0X",
"0X0X0X0XR.h.T +.c > @ 0X0X0X0X0X0X0X0X0X% 4 3 u.R > 5 5 0X0X0X0X",
"0X0X0X0Xc.j.e i.Q <   0X0X0X0X0X0X0X0X0X@ @ t j.u 0 0 > 0X0X0X0X",
"0X0X0X0Xf.z.> T u.p O 0X0X0X0X0X0X0X0X0X> 3 ] u.y r i 6 0X0X0X0X",
"0X0X0X0XC c.s i z.] p + 0X0X0X0X0X0X0X8 r K h.R 3 r N 0X0X0X0X0X",
"0X0X0X0X0XY.y.M u.u.] R = 0X0X0X0X0X .e.Y [ ' 4 0 N A 0X0X0X0X0X",
"0X0X0X0X0XZ.P.D 1.y.a.+.! U -.0X3X-Xm.| ! ] 7 h s D x 0X0X0X0X0X",
"0X0X0X0X0X0XA.6.f.m f.z.x. .&.,.1X;Xn.o.] p w M A D 0X0X0X0X0X0X",
"0X0X0X0X0X0XV D.D.5.7.f.L.x.-.-.n.n.v.9.m m ` y.4.m 0X0X0X0X0X0X",
"0X0X0X0X0X0X0XZ.H.J.J.B.S Q !  .P X.(.A.5.S V S V 0X0X0X0X0X0X0X",
"0X0X0X0X0X0X0X0XC.].~.!.D.S : O ; S #X%XS.7.S V 0X0X0X0X0X0X0X0X",
"0X0X0X0X0X0X0X0X0XC.{. X XF.G b B.G..X*XoX7.x 0X0X0X0X0X0X0X0X0X",
"0X0X0X0X0X0X0X0X0X0XH F.}.|.[.^.[.[.{.!.C.0X0X0X0X0X0X0X0X0X0X0X",
"0X0X0X0X0X0X0X0X0X0X0X0X0XG >.V.>.F 0X0X0X0X0X0X0X0X0X0X0X0X0X0X",
"0X0X0X0X0X0X0X0X0X0X0X0X0X0X0X0X0X0X0X0X0X0X0X0X0X0X0X0X0X0X0X0X",
"0X0X0X0X0X0X0X0X0X0X0X0X0X0X0X0X0X0X0X0X0X0X0X0X0X0X0X0X0X0X0X0X",
"0X0X0X0X0X0X0X0X0X0X0X0X0X0X0X0X0X0X0X0X0X0X0X0X0X0X0X0X0X0X0X0X",
"0X0X0X0X0X0X0X0X0X0X0X0X0X0X0X0X0X0X0X0X0X0X0X0X0X0X0X0X0X0X0X0X"
};
