/* XPM */
static char *result[] = {
/* columns rows colors chars-per-pixel */
"32 40 215 2 ",
"   c #12131A",
".  c #0C172B",
"X  c #1B1828",
"o  c #0C1C32",
"O  c #1A1C35",
"+  c #201B2C",
"@  c #221827",
"#  c #271D35",
"$  c #301C34",
"%  c #0E2238",
"&  c #112439",
"*  c #262134",
"=  c #2A2235",
"-  c #2C233C",
";  c #242A3C",
":  c #31233F",
">  c #2C363F",
",  c #58363F",
"<  c #0E2E4D",
"1  c #0F2742",
"2  c #162746",
"3  c #153457",
"4  c #163550",
"5  c #2D2644",
"6  c #2B2A42",
"7  c #2D2A48",
"8  c #342642",
"9  c #332B4A",
"0  c #392C4C",
"q  c #392A45",
"w  c #2D3243",
"e  c #2E334B",
"r  c #2B354D",
"t  c #33354C",
"y  c #3A314A",
"u  c #313B4E",
"i  c #303042",
"p  c #262D5B",
"a  c #293958",
"s  c #333653",
"d  c #3C3554",
"f  c #353A53",
"g  c #33375B",
"h  c #39345B",
"j  c #3A3E5C",
"k  c #373D55",
"l  c #322F59",
"z  c #373A65",
"x  c #233463",
"c  c #402D4D",
"v  c #473649",
"b  c #413952",
"n  c #423C5C",
"m  c #47355B",
"M  c #583958",
"N  c #673C56",
"B  c #453E6A",
"V  c #613D66",
"C  c #1A4C5D",
"Z  c #25475C",
"A  c #354254",
"S  c #3C425C",
"D  c #384659",
"F  c #1B4569",
"G  c #1B5277",
"H  c #2C4C6A",
"J  c #2A4464",
"K  c #3D4962",
"L  c #384666",
"P  c #274C7A",
"I  c #364A77",
"U  c #275776",
"Y  c #375874",
"T  c #3B5362",
"R  c #1C7D7D",
"E  c #1A7977",
"W  c #1C6972",
"Q  c #24687A",
"!  c #287E7F",
"~  c #3C7577",
"^  c #45445B",
"/  c #48475C",
"(  c #53495D",
")  c #65485B",
"_  c #7F4C57",
"`  c #4C4D65",
"'  c #41426C",
"]  c #4B4B69",
"[  c #454764",
"{  c #44556C",
"}  c #495268",
"|  c #525469",
" . c #434972",
".. c #434075",
"X. c #455572",
"o. c #4C5C74",
"O. c #475576",
"+. c #525474",
"@. c #535B77",
"#. c #575678",
"$. c #544768",
"%. c #684466",
"&. c #6D5579",
"*. c #4B687E",
"=. c #526376",
"-. c #58647B",
";. c #43787A",
":. c #814459",
">. c #975A68",
",. c #994D61",
"<. c #986979",
"1. c #84616C",
"2. c #B87D65",
"3. c #1E807D",
"4. c #BA845D",
"5. c #CE9675",
"6. c #16578A",
"7. c #225885",
"8. c #395C92",
"9. c #1D608F",
"0. c #1D7E80",
"q. c #3C6384",
"w. c #326B8C",
"e. c #3D758A",
"r. c #236A94",
"t. c #297C97",
"y. c #397797",
"u. c #297188",
"i. c #4A5585",
"p. c #585F84",
"a. c #466786",
"s. c #536A83",
"d. c #5B6A84",
"f. c #5A6485",
"g. c #59728A",
"h. c #467696",
"j. c #597498",
"k. c #5B6196",
"l. c #647B96",
"z. c #687189",
"x. c #467FA0",
"c. c #4F76B0",
"v. c #6576A4",
"b. c #A45F88",
"n. c #956194",
"m. c #A17C83",
"M. c #9E7EB1",
"N. c #847EBD",
"B. c #30909C",
"V. c #318B9D",
"C. c #1C83BB",
"Z. c #2D94A9",
"A. c #348DA8",
"S. c #27B4B7",
"D. c #35ABAA",
"F. c #598799",
"G. c #499697",
"H. c #51919E",
"J. c #62859D",
"K. c #5A88A7",
"L. c #5B9CA9",
"P. c #5093B2",
"I. c #6387A6",
"U. c #6A84BA",
"Y. c #58A7B9",
"T. c #56B3B4",
"R. c #4AAAAB",
"E. c #6ABBBD",
"W. c #2DC9BC",
"Q. c #21DEBF",
"!. c #1A94C8",
"~. c #3D9FC6",
"^. c #4A9ACC",
"/. c #659BC7",
"(. c #50AED2",
"). c #4DAECE",
"_. c #62B9DE",
"`. c #6FBBE3",
"'. c #2DCFD2",
"]. c #33EAD6",
"[. c #3AD8EF",
"{. c #26F7E8",
"}. c #39F6E4",
"|. c #39F9F8",
" X c #2BECEF",
".X c #57C5C6",
"XX c #50D1CF",
"oX c #5CDBDB",
"OX c #4DD0D6",
"+X c #6AD0D8",
"@X c #58E9D9",
"#X c #50CFE0",
"$X c #6BC7E6",
"%X c #69D2EE",
"&X c #56E8E7",
"*X c #5BFBFB",
"=X c #51EAF2",
"-X c #62E1E0",
";X c #6CEAF8",
":X c #6DFCFE",
">X c #62FCFA",
",X c #74FBFB",
"<X c #ADA1AE",
"1X c #C38B80",
"2X c #D5A793",
"3X c #D29FBB",
"4X c #DFA4B0",
"5X c #F2D5B3",
"6X c #ADA1D2",
"7X c #D6A8D0",
"8X c #82DFF7",
"9X c #ABDBF2",
"0X c #83FEFF",
"qX c #ABE2E3",
"wX c None",
/* pixels */
"wXwXwXwXwXwXwXwXwXwXwXwXwXwXwXwXwXwXwXwXwXwXwXwXwXwXwXwXwXwXwXwX",
"wXwXwXwXwXwXwXwXwXwXwXwXwXwXwXwXwXwXwXwXwXwXwXwXwXwXwXwXwXwXwXwX",
"wXwXwXwXwXwXwXwXwXwXwXG..XoX&X&X&XXX.XH.;.D wXwXwXwXwXwXwXwXwXwX",
"wXwXwXwXwXwXwXwXwXR.-X:X,X>X>X*X&X@X@XT.K.g.o.A wXwXwXwXwXwXwXwX",
"wXwXwXwXwXwXwXD.&X*X;X;X:X%X_././.Y.T.L.F.-.o.o.A wXwXwXwXwXwXwX",
"wXwXwXwXwXwXD.&X;X%X_././.I.j.j.j.g.J.J.J.d.@.@.O.A wXwXwXwXwXwX",
"wXwXwXwXwXF.$X`.U.c.c.v.f.+.z L u [ @.g.l.=.| ` [ A wXwXwXwXwXwX",
"wXwXwXwXm.6XN.k.I B ] B z x p 2 O O - t | -.( / S S Z wXwXwXwXwX",
"wXwXwXwX2X7Xn.V m l ..8.7.7.P p 2 + $ $ $ / #.( t s H C wXwXwXwX",
"wXwXwXwX5X4Xb.p.i.i.^.~.t.r.F x l X X @ = - #.#.i 9 a U wXwXwXwX",
"wXwXwXwXwX3X<XU.^.(.#Xt.C wXwXwX# X X wX* 6 K p.0 0 g I wXwXwXwX",
"wXwXwXwXwX<X9X8X=XOXe.wXwXwXwXwXwXwX+   * 6 e -.d m d g wXwXwXwX",
"wXwXwXwXwXqX0X:X$XwXwXwXwXwXwXwXwXwXwXX = 8 5 @.d M m m wXwXwXwX",
"wXwXwXwXwXE.*X-X;.wXwXwXwXwXwXwXwXwXwXwX@ - $ ] 0 q : c wXwXwXwX",
"wXwXwXwXwXT.*XR.wXwXwXwXwXwXwXwXwXwXwXwX= : - ] q q 0 d wXwXwXwX",
"wXwXwXwXwX-XOXwXwXwXwXwXwXwXwXwXwXwXwXwX8 - s #.q c m | wXwXwXwX",
"wXwXwXwXwXG.;.wXwXwXwXwXwXwXwXwXwXwXwX= - 6 { +.m M %.&.wXwXwXwX",
"wXwXwXwXwXwXwXwXwXwXwXwXwXwXwXwXwXwXi 6 - f o.] V :.b.<.wXwXwXwX",
"wXwXwXwXwXwXwXwXwXwXwXwXwXwXwXwXwXwXk 9 d #.] $.N ,.1XwXwXwXwXwX",
"wXwXwXwXwXwXwXwXwXwXwXwXwXwXwXwXwXS k y ` #.j n N ,.5.wXwXwXwXwX",
"wXwXwXwXwXwXwXwXwXwXwXwXwXwXwXwXw e n k ` d g n ) :.wXwXwXwXwXwX",
"wXwXwXwXwXwXwXwXwXwXwXwXwXwXwXw > e ] ^ y 0 h  .| , wXwXwXwXwXwX",
"wXwXwXwXwXwXwXwXwXwXwXwXwXwXt t ; u +.s - 9 g I ^ wXwXwXwXwXwXwX",
"wXwXwXwXwXwXwXwXwXwXwXwXwXt D u e S +.7 5 5 h s wXwXwXwXwXwXwXwX",
"wXwXwXwXwXwXwXwXwXwXwXwXk K S S { =...z 5 5 ; wXwXwXwXwXwXwXwXwX",
"wXwXwXwXwXwXwXwXwXwXwXS X.K D o.d. .B B 7 = wXwXwXwXwXwXwXwXwXwX",
"wXwXwXwXwXwXwXwXwXwXa.a.O.K { =.{ 6 l m # wXwXwXwXwXwXwXwXwXwXwX",
"wXwXwXwXwXwXwXwXwXe.x.a.a.o.=.=.t . 9 wXwXwXwXwXwXwXwXwXwXwXwXwX",
"wXwXwXwXwXwXwX;..XA.h.h.g.*.-.} ; X wXwXwXwXwXwXwXwXwXwXwXwXwXwX",
"wXwXwXwXwXwX&.Y.Y.e.~ Y { } A > wXwXwXO.} ` ^ ` ] ] | S wXwXwXwX",
"wXwXwXwXwX4.1.| X.g a T s.s.{ A ; t p.v.d.f.d.g.f.+.#.n wXwXwXwX",
"wXwXwXwXwX4.:.( j r a Z H J 2 o . O i.v.g.d.-.{ L j h y wXwXwXwX",
"wXwXwXwXwX>.) b Y U U F U F 1 o . . z c.c.Y Y H H L K g wXwXwXwX",
"wXwXwXwXwX) y H y.A.^.!.r.G < % o 1 7.c.(.A.B.u.w.q.i.s wXwXwXwX",
"wXwXwXwXwXT Q S.'. X=X!.9.9.3 < < < W B.'.}.].W.D.V.y.H wXwXwXwX",
"wXwXwXwXwXA.'.|.|.|.[.t.6.6.3 3 F 3 W S.].{.{.}.Q.W.Z.Z wXwXwXwX",
"wXwXwXwXwXwXR 0.! ! Q G < 4 & & & & C E E R R ! R R W wXwXwXwXwX",
"wXwXwXwXwXwXwXwXwXwXwXwXwXwXwXwXwXwXwXwXwXwXwXwXwXwXwXwXwXwXwXwX",
"wXwXwXwXwXwXwXwXwXwXwXwXwXwXwXwXwXwXwXwXwXwXwXwXwXwXwXwXwXwXwXwX",
"wXwXwXwXwXwXwXwXwXwXwXwXwXwXwXwXwXwXwXwXwXwXwXwXwXwXwXwXwXwXwXwX"
};
