/* XPM */
static char *result[] = {
/* columns rows colors chars-per-pixel */
"32 40 181 2 ",
"   c #1A1626",
".  c #1C192B",
"X  c #1F152E",
"o  c #211D2B",
"O  c #271E35",
"+  c #2C1B34",
"@  c #2E1E3A",
"#  c #281636",
"$  c #2C233C",
"%  c #27263A",
"&  c #34233C",
"*  c #342A3B",
"=  c #46273F",
"-  c #231E42",
";  c #1B2F45",
":  c #1F3645",
">  c #2C2544",
",  c #2C2C45",
"<  c #2B224B",
"1  c #2E2D4B",
"2  c #232948",
"3  c #322542",
"4  c #3B2643",
"5  c #332A45",
"6  c #3B2946",
"7  c #342C4C",
"8  c #3D2B4C",
"9  c #24384C",
"0  c #3B344C",
"q  c #3A3547",
"w  c #282A51",
"e  c #3A2D52",
"r  c #2E3253",
"t  c #2B3F5F",
"y  c #2B3656",
"u  c #343354",
"i  c #3E3254",
"p  c #3A3B54",
"a  c #33355C",
"s  c #3B345A",
"d  c #32395B",
"f  c #3A395E",
"g  c #343B55",
"h  c #2E3867",
"j  c #343C62",
"k  c #2D3F71",
"l  c #452C44",
"z  c #522E46",
"x  c #41314C",
"c  c #4C304F",
"v  c #5B334B",
"b  c #573348",
"n  c #482F53",
"m  c #443453",
"M  c #423B54",
"N  c #43355D",
"B  c #433C5D",
"V  c #4C3C5C",
"C  c #4A3154",
"Z  c #6B354C",
"A  c #783E4C",
"S  c #483D6A",
"D  c #463E74",
"F  c #2D425C",
"G  c #3F4559",
"H  c #2C545C",
"J  c #2E4165",
"K  c #264B66",
"L  c #344B6C",
"P  c #3A4767",
"I  c #3B4A77",
"U  c #2A5775",
"Y  c #3D5475",
"T  c #187872",
"R  c #39687F",
"E  c #43465C",
"W  c #47485B",
"Q  c #424969",
"!  c #4C5164",
"~  c #45526D",
"^  c #525468",
"/  c #48477D",
"(  c #524578",
")  c #455B7D",
"_  c #4B5C7A",
"`  c #455877",
"'  c #565E74",
"]  c #555F79",
"[  c #744760",
"{  c #5B6376",
"}  c #5D657B",
"|  c #566177",
" . c #62667A",
".. c #64697E",
"X. c #68697F",
"o. c #91475D",
"O. c #825153",
"+. c #A35B57",
"@. c #975166",
"#. c #BA6C67",
"$. c #AC986B",
"%. c #C38065",
"&. c #CBA37D",
"*. c #3F5C82",
"=. c #395886",
"-. c #275785",
";. c #3D6183",
":. c #37688A",
">. c #347A87",
",. c #27709B",
"<. c #3F7091",
"1. c #2F72A0",
"2. c #5F4F80",
"3. c #625887",
"4. c #6A5891",
"5. c #735F94",
"6. c #43688A",
"7. c #576885",
"8. c #456591",
"9. c #5A6F93",
"0. c #42789D",
"q. c #597B94",
"w. c #636A80",
"e. c #7C638E",
"r. c #6B719D",
"t. c #696699",
"y. c #527CA6",
"u. c #895D8B",
"i. c #A8618F",
"p. c #AD768F",
"a. c #877CBF",
"s. c #A674AE",
"d. c #3A8587",
"f. c #2C908F",
"g. c #2E8293",
"h. c #33899B",
"j. c #2E9497",
"k. c #3AA099",
"l. c #33ADA1",
"z. c #2DA8BC",
"x. c #32B7B7",
"c. c #4D8686",
"v. c #5D8A98",
"b. c #50939F",
"n. c #4380A5",
"m. c #4594B5",
"M. c #6A89BB",
"N. c #7A93B9",
"B. c #41ADAE",
"V. c #48A5B7",
"C. c #53B9BA",
"Z. c #66C4B3",
"A. c #3CBBD8",
"S. c #54AECA",
"D. c #46B3C3",
"F. c #57B8CF",
"G. c #45A9C5",
"H. c #2FCAC7",
"J. c #34CACC",
"K. c #2BD1C8",
"L. c #3AE8EF",
"P. c #4FC3C9",
"I. c #49CED5",
"U. c #5EC7DE",
"Y. c #4AD7D9",
"T. c #70FDFF",
"R. c #68F7F9",
"E. c #9D8FA7",
"W. c #9381B5",
"Q. c #DEBBB4",
"!. c #E8DEAA",
"~. c #9489C3",
"^. c #979ECF",
"/. c #969DD8",
"(. c #81ADD0",
"). c #BAB4D2",
"_. c #9EDFCD",
"`. c #8FC4E4",
"'. c #8ED9EE",
"]. c #C7D9DA",
"[. c None",
/* pixels */
"[.[.[.[.[.[.[.[.[.[.[.[.[.[.[.[.[.[.[.[.[.[.[.[.[.[.[.[.[.[.[.[.",
"[.[.[.[.[.[.[.[.[.[.[.[.[.[.[.[.[.[.[.[.[.[.[.[.[.[.[.[.[.[.[.[.",
"[.[.[.[.[.[.[.[.[.[.[.[.[.[.[.[.[.[.[.[.[.[.[.[.[.[.[.[.[.[.[.[.",
"[.[.[.[.[.[.[.[.[.[.[.[.[.[.[.[.[.[.[.[.[.[.[.[.[.[.[.[.[.[.[.[.",
"[.[.[.[.[.[.[.[.[.[.[.[.[.[.[.[.[.[.! | } } 7.q.C.k.[.[.[.[.[.[.",
"[.[.[.[.[.[.[.[.[.[.[.[.[.[.[.[.L ` ' { w.} } q.V.l.[.[.[.[.[.[.",
"[.[.[.[.[.[.[.[.[.[.[.[.[.[.[.6.6._ '  .w...{ _ R f.[.[.[.[.[.[.",
"[.[.[.[.[.[.[.[.[.[.[.[.[.>.G.m.6.6.|  .X.^ W p F U [.[.[.[.[.[.",
"[.[.[.[.[.[.[.[.[.[.[.[.B.I.G.n.6._ { {  .! q $ u L [.[.[.[.[.[.",
"[.[.[.[.[.[.[.[.[.[.c.P.V.m.0.;.Y P ^  .{ p 5 4 3 g [.[.[.[.[.[.",
"[.[.[.[.[.[.[.[.[.v.U.S.:.6.I h a - & E E , 0 m $ i [.[.[.[.[.[.",
"[.[.[.[.[.[.[.&.E.N.M.) d u > < < # + % , r 1 e & x [.[.[.[.[.[.",
"[.[.[.[.[.[.[.Q.p.5.3.< < w - - # o # O 3 1 < < 6 C [.[.[.[.[.[.",
"[.[.[.[.[.[.[.p.i.u.2.h h k w 2 X   $ # 3 3 $ 5 8 c [.[.[.[.[.[.",
"[.[.[.[.[.[.[.u.s.~.8.,.,.-.; [.[.. > $ 4 @ @ & l v [.[.[.[.[.[.",
"[.[.[.[.[.[.[.t.^.`.A.L.z.K [.[.[.2 j y 7 & & = v A [.[.[.[.[.[.",
"[.[.[.[.[.[.[.n.'.R.L.x.[.[.[.[.[.9 -.I a > & z A +.[.[.[.[.[.[.",
"[.[.[.[.[.[.[.F.T.Y.c.[.[.[.[.[.[.j U L d 5 4 v o.%.[.[.[.[.[.[.",
"[.[.[.[.[.[.[.Y.C.[.[.[.[.[.[.[.[.F U j y 5 & v o.#.[.[.[.[.[.[.",
"[.[.[.[.[.[.[.c.[.[.[.[.[.[.[.[.[.Q J h S B 4 c Z @.[.[.[.[.[.[.",
"[.[.[.[.[.[.[.[.[.[.[.[.[.[.[.[.[.E j 1 s E 6 l z [ [.[.[.[.[.[.",
"[.[.[.[.[.[.[.[.[.[.[.[.[.[.[.[.[.* f , 5 M 3 4 l l [.[.[.[.[.[.",
"[.[.[.[.[.[.[.[.[.[.[.[.[.[.[.[.[.% B 3 3 M 5 x x * [.[.[.[.[.[.",
"[.[.[.[.[.[.[.[.[.[.[.[.[.[.[.[.[.% S x 7 ^ M m M [.[.[.[.[.[.[.",
"[.[.[.[.[.[.[.[.[.[.[.[.[.[.[.[.[.o e 3 , ' i e x [.[.[.[.[.[.[.",
"[.[.[.[.[.[.[.[.[.[.[.[.[.[.[.[.[.X e s 1 | p n m 3 [.[.[.[.[.[.",
"[.[.[.[.[.[.[.[.[.[.[.[.[.[.[.[.[.. N D y 7.P s m 7 [.[.[.[.[.[.",
"[.[.[.[.[.[.[.[.[.[.[.[.[.[.[.[.[.  e D I 7.Q f e > [.[.[.[.[.[.",
"[.[.[.[.[.[.[.[.[.[.[.[.[.[.[.[.[.. e 2.6.7.Q f 7 7 [.[.[.[.[.[.",
"[.[.[.[.[.[.[.[.[.[.[.[.[.[.[.[.[.* / S 5 ~ a e N f [.[.[.[.[.[.",
"[.[.[.[.[.[.[.[.[.[.[.[.[.[.[.[.[.b 5.S & 5 $ e j L [.[.[.[.[.[.",
"[.[.[.[.[.[.[.[.[.[.[.[.[.[.[.[.[.O.a.4.l 3 7 Q *.:.[.[.[.[.[.[.",
"[.[.[.[.[.[.[.[.[.[.[.[.[.[.[.[.[.&.).a.V 6 w J :.h.[.[.[.[.[.[.",
"[.[.[.[.[.[.[.[.[.[.[.[.[.[.[.[.[.!.]./.r.p y U g.f.[.[.[.[.[.[.",
"[.[.[.[.[.[.[.[.[.[.[.[.[.[.[.[.[.$._.(.M.6.L U J.J.[.[.[.[.[.[.",
"[.[.[.[.[.[.[.[.[.[.[.[.[.[.[.[.[.[.Z.b.;.;.Y >.K.H.[.[.[.[.[.[.",
"[.[.[.[.[.[.[.[.[.[.[.[.[.[.[.[.[.[.[.H 9 ; 9 H T T [.[.[.[.[.[.",
"[.[.[.[.[.[.[.[.[.[.[.[.[.[.[.[.[.[.[.[.[.[.[.[.[.[.[.[.[.[.[.[.",
"[.[.[.[.[.[.[.[.[.[.[.[.[.[.[.[.[.[.[.[.[.[.[.[.[.[.[.[.[.[.[.[.",
"[.[.[.[.[.[.[.[.[.[.[.[.[.[.[.[.[.[.[.[.[.[.[.[.[.[.[.[.[.[.[.[."
};
