/* XPM */
static char *result[] = {
/* columns rows colors chars-per-pixel */
"32 40 220 2 ",
"   c #17192B",
".  c #1A1A2E",
"X  c #19142D",
"o  c #1C1B35",
"O  c #1D1C39",
"+  c #1A1531",
"@  c #0F1024",
"#  c #271B2E",
"$  c #241C33",
"%  c #2B1C33",
"&  c #211936",
"*  c #301C33",
"=  c #1E213F",
"-  c #26243D",
";  c #2D243D",
":  c #282535",
">  c #31253D",
",  c #312A3E",
"<  c #211F42",
"1  c #1C3A4F",
"2  c #242443",
"3  c #2C2643",
"4  c #2C2A43",
"5  c #272748",
"6  c #2C2B4C",
"7  c #282949",
"8  c #362645",
"9  c #352C4B",
"0  c #3D2D4C",
"q  c #342C45",
"w  c #2B324D",
"e  c #28374B",
"r  c #353145",
"t  c #37324C",
"y  c #3A344D",
"u  c #333A4C",
"i  c #3C3547",
"p  c #352F51",
"a  c #392F52",
"s  c #2B3352",
"d  c #2C3B5B",
"f  c #253E5A",
"g  c #343253",
"h  c #3C3252",
"j  c #3C3C52",
"k  c #34345A",
"l  c #39335A",
"z  c #34395B",
"x  c #3D3D5D",
"c  c #272850",
"v  c #333D64",
"b  c #3C3B63",
"n  c #3C3C6B",
"m  c #3C3766",
"M  c #402A48",
"N  c #502F4C",
"B  c #5C3946",
"V  c #423B54",
"C  c #43355C",
"Z  c #423A5B",
"A  c #4B3B5C",
"S  c #543D5D",
"D  c #5C3755",
"F  c #532E52",
"G  c #753C55",
"H  c #6C3A54",
"J  c #423D64",
"K  c #5E3E61",
"L  c #3E445B",
"P  c #384356",
"I  c #105F7C",
"U  c #105768",
"Y  c #284D65",
"T  c #294563",
"R  c #364464",
"E  c #3C4363",
"W  c #3B426C",
"Q  c #3A4869",
"!  c #3D4A75",
"~  c #3D537B",
"^  c #355876",
"/  c #30526B",
"(  c #177670",
")  c #256379",
"_  c #46475D",
"`  c #7C434D",
"'  c #434A65",
"]  c #4C4D64",
"[  c #484667",
"{  c #564A66",
"}  c #41526B",
"|  c #4B546C",
" . c #465569",
".. c #54526A",
"X. c #444877",
"o. c #544273",
"O. c #54497A",
"+. c #4C5C74",
"@. c #455678",
"#. c #535B75",
"$. c #565A78",
"%. c #654B6A",
"&. c #6E546E",
"*. c #4C637C",
"=. c #476B7D",
"-. c #53637C",
";. c #5C637A",
":. c #586579",
">. c #63647C",
",. c #8A4452",
"<. c #A85A5B",
"1. c #A96663",
"2. c #0F8B6F",
"3. c #C59774",
"4. c #D49D73",
"5. c #DAA87F",
"6. c #177182",
"7. c #386486",
"8. c #3D6E98",
"9. c #5D4E81",
"0. c #485983",
"q. c #535B83",
"w. c #585887",
"e. c #5B5E99",
"r. c #645B88",
"t. c #685789",
"y. c #73588E",
"u. c #476485",
"i. c #5C6B86",
"p. c #5A648D",
"a. c #5B6C8D",
"s. c #556687",
"d. c #53728A",
"f. c #5A7A9C",
"g. c #587395",
"h. c #4D7393",
"j. c #656383",
"k. c #64688B",
"l. c #67758A",
"z. c #6A6795",
"x. c #6C7D9B",
"c. c #687796",
"v. c #717B98",
"b. c #7C668E",
"n. c #5172A8",
"m. c #6978AA",
"M. c #7873A7",
"N. c #6E7DB0",
"B. c #6666A6",
"V. c #4B7EC6",
"C. c #805A94",
"Z. c #926A8C",
"A. c #8D72AB",
"S. c #129D89",
"D. c #199996",
"F. c #1F8C8D",
"G. c #0EB694",
"H. c #2F8CAC",
"J. c #0FB7A0",
"K. c #24A9B4",
"L. c #58859A",
"P. c #64869F",
"I. c #608D8B",
"U. c #4F8EAB",
"Y. c #5787AB",
"T. c #4E9AA1",
"R. c #579BA8",
"E. c #579CBB",
"W. c #628CA5",
"Q. c #6995BF",
"!. c #7790AA",
"~. c #51BCBB",
"^. c #15D0AD",
"/. c #23D1B7",
"(. c #0EEEA8",
"). c #28B8C8",
"_. c #57A1C7",
"`. c #43B5CF",
"'. c #6DB4D8",
"]. c #24DFDF",
"[. c #11FDD2",
"{. c #14FCCE",
"}. c #18F6E8",
"|. c #18F2F1",
" X c #27FDF9",
".X c #5DC0C0",
"XX c #59D1C5",
"oX c #5BD9D9",
"OX c #6ACACD",
"+X c #56EEDB",
"@X c #64C2E2",
"#X c #55ECEB",
"$X c #56E7E7",
"%X c #59F3F0",
"&X c #6DFDFF",
"*X c #62FFFF",
"=X c #79F4F7",
"-X c #70E3F6",
";X c #8E8C8C",
":X c #B5A38B",
">X c #8C8CA9",
",X c #B793A4",
"<X c #83AFB6",
"1X c #B9A2BC",
"2X c #C4D1BE",
"3X c #9A8AC3",
"4X c #8494C6",
"5X c #9997D0",
"6X c #A394CA",
"7X c #9AA6C7",
"8X c #83A2D2",
"9X c #85ACCE",
"0X c #D5B7C7",
"qX c #B0D5CD",
"wX c #87C5E6",
"eX c #90EBE1",
"rX c #ECD8C2",
"tX c #D2FAED",
"yX c #E2F2E0",
"uX c None",
/* pixels */
"uXuXuXuXuXuXuXuXuXuXuXuXuXuXuXuXuXuXuXuXuXuXuXuXuXuXuXuXuXuXuXuX",
"uXuXuXuXuXuXuXuXuXuXuXuXuXuXuXuXuXuXuXuXuXuXuXuXuXuXuXuXuXuXuXuX",
"uXuXuXuXuXuXuXuXuXuXuXuXuXuXuXuXuXuXuXuXuXuXuXuXuXuXuXuXuXuXuXuX",
"uXuXuXuXuXuXuXuXuXuXuXU.OXoX$X#X#X+XXXT.=.uXuXuXuXuXuXuXuXuXuXuX",
"uXuXuXuXuXuXuXuXuXP.'.=X&X*X*X%X#X#X+XXXR.d.+.P uXuXuXuXuXuXuXuX",
"uXuXuXuXuXuXuX3.,X7XwXeX=X-X@X_.E.E..X~.R.=. .L e uXuXuXuXuXuXuX",
"uXuXuXuXuXuX3.rX0X6X'.'.'.Q.Y.f.g.g.L.W.P.*.L : P L uXuXuXuXuXuX",
"uXuXuXuXuXuX1X0X,XA.3XQ.n.0.v k w L #.c.l.:. .u L } P uXuXuXuXuX",
"uXuXuXuXuX>X5XZ.Z.Z.c.q.v c < O + + > y ;.:.j ] ] Q Q uXuXuXuXuX",
"uXuXuXuXuX9Xz.%.%.{ [ k 2 - < O O # * % > ] >..._ j R e uXuXuXuX",
"uXuXuXuX>X9XO.A J n J J - o .   X $ # # # > ;.j.j y w f uXuXuXuX",
"uXuXuXuX7X5Xo.h m v n k & uXuXuXuXuXuX# > 4 R c.] y 3 T uXuXuXuX",
"uXuXuXuX3X3Xy.r.q.! E   uXuXuXuXuXuXuXuX; 6 d g.s.C 3 v uXuXuXuX",
"uXuXuXuXA.3Xy.z.M.B.q.uXuXuXuXuXuXuXuXuX# 9 w s.a.J a [ R uXuXuX",
"uXuXuXuXy.C.K z.A.y.l uXuXuXuXuXuXuXuXuXuX3 6 @.i.h 8 C x uXuXuX",
"uXuXuXuXJ 9.O.t.3Xy.l uXuXuXuXuXuXuXuXuXuX8 % ' #.p 8 0 h uXuXuX",
"uXuXuXuXm.w.O.9.5Xz.v 6 uXuXuXuXuXuXuXuX% : % ] ] 8 8 M 8 uXuXuX",
"uXuXuXuXm.e.t.w.4XN.@.R uXuXuXuXuXuXuXuX> # ; >.{ 8 M N D uXuXuX",
"uXuXuXuXa.B.r.W f.!.p.q.| uXuXuXuXuXuX_ i , V >.S F D G ` uXuXuX",
"uXuXuXuXuXM.9.v X.e.c.p.$.p.i.k.;.;.#...{ V ..$.M D H ,.1.uXuXuX",
"uXuXuXuXuXj.9.n n W 0.z.s.s.s.a.:.:.;.] V t _ V 0 %.G <.5.uXuXuX",
"uXuXuXuXuXuXw.v W n m m E | i.l.i.;.>.j t q > q 0 S ` <.4.uXuXuX",
"uXuXuXuXuXuXL v v k k c 7 2 w z u j A t y t , r q i B G uXuXuXuX",
"uXuXuXuXuXuXuXw v v k 6 7 2 < o @   C p r 0 9 J J x { B uXuXuXuX",
"uXuXuXuXuXuXuXuXr E k 7 - 5 7 o @ o x r uX8 p n X.k h i uXuXuXuX",
"uXuXuXuXuXuXuXuXuXuX- 3 2 5 2 = . o uXuXuX3 s @.0.d a g uXuXuXuX",
"uXuXuXuXuX| y uXuXuXuXuXuXuXuXuXuXuXuXuX; s ~ u.~ v l z uXuXuXuX",
"uXuXuXuXuXE ' u uXuXuXuXuXuXuXuXuXuXuXuXl v f.u.v p J v uXuXuXuX",
"uXuXuXuXuXQ s.-...uXuXuXuXuXuXuXuXuXuXw W @.f.! g g ~ e uXuXuXuX",
"uXuXuXuXuXu.u.$.P.:.uXuXuXuXuXuXuXuXuX! R -.} b C W ^ uXuXuXuXuX",
"uXuXuXuXuX=.7.q.v.c.i.*.uXuXuXuXuXL p.@. .+.3 a l ^ Y uXuXuXuXuX",
"uXuXuXuXuX} s.#.c.v.P.c.d.s.*. . .+.z.p.] 9 a J ~ 7.uXuXuXuXuXuX",
"uXuXuXuXuXuXl.;X>Xl.P.W.L.g.d.*.=.-.!.n.c 5 s v ^ Y uXuXuXuXuXuX",
"uXuXuXuXuXuX;X2XqX<XT.8.U.U.h.u. .^ n.V.8.f f Y T uXuXuXuXuXuXuX",
"uXuXuXuXuXuX:XyXtXeXOX.X).K.( U U I H.`._.7.) T uXuXuXuXuXuXuXuX",
"uXuXuXuXuXuXuX:XqX=X&X X|.|.^.J.^.G./.K.8.8.Y uXuXuXuXuXuXuXuXuX",
"uXuXuXuXuXuXuXuXuXI.`.].|. X[.[.{.(.^.D.) 1 uXuXuXuXuXuXuXuXuXuX",
"uXuXuXuXuXuXuXuXuXuXuXuX6.D.D.S.S.2.( uXuXuXuXuXuXuXuXuXuXuXuXuX",
"uXuXuXuXuXuXuXuXuXuXuXuXuXuXuXuXuXuXuXuXuXuXuXuXuXuXuXuXuXuXuXuX",
"uXuXuXuXuXuXuXuXuXuXuXuXuXuXuXuXuXuXuXuXuXuXuXuXuXuXuXuXuXuXuXuX"
};
