/* XPM */
static char *result[] = {
/* columns rows colors chars-per-pixel */
"32 40 206 2 ",
"   c #1A1727",
".  c #1C1C37",
"X  c #231B34",
"o  c #2A1E34",
"O  c #231B3C",
"+  c #2E1F39",
"@  c #1B2236",
"#  c #1D2A3A",
"$  c #1E243D",
"%  c #232434",
"&  c #2A233C",
"*  c #2A2A3C",
"=  c #27243A",
"-  c #32233D",
";  c #332E3C",
":  c #2E313D",
">  c #50323E",
",  c #2B1E44",
"<  c #1F2648",
"1  c #193647",
"2  c #252344",
"3  c #2C2642",
"4  c #262B43",
"5  c #2B2A44",
"6  c #2C2D4A",
"7  c #28284C",
"8  c #332542",
"9  c #3B2443",
"0  c #322A45",
"q  c #332C4C",
"w  c #3B2D4E",
"e  c #2D324C",
"r  c #263247",
"t  c #343145",
"y  c #3A344B",
"u  c #35394C",
"i  c #3D3E4D",
"p  c #353549",
"a  c #292A53",
"s  c #362E51",
"d  c #263352",
"f  c #2E3455",
"g  c #2D3853",
"h  c #2B3C5A",
"j  c #333453",
"k  c #3D3252",
"l  c #353953",
"z  c #3B3853",
"x  c #33345C",
"c  c #3C355B",
"v  c #343C5D",
"b  c #3C3A5E",
"n  c #333D62",
"m  c #3C3B62",
"M  c #363867",
"N  c #4B2F42",
"B  c #423845",
"V  c #513C48",
"C  c #432F52",
"Z  c #433353",
"A  c #4A3253",
"S  c #433D5C",
"D  c #483A5A",
"F  c #533C5A",
"G  c #703E4B",
"H  c #653E58",
"J  c #473D68",
"K  c #1B5D59",
"L  c #3D434F",
"P  c #244859",
"I  c #3D4359",
"U  c #39465A",
"Y  c #1F506D",
"T  c #224A6A",
"R  c #2D4769",
"E  c #3D4363",
"W  c #34456A",
"Q  c #3C456C",
"!  c #334B6D",
"~  c #324267",
"^  c #274B71",
"/  c #3C4B73",
"(  c #384D78",
")  c #2C5678",
"_  c #35587C",
"`  c #34576A",
"'  c #3C6063",
"]  c #2A7D77",
"[  c #2A697D",
"{  c #444255",
"}  c #43425A",
"|  c #44495D",
" . c #43505E",
".. c #68434F",
"X. c #434163",
"o. c #434E66",
"O. c #4C4D63",
"+. c #424269",
"@. c #434A6C",
"#. c #4C4869",
"$. c #534D6A",
"%. c #4C556B",
"&. c #4A566E",
"*. c #54556F",
"=. c #545B6D",
"-. c #4B4A73",
";. c #444D7C",
":. c #4B4273",
">. c #554473",
",. c #554D78",
"<. c #495777",
"1. c #4F5974",
"2. c #4A5479",
"3. c #4F5E79",
"4. c #445377",
"5. c #515674",
"6. c #535B74",
"7. c #5A5F74",
"8. c #5A5A7B",
"9. c #614764",
"0. c #7F5B6A",
"q. c #644573",
"w. c #745474",
"e. c #436172",
"r. c #56637B",
"t. c #5A647E",
"y. c #5B6478",
"u. c #62677D",
"i. c #6A667F",
"p. c #697578",
"a. c #814C4D",
"s. c #8A4B5C",
"d. c #835C5C",
"f. c #A5625D",
"g. c #88556F",
"h. c #865E7C",
"j. c #AA6F7D",
"k. c #A77177",
"l. c #395F87",
"z. c #2D6087",
"x. c #3D688B",
"c. c #336587",
"v. c #2B7980",
"b. c #236E90",
"n. c #28799B",
"m. c #584983",
"M. c #495B89",
"N. c #555F86",
"B. c #475892",
"V. c #464B82",
"C. c #744F86",
"Z. c #615E84",
"A. c #77558D",
"S. c #486488",
"D. c #5D6A83",
"F. c #5C6F89",
"G. c #556989",
"H. c #596B97",
"J. c #4C7E9E",
"K. c #527997",
"L. c #636C84",
"P. c #6A6B87",
"I. c #646F88",
"U. c #756C89",
"Y. c #66738E",
"T. c #69738F",
"R. c #6C6397",
"E. c #647592",
"W. c #6A7592",
"Q. c #547CA6",
"!. c #5A7EA8",
"~. c #687FA3",
"^. c #7674A7",
"/. c #86748E",
"(. c #826099",
"). c #9D7E94",
"_. c #B47788",
"`. c #318490",
"'. c #3E9496",
"]. c #3294A8",
"[. c #3FAFBA",
"{. c #2DB4BD",
"}. c #36BCBA",
"|. c #488FAB",
" X c #5B80AE",
".X c #4093AD",
"XX c #5184B3",
"oX c #6786B8",
"OX c #6794BC",
"+X c #53A1B1",
"@X c #4BAAA4",
"#X c #39C8B6",
"$X c #28ACC3",
"%X c #52BCD4",
"&X c #58A6CD",
"*X c #36C6C4",
"=X c #59C3C7",
"-X c #4CE6D7",
";X c #51D8E7",
":X c #58E9F2",
">X c #4DFDFD",
",X c #9F81A1",
"<X c #DBAA88",
"1X c #D3AF9A",
"2X c #CCA9A6",
"3X c None",
/* pixels */
"3X3X3X3X3X3X3X3X3X3X3X3X3X3X3X3X3X3X3X3X3X3X3X3X3X3X3X3X3X3X3X3X",
"3X3X3X3X3X3X3X3X3X3X3X3X3X3X3X3X3X3X3X3X3X3X3X3X3X3X3X3X3X3X3X3X",
"3X3X3X3X3X3X3X3X3X3X3X3X3X3X3X3X3X3X3X3X3X3X3X3X3X3X3X3X3X3X3X3X",
"3X3X3X3X3X3X3X3X3X3X3X3X3X3X3X3X3X3X3X3X3X3X3X3X3X3X3X3X3X3X3X3X",
"3X3X3X3X3X3X3X3X3X3X3X3X3X1X2X).U.P.t.D.D.F.'.%X-X] 3X3X3X3X3X3X",
"3X3X3X3X3X3X3X3X3X3X3X3X0.).)./.P.I.L.L.u.r.F.+X#X] 3X3X3X3X3X3X",
"3X3X3X3X3X3X3X3X3X3X3X3XN.Z.U.P.L.L.u.y.y.%.&.` v.K 3X3X3X3X3X3X",
"3X3X3X3X3X3X3X3X3X3X3X3X2.$.3.r.%.| L L p : : * % 3X3X3X3X3X3X3X",
"3X3X3X3X3X3X3X3X3X3X3Xv Q E 4.3.y.y.7.7. .L y 5 g 3X3X3X3X3X3X3X",
"3X3X3X3X3X3X3X3X3X3Xn W g v E r.r.u.u.=.i 0 9 8 j r 3X3X3X3X3X3X",
"3X3X3X3X3X3X3X3X3X3X( x 4 6 6 M S z { u 3 3 Z 9 q 5 3X3X3X3X3X3X",
"3X3X3X3X3X3X3X3X3XQ Q 5 2 O , , X   o = q e s 9 C & 3X3X3X3X3X3X",
"3X3X3X3X3X3X3X3X3X+.b 5 3 X , ,     o o q 7 6 q A 0 3X3X3X3X3X3X",
"3X3X3X3X3X3X3X3XJ ,.j e 5 O . O .   o + 0 2 6 s A - 3X3X3X3X3X3X",
"3X3X3X3X3X3X3XD A.-.v j 2 , . $ 3X  + - 8 3 j q C - 3X3X3X3X3X3X",
"3X3X3X3X3X3X3XJ (.-.2.m 2 2 < @ 3X& q , - 3 q k A > 3X3X3X3X3X3X",
"3X3X3X3X3X3Xu >.R.M.H.M 7 a d 3X3X* c 8 - & y F H G 3X3X3X3X3X3X",
"3X3X3X3X3X3X} ,.B.Q.B.M 2 7 4 3X3X* 3 8 8 D A w.g.f.3X3X3X3X3X3X",
"3X3X3X3X3X1.l @. XOXl.M 7 6 3X3X3X0 - - y 7.{ h._.<X3X3X3X3X3X3X",
"3X3X3X3X3XH.Q 4.OX XB.M m 3X3X3X3XB - w #.T.$.w.j.<X3X3X3X3X3X3X",
"3X3X3X3XK.B.X.4.OXS.V.M { 3X3X3X3X{ 0 8 #.E.*.9.h.k.3X3X3X3X3X3X",
"3X3X3XS.Q.M.X.<.W.-.M b 3X3X3X3X3Xt 0 = %.W.5.D 9...3X3X3X3X3X3X",
"3X3X3X XoXH.b 1.Y.E s 6 3X3X3X3X3X* 0 t 5.Y.3.S Z > 3X3X3X3X3X3X",
"3X3X3XG.^.R.z 1.E.<.g 3X3X3X3X3X3Xy | } 7.W.8.X.& % 3X3X3X3X3X3X",
"3X3X3X,.^.Z.z | t.o.u U &.=.&. .I } #.| y.P.8.S & = & q j 3X3X3X",
"3X3X3XY.oX~.v s 1.+.l Q F.F.F.r.%.O.$.*.I.I.5.k 8 8 q q k 3X3X3X",
"3X3X3X|.&XOXR d v 6 7 g G.F.r.D.O.{ -.2.W.E.@.Z s w w k k 3X3X3X",
"3X3X3X].;X%Xc.W / W R ^ ) ! U r % & S -.S.S.W m q s m J S 3X3X3X",
"3X3X3X*X>X:X|.c.S.^ z.n.b.Y d 3 o 8 J B.l.W W v q b ! / l 3X3X3X",
"3X3X3X*X>X:X.Xc.x.T n.$X{.`.e.V > F >.S h h M J Z Q _ ) R 3X3X3X",
"3X3X3X' '.+X].l.x.T n.].}.@Xp.d.a.g.q.w e e e k j P c.[ ` 3X3X3X",
"3X3X3X3X3X3X3X3X3X3X3X3X3X3X3X3X3Xs.C.w 0 6 X.c 0 3X3X3X3X3X3X3X",
"3X3X3X3X3X3X3X3X3X3X3X3X3X3X3X3X3Xs.A.D + 3 5 5 $ 3X3X3X3X3X3X3X",
"3X3X3X3X3X3X3X3X3X3X3X3X3X3X3X3X3X3Xq.m.0 & = 6 W 1 3X3X3X3X3X3X",
"3X3X3X3X3X3X3X3X3X3X3X3X3X3X3X3X3X3X>.,.:.q 5 f _ P 3X3X3X3X3X3X",
"3X3X3X3X3X3X3X3X3X3X3X3X3X3X3X3X3X= n d M n m h c.P 3X3X3X3X3X3X",
"3X3X3X3X3X3X3X3X3X3X3X3X3X3X3X3X3X3X# @ % @ r < 1 3X3X3X3X3X3X3X",
"3X3X3X3X3X3X3X3X3X3X3X3X3X3X3X3X3X3X3X3X3X3X3X3X3X3X3X3X3X3X3X3X",
"3X3X3X3X3X3X3X3X3X3X3X3X3X3X3X3X3X3X3X3X3X3X3X3X3X3X3X3X3X3X3X3X",
"3X3X3X3X3X3X3X3X3X3X3X3X3X3X3X3X3X3X3X3X3X3X3X3X3X3X3X3X3X3X3X3X"
};
