/* XPM */
static char *result[] = {
/* columns rows colors chars-per-pixel */
"32 40 211 2 ",
"   c #18172D",
".  c #1C1C3C",
"X  c #1C1633",
"o  c #2B1D34",
"O  c #281E3B",
"+  c #301F3D",
"@  c #1D2939",
"#  c #1A2635",
"$  c #24263D",
"%  c #2B243C",
"&  c #2B2639",
"*  c #31293C",
"=  c #261F46",
"-  c #0C2B44",
";  c #1C2142",
":  c #0F3953",
">  c #232244",
",  c #2A2542",
"<  c #2B2B44",
"1  c #26294C",
"2  c #2E2E4C",
"3  c #242849",
"4  c #322744",
"5  c #312B46",
"6  c #342C4C",
"7  c #392A46",
"8  c #35344D",
"9  c #393B4A",
"0  c #252B54",
"q  c #292A51",
"w  c #372E55",
"e  c #2C3154",
"r  c #243B52",
"t  c #2A3A5C",
"y  c #323453",
"u  c #32305D",
"i  c #353A5C",
"p  c #393657",
"a  c #243D44",
"s  c #2D3F64",
"d  c #3B3C61",
"f  c #3B3B6B",
"g  c #373A66",
"h  c #462C4A",
"j  c #402E51",
"k  c #493857",
"l  c #513E4E",
"z  c #62394D",
"x  c #433C64",
"c  c #483766",
"v  c #4B3F70",
"b  c #5E3E71",
"n  c #513C66",
"m  c #194855",
"M  c #2E4046",
"N  c #2B435D",
"B  c #37435C",
"V  c #17546A",
"C  c #2B4565",
"Z  c #284669",
"A  c #334B66",
"S  c #3B416B",
"D  c #394869",
"F  c #20506A",
"G  c #3A4673",
"H  c #37567A",
"J  c #305572",
"K  c #0B6D6D",
"L  c #206364",
"P  c #256975",
"I  c #38687C",
"U  c #42495A",
"Y  c #425455",
"T  c #494C65",
"R  c #444D6B",
"E  c #4D4E6D",
"W  c #414268",
"Q  c #44516B",
"!  c #4A5B6C",
"~  c #4C536C",
"^  c #56556C",
"/  c #434373",
"(  c #434C7B",
")  c #4A4A78",
"_  c #56467B",
"`  c #4C5E7C",
"'  c #475977",
"]  c #525573",
"[  c #545B73",
"{  c #5C5C73",
"}  c #575A7C",
"|  c #524E66",
" . c #63497F",
".. c #695C79",
"X. c #735879",
"o. c #774C71",
"O. c #4F6577",
"+. c #4C637C",
"@. c #5B627D",
"#. c #54627C",
"$. c #64657E",
"%. c #6F677D",
"&. c #945A63",
"*. c #895A6A",
"=. c #8E6B78",
"-. c #B87970",
";. c #0F826C",
":. c #C28C7E",
">. c #3C5C88",
",. c #167A86",
"<. c #2D6485",
"1. c #39678A",
"2. c #2A7A98",
"3. c #376C9A",
"4. c #3A7FA1",
"5. c #5D4C81",
"6. c #475685",
"7. c #53518C",
"8. c #55588A",
"9. c #515C94",
"0. c #69578C",
"q. c #7E568E",
"w. c #704D86",
"e. c #4B6488",
"r. c #5B6683",
"t. c #5B6B83",
"y. c #576787",
"u. c #5D738D",
"i. c #596694",
"p. c #417A91",
"a. c #597498",
"s. c #437789",
"d. c #636982",
"f. c #626B8A",
"g. c #656787",
"h. c #766783",
"j. c #65738F",
"k. c #7D7184",
"l. c #6C7995",
"z. c #697397",
"x. c #727997",
"c. c #676F93",
"v. c #6678A6",
"b. c #7A75A4",
"n. c #836480",
"m. c #9F7A87",
"M. c #88609E",
"N. c #807B95",
"B. c #AB7C81",
"V. c #8B71AD",
"C. c #A977BC",
"Z. c #11968C",
"A. c #159290",
"S. c #3B9899",
"D. c #2695A2",
"F. c #289EB5",
"G. c #378CA0",
"H. c #0EB0A3",
"J. c #28BBB3",
"K. c #28A7BF",
"L. c #468B96",
"P. c #6E9F94",
"I. c #7D869E",
"U. c #5B96B7",
"Y. c #5797A6",
"T. c #7581B0",
"R. c #7284A8",
"E. c #50B5B3",
"W. c #65A6B6",
"Q. c #11DFBE",
"!. c #18E8B2",
"~. c #3ABECA",
"^. c #5991C6",
"/. c #6793C1",
"(. c #5EA4CE",
"). c #77A2D7",
"_. c #69B3DE",
"`. c #4AB5EC",
"'. c #6DB5E8",
"]. c #33CFD2",
"[. c #17EBC3",
"{. c #17E0DD",
"}. c #0EF6C3",
"|. c #1BEBE6",
" X c #3FFCF3",
".X c #5DC3DF",
"XX c #56D5D6",
"oX c #52D0D1",
"OX c #59E5DA",
"+X c #60ECDB",
"@X c #4DCDE1",
"#X c #5BDBE7",
"$X c #65C8EA",
"%X c #52ECE5",
"&X c #5BF1EA",
"*X c #59F1E4",
"=X c #46EDF7",
"-X c #63EEE1",
";X c #A18291",
":X c #988AA6",
">X c #8D8BB3",
",X c #AE96A3",
"<X c #91B3AF",
"1X c #C99F88",
"2X c #E4BE91",
"3X c #D2AEA9",
"4X c #E8CBA2",
"5X c #8399C9",
"6X c #D5CCC9",
"7X c #C7EBE0",
"8X c None",
/* pixels */
"8X8X8X8X8X8X8X8X8X8X8X8X8X8X8X8X8X8X8X8X8X8X8X8X8X8X8X8X8X8X8X8X",
"8X8X8X8X8X8X8X8X8X8X8X8X8X8X8X8X8X8X8X8X8X8X8X8X8X8X8X8X8X8X8X8X",
"8X8X8X8X8X8X8X8X8X8X8X8X8X8X8X8X8X8X8X8X8X8X8X8X8X8X8X8X8X8X8X8X",
"8X8X8X8X8X8X8X8X8X8X8X8X8X8X8X8X8X8X8X8X8X8X8X8X8X8X8X8X8X8X8X8X",
"8X8X8X8X8X8X<X7X6X,X>X5X)._.`.#X&X*X*X*X&X&X*XOXXXL.M 8X8X8X8X8X",
"8X8X8X8X8X8XP.<X:X:X>X/.).'.$X#X#XXXOXOX-XOXoXE.L.N @ 8X8X8X8X8X",
"8X8X8X8X8X8XY u.b.V.b.v.R./.U.(.^.U.U.W.W.Y.s.+.A B < 8X8X8X8X8X",
"8X8X8X8X8X8XM ` 0.} i.z.j.v.a.a.e.e.+.+.' N r B t y $ 8X8X8X8X8X",
"8X8X8X8X8X8Xy.v.f w E c.y.d e q ; . , % , < < p 8 6 % 8X8X8X8X8X",
"8X8X8X8X8X8X9.7.c q i 8.f > > . . X o o o O % k 6 4 % 8X8X8X8X8X",
"8X8X8X8X8X8X7.5.c w f 6.s > > @ q = + o o o o h 4 4 & 8X8X8X8X8X",
"8X8X8X8X8X8Xc b c c 7./ 1   8X8X8X8X8X8X8X8X8X8X8X8X8X8X8X8X8X8X",
"8X8X8X8X8X8XX.q.b c 0.d 3 8X8X8X8X8X8X8X8X8X8X8X8X8X8X8X8X8X8X8X",
"8X8X8X8X8X8X.. .w.5.T.6.e 8X8X8X8X8X8X8X8X8X8X8X8X8X8X8X8X8X8X8X",
"8X8X8X8X8X8XW 7.w.M.b.a.s 8X8X8X8X8X8X8X8X8X8X8X8X8X8X8X8X8X8X8X",
"8X8X8X8X8X8X( i. .C.7.9.s > i Q ` #.f.r.^ U 8X8X8X8X8X8X8X8X8X8X",
"8X8X8X8X8X8X' i.w.M.f f g 1 i #.#.@.f.j.$.[ ~ T 8X8X8X8X8X8X8X8X",
"8X8X8X8X8X8Xa.i.0.5.G g u > > R @.r.d.d.$.@.[ [ %.8X8X8X8X8X8X8X",
"8X8X8X8X8X8Xx.) v _ f f u q 3 0 y B [ $.f.d.{ { n.&.8X8X8X8X8X8X",
"8X8X8X8X8X8Xj./ g v f ( u u 0 q .   & j d.x.d...*.-.2X8X8X8X8X8X",
"8X8X8X8X8X8X{ T T ) G 9.S y 8 e $   o 7 ^ I.I.k.=.:.4X8X8X8X8X8X",
"8X8X8X8X8X8X8Xl 9 R D 8X8X8X8X8X8X8X* 8 8 E x.%.o.&.B.B.8X8X8X8X",
"8X8X8X8X8X8X8X8X8X8X8X8X8X8X8X8X8X8X8X* p p ] $.z z X.%.8X8X8X8X",
"8X8X8X8X8X8X8X8X8X8X8X8X8X8X8X8X8X8X8X8X8 e S @.l h T k 8X8X8X8X",
"8X8X8X8X8X8X8X8X8X8X8X8X8X8X8X8X8X8X8X8X< 4 8 } k + 7 6 8X8X8X8X",
"8X8X8X8X8X8X4X8X8X8X8X8X8X8X8X8X8X8X8X8X& , 5 ^ k 4 6 6 8X8X8X8X",
"8X8X8X8X8X8X3X1X8X8X8X8X8X8X8X8X8X8X8X8X2 e p ~ h p f C 8X8X8X8X",
"8X8X8X8X8X8Xm.;X=.8X8X8X8X8X8X8X8X8X8X3 S u R W j p >.H 8X8X8X8X",
"8X8X8X8X8X8Xh.N.N.x.U 8X8X8X8X8X8X8X9 B D R R 6 y G G.I 8X8X8X8X",
"8X8X8X8X8X8X] ] d.l.t.t.O.Q B 8X9 B 8.f.~ T 5 7 W 6.G.8X8X8X8X8X",
"8X8X8X8X8X8XD G D y.t.u.u.u.y.! ! ! z.z.R 8 % 2 D 1.P 8X8X8X8X8X",
"8X8X8X8X8X# C Z Z H A e.u.u.y.O.+.+.v.^.Z e e ( >.1.8X8X8X8X8X8X",
"8X8X8X8X8X8Xr F <.<.Z Z A H ' D A N 3.`.2.t t C C 8X8X8X8X8X8X8X",
"8X8X8X8X8X8X8Xm D.F.,.V F F m - - : D. X@XJ Z r 8X8X8X8X8X8X8X8X",
"8X8X8X8X8X8X8X8XL J.@X~.K.F.,.V K H.[. X@X4.# 8X8X8X8X8X8X8X8X8X",
"8X8X8X8X8X8X8X8X8X8XS.].{.|.|.[.[.}.!.J.P 8X8X8X8X8X8X8X8X8X8X8X",
"8X8X8X8X8X8X8X8X8X8X8X8X8X,.A.Z.Z.;.8X8X8X8X8X8X8X8X8X8X8X8X8X8X",
"8X8X8X8X8X8X8X8X8X8X8X8X8X8X8X8X8X8X8X8X8X8X8X8X8X8X8X8X8X8X8X8X",
"8X8X8X8X8X8X8X8X8X8X8X8X8X8X8X8X8X8X8X8X8X8X8X8X8X8X8X8X8X8X8X8X",
"8X8X8X8X8X8X8X8X8X8X8X8X8X8X8X8X8X8X8X8X8X8X8X8X8X8X8X8X8X8X8X8X"
};
