/* XPM */
static char *result[] = {
/* columns rows colors chars-per-pixel */
"32 40 224 2 ",
"   c #191629",
".  c #1D1C3C",
"X  c #1E1A36",
"o  c #241D2E",
"O  c #281C2F",
"+  c #2A1D34",
"@  c #261D37",
"#  c #301F39",
"$  c #1F2037",
"%  c #1A323E",
"&  c #2B223A",
"*  c #2B2637",
"=  c #31253E",
"-  c #0E354E",
";  c #232245",
":  c #262A44",
">  c #2B2E47",
",  c #2B2D4C",
"<  c #272647",
"1  c #352543",
"2  c #312941",
"3  c #382B4C",
"4  c #372B48",
"5  c #2D314D",
"6  c #24354D",
"7  c #32304C",
"8  c #363242",
"9  c #252F51",
"0  c #282C55",
"q  c #332F50",
"w  c #382E50",
"e  c #2C3655",
"r  c #2E345D",
"t  c #2A3758",
"y  c #343455",
"u  c #3C3453",
"i  c #333B5C",
"p  c #393A5E",
"a  c #393757",
"s  c #2D3663",
"d  c #343D63",
"f  c #3B3D63",
"g  c #383965",
"h  c #2E3E71",
"j  c #393F70",
"k  c #4B2F48",
"l  c #423554",
"z  c #473A59",
"x  c #5E3C50",
"c  c #723C4A",
"v  c #413B64",
"b  c #214F59",
"n  c #3A455D",
"m  c #2F4269",
"M  c #284968",
"N  c #334364",
"B  c #3B4264",
"V  c #39476A",
"C  c #285768",
"Z  c #3C4271",
"A  c #384C76",
"S  c #295574",
"D  c #345476",
"F  c #3C5679",
"G  c #2F4C78",
"H  c #107D7A",
"J  c #0D6D75",
"K  c #2A6778",
"L  c #3B6478",
"P  c #31667B",
"I  c #35787B",
"U  c #484B5D",
"Y  c #684A59",
"T  c #794D5D",
"R  c #424964",
"E  c #43436B",
"W  c #4A436B",
"Q  c #4D4864",
"!  c #5A4D66",
"~  c #495167",
"^  c #4D546D",
"/  c #485567",
"(  c #53596D",
")  c #52546D",
"_  c #4A4B78",
"`  c #584778",
"'  c #4B527E",
"]  c #475876",
"[  c #545775",
"{  c #585B76",
"}  c #69576B",
"|  c #645B75",
" . c #6C5472",
".. c #55647B",
"X. c #64657B",
"o. c #945D56",
"O. c #A35E5F",
"+. c #88586A",
"@. c #815E78",
"#. c #876174",
"$. c #B1706D",
"%. c #128D7D",
"&. c #BF8D72",
"*. c #C3896F",
"=. c #385980",
"-. c #1D7C93",
";. c #2B6C84",
":. c #276886",
">. c #346483",
",. c #3B678E",
"<. c #386D94",
"1. c #287A97",
"2. c #33778D",
"3. c #414B81",
"4. c #524D80",
"5. c #475A83",
"6. c #475787",
"7. c #595183",
"8. c #585987",
"9. c #585690",
"0. c #615383",
"q. c #695D8C",
"w. c #645B8D",
"e. c #605D91",
"r. c #46638B",
"t. c #48658B",
"y. c #5B6482",
"u. c #586686",
"i. c #54778F",
"p. c #4E6F92",
"a. c #586C96",
"s. c #4E7698",
"d. c #567893",
"f. c #4B748C",
"g. c #656A82",
"h. c #696B84",
"j. c #656887",
"k. c #68708F",
"l. c #6C6C92",
"z. c #6C6296",
"x. c #726091",
"c. c #697599",
"v. c #757993",
"b. c #776687",
"n. c #5B7DAE",
"m. c #6C7CA2",
"M. c #667AA7",
"N. c #7377A1",
"B. c #696EA8",
"V. c #916D80",
"C. c #927587",
"Z. c #85718C",
"A. c #0F838D",
"S. c #129489",
"D. c #1B8B8D",
"F. c #268998",
"G. c #358695",
"H. c #3895A5",
"J. c #328FB0",
"K. c #3C8CAC",
"L. c #15BCB9",
"P. c #20B7BB",
"I. c #46839B",
"U. c #6B8896",
"Y. c #409BA2",
"T. c #5B8BB9",
"R. c #529FB3",
"E. c #578AAA",
"W. c #7D81AE",
"Q. c #638FBD",
"!. c #7C8DB9",
"~. c #6F8DAA",
"^. c #48ACAF",
"/. c #61B8BF",
"(. c #12C7B2",
"). c #25C3BC",
"_. c #0EEFB6",
"`. c #10E9BE",
"'. c #53C9BE",
"]. c #6C98C7",
"[. c #7090C0",
"{. c #678EC7",
"}. c #5BA8C8",
"|. c #4DA8DF",
" X c #59B6D3",
".X c #53BEC7",
"XX c #70A0C5",
"oX c #63BFC1",
"OX c #79B0DD",
"+X c #74B5E3",
"@X c #2FC9C6",
"#X c #1FF4D3",
"$X c #1EE2E1",
"%X c #1FFCF1",
"&X c #17F1E1",
"*X c #26F2EA",
"=X c #4CCCCA",
"-X c #52CBC9",
";X c #52DBD8",
":X c #61C9C6",
">X c #57E0DB",
",X c #5CC9E2",
"<X c #66D0F2",
"1X c #52EDE6",
"2X c #5AE8E4",
"3X c #5BF8E8",
"4X c #43FFFE",
"5X c #54F7F3",
"6X c #59F9F7",
"7X c #49E5F4",
"8X c #60FCEF",
"9X c #60E9F6",
"0X c #8C829A",
"qX c #B78C89",
"wX c #A98085",
"eX c #8589B9",
"rX c #9780A8",
"tX c #AE8DAD",
"yX c #D0A89C",
"uX c #E9C695",
"iX c #919FCB",
"pX c #A0AEDE",
"aX c #95B6E8",
"sX c None",
/* pixels */
"sXsXsXsXsXsXsXsXsXsXsXsXsXsXsXsXsXsXsXsXsXsXsXsXsXsXsXsXsXsXsXsX",
"sXsXsXsXsXsXsXsXsXsXsXsXsXsXsXsXsXsXsXsXsXsXsXsXsXsXsXsXsXsXsXsX",
"sXsXsXsXsXsXsXsXsXsXsXsXsXsXsXsXsXsXsXsXsXsXsXsXsXsXsXsXsXsXsXsX",
"sXsXsXsXsXsXsXsXsXsXsXsXsXsXsXsXsXsXsXsXsXsXsXsXsXsXsXsXsXsXsXsX",
"sXsXsXsXsXsXsXsXsXsXsXi.R..X;X1X1X2X>X-X^.G.sXsXsXsXsXsXsXsXsXsX",
"sXsXsXsXsXsXsXsXsXC.eX+X<X9X6X5X1X3X3X3X3X3X'.I sXsXsXsXsXsXsXsX",
"sXsXsXsXsXsXsXsXyXtXN.Q.}. X,X X}./.oX:X'.'.'.H.C sXsXsXsXsXsXsX",
"sXsXsXsXsXsXsXqXtXrXN.~.{.T.T.s.p.i.i.f.L P I K D 6 sXsXsXsXsXsX",
"sXsXsXsXsXsX} @.V.b.z.c.a.t.N 9 < 7 5 e t M D D D y sXsXsXsXsXsX",
"sXsXsXsXsXsX8.| Q | l.u.i ; . . X + * + * y E d V : sXsXsXsXsXsX",
"sXsXsXsXsXr.' W Q a.m.i ; ; ; < @ @ O O + 4 z w V > sXsXsXsXsXsX",
"sXsXsXsXsXa.v v ' [.r.0 0 ; X sXsXsXsXsX  * 1 4 y sXsXsXsXsXsXsX",
"sXsXsXsXU.iX` j n.OXG s ; sXsXsXsXsXsXsXsXsX* &   sXsXsXsXsXsXsX",
"sXsXsXsX!.eX` 9.].].h e sXsXsXsXsXsXsXsXsXsXsXo * sXsXsXsXsXsXsX",
"sXsXsXsX..7.9.B.aX~.0 X sXsXsXsXsXsXsXsXsXsXsXsXsXsXsXsXsXsXsXsX",
"sXsXsXsXQ _ 8.B.pXc.p sXsXsXn / ^ ..( U sXsXsXsXsXsXsXsXsXsXsXsX",
"sXsXsXsXe.4.4.z.eXc.R sXR t.u.y.u.k.c.h.{ ) U sXsXsXsXsXsXsXsXsX",
"sXsXsXsX7.w.7.q.c.m.R i ] u.u...y.X.h.g...( |  .sXsXsXsXsXsXsXsX",
"sXsXsXsXq.z.g v y.M.6.h t R [ ....X.X.h.X.[ | #.$.sXsXsXsXsXsXsX",
"sXsXsXsXx.0.w v ` 6.6.s s ; 9 : 5 u ~ h.v.X.| +.$.uXsXsXsXsXsXsX",
"sXsXsXsX| 7.p g E Z 3.s 0 ; ;     @ + l j.h.| T O.*.sXsXsXsXsXsX",
"sXsXsXsXq.0.g p g Z j r < 4 & $ o 4 & 1 u [ ! x c +.+.sXsXsXsXsX",
"sXsXsXsXq.z.d d r g f y : sXsXsXsXsX* 2 q y l k k  .} sXsXsXsXsX",
"sXsXsXsXl.e.d m V Z f 8 sXsXsXsXsXsXsX* q a u l 1 l l sXsXsXsXsX",
"sXsXsXsXl.{ e A 6.' W sXsXsXsXsXsXsXsXsX2 3 Q z = = = sXsXsXsXsX",
"sXsXsXsXa.w.9 =.r.[ Y sXsXsXsXsXsXsXsXsX& 1 ) U 2 w 3 sXsXsXsXsX",
"sXsXsXsXd.] > V ~ Y o.sXsXsXsXsXsXsXsXsX, 5 { z u f p sXsXsXsXsX",
"sXsXsXsX] t., ] U.0XqXsXsXsXsXsXsXsXsXsXt n 8.u q A D sXsXsXsXsX",
"sXsXsXsXsXE.V W X.0XwX*.sXsXsXsXsXsXsXi B [ ^ 7 d <.P sXsXsXsXsX",
"sXsXsXsXsXI.D R z X.C.C.#.sXsXsXsXsXR U ~ ^ u v F H.K sXsXsXsXsX",
"sXsXsXsXsXC <.F f u h.v.v.../ L ] N.a.[ ^ 5 y V <.H.sXsXsXsXsXsX",
"sXsXsXsXsXsXM <.D M D f.~.i.....u.[.{.] d d 6.,.K.I sXsXsXsXsXsX",
"sXsXsXsXsXsXsX1.;.:.1.-.1.:.F L ] T.|.:.S C S ;.;.sXsXsXsXsXsXsX",
"sXsXsXsXsXsXsXb 1.F.D.).P.:.- - - J.7X=XF.:.S M sXsXsXsXsXsXsXsX",
"sXsXsXsXsXsXsXsXsXG.@X%X%X(.J J A.@X4X5XH.I % sXsXsXsXsXsXsXsXsX",
"sXsXsXsXsXsXsXsXsXsXD.P.$X&X`._._.#X$X).C sXsXsXsXsXsXsXsXsXsXsX",
"sXsXsXsXsXsXsXsXsXsXsXsXsXH S.S.%.%.sXsXsXsXsXsXsXsXsXsXsXsXsXsX",
"sXsXsXsXsXsXsXsXsXsXsXsXsXsXsXsXsXsXsXsXsXsXsXsXsXsXsXsXsXsXsXsX",
"sXsXsXsXsXsXsXsXsXsXsXsXsXsXsXsXsXsXsXsXsXsXsXsXsXsXsXsXsXsXsXsX",
"sXsXsXsXsXsXsXsXsXsXsXsXsXsXsXsXsXsXsXsXsXsXsXsXsXsXsXsXsXsXsXsX"
};
