/* XPM */
static char *result[] = {
/* columns rows colors chars-per-pixel */
"32 40 196 2 ",
"   c #0D1A2D",
".  c #131324",
"X  c #131529",
"o  c #1C172D",
"O  c #15192D",
"+  c #0E1B32",
"@  c #1C1B33",
"#  c #1C1B3A",
"$  c #171E36",
"%  c #251C2F",
"&  c #231C34",
"*  c #2B1D36",
"=  c #231C3C",
"-  c #261938",
";  c #301F3B",
":  c #0C223C",
">  c #1F2133",
",  c #12243B",
"<  c #1D233B",
"1  c #16273B",
"2  c #232336",
"3  c #23253C",
"4  c #2C233D",
"5  c #262A3D",
"6  c #31223B",
"7  c #37263E",
"8  c #271E44",
"9  c #1A2946",
"0  c #0F334F",
"q  c #113248",
"w  c #113A57",
"e  c #2B2542",
"r  c #242A43",
"t  c #2B2C45",
"y  c #242D4A",
"u  c #2C2B4B",
"i  c #24264A",
"p  c #332643",
"a  c #322B45",
"s  c #332C4C",
"d  c #3B2B4A",
"f  c #3B2542",
"g  c #21314D",
"h  c #29324D",
"j  c #2D394E",
"k  c #32334E",
"l  c #3A384D",
"z  c #2C2D55",
"x  c #242B52",
"c  c #332E52",
"v  c #3D2E56",
"b  c #233354",
"n  c #2E3454",
"m  c #2D3956",
"M  c #26385E",
"N  c #353C51",
"B  c #37345B",
"V  c #393A59",
"C  c #1D3F67",
"Z  c #243D64",
"A  c #393E71",
"S  c #353666",
"D  c #56344C",
"F  c #443558",
"G  c #4D314A",
"H  c #453564",
"J  c #473C66",
"K  c #503362",
"L  c #413F74",
"P  c #27414A",
"I  c #344054",
"U  c #3B4259",
"Y  c #3F4C5D",
"T  c #394156",
"R  c #164B6B",
"E  c #194C73",
"W  c #20456B",
"Q  c #35456A",
"!  c #3C4074",
"~  c #2F5C74",
"^  c #375877",
"/  c #31546A",
"(  c #14657D",
")  c #534258",
"_  c #72404B",
"`  c #74455A",
"'  c #484967",
"]  c #4B536B",
"[  c #53576B",
"{  c #524B79",
"}  c #4B5F7D",
"|  c #4E5678",
" . c #555B72",
".. c #654866",
"X. c #62556F",
"o. c #7B596E",
"O. c #7F457D",
"+. c #5C6275",
"@. c #58647B",
"#. c #5E697E",
"$. c #65697E",
"%. c #60677B",
"&. c #82454E",
"*. c #884957",
"=. c #9C5A5A",
"-. c #B7715E",
";. c #884972",
":. c #9F6467",
">. c #836677",
",. c #A86960",
"<. c #A07270",
"1. c #C79C7F",
"2. c #DCAD78",
"3. c #1B5F81",
"4. c #1D6284",
"5. c #1C7497",
"6. c #276281",
"7. c #3F698A",
"8. c #3A669D",
"9. c #1E7CA6",
"0. c #3179A7",
"q. c #5E4C88",
"w. c #555B82",
"e. c #4F6480",
"r. c #596986",
"t. c #566A90",
"y. c #5C7591",
"u. c #597896",
"i. c #477285",
"p. c #646F86",
"a. c #696E86",
"s. c #686A88",
"d. c #756F88",
"f. c #617187",
"g. c #676194",
"h. c #627790",
"j. c #577DA2",
"k. c #4478B0",
"l. c #6977AA",
"z. c #85589E",
"x. c #8F7689",
"c. c #9D629F",
"v. c #1C9598",
"b. c #2C8E92",
"n. c #2B9593",
"m. c #349393",
"M. c #348984",
"N. c #268DA3",
"B. c #3C85B7",
"V. c #3C90B6",
"C. c #3CABAA",
"Z. c #46818F",
"A. c #459798",
"S. c #5F9A9A",
"D. c #6B839D",
"F. c #7B8891",
"G. c #5384A7",
"H. c #5B9ABC",
"J. c #6A8ABA",
"K. c #5FA4B8",
"L. c #6BA0B3",
"P. c #18A7C0",
"I. c #26B7C8",
"U. c #6283C5",
"Y. c #669EC5",
"T. c #5EA9CE",
"R. c #52BCCE",
"E. c #5BB0D2",
"W. c #6ABFDD",
"Q. c #3DDED9",
"!. c #36E2ED",
"~. c #29F6F5",
"^. c #55CED5",
"/. c #77D4DC",
"(. c #66D2D5",
"). c #60E1DF",
"_. c #43DFF1",
"`. c #78DDF4",
"'. c #65D8F1",
"]. c #4EEDE9",
"[. c #58EAE7",
"{. c #46E8F4",
"}. c #59F1F3",
"|. c #6DEEED",
" X c #60EEEE",
".X c #76EFEF",
"XX c #66F7FC",
"oX c #72F3FD",
"OX c #859BAF",
"+X c #888BB7",
"@X c #BEB6B2",
"#X c #C1A99C",
"$X c #C5AFA4",
"%X c #ACBFCA",
"&X c #94C3CD",
"*X c None",
/* pixels */
"*X*X*X*X*X*X*X*X*X*X*X*X*X*X*X*X*X*X*X*X*X*X*X*X*X*X*X*X*X*X*X*X",
"*X*X*X*X*X*X*X*X*X*X*X*X*X*X*X*X*X*X*X*X*X*X*X*X*X*X*X*X*X*X*X*X",
"*X*X*X*X*X*X*X*X*X*X*X*X*X*X*X*X*X*X*X*X*X*X*X*X*X*X*X*X*X*X*X*X",
"*X*X*X*X*X*X*X*X*X*X*X*X*X*X*X*X*X*X*X*X*X*X*X*X*X*X*X*X*X*X*X*X",
"*X*X*X*X*X*X*X*X*X*X*X*X*X*X*X*X*X*X*X*X*X*X*X*X*X*X*X*X*X*X*X*X",
"*X*X*X*X*X@X&X/.).[.|..X|. X}.[.R.G.h.r.#.@.@.u.K.).].C.*X*X*X*X",
"*X*X*X*X*X#Xx.D.H.W.`.`.oXXXXX}.R.G.h.f.f.$.@.r.i.M.n.*X*X*X*X*X",
"*X*X*X*X*X=.` ..g.l.J.J.Y.Y.T.E.H.j.h.h.a.%. . ./ P *X*X*X*X*X*X",
"*X*X*X*X*X;.;.;.K L { w.t.t.u.j.u.f.f.$.$.+. .] ] ~ ~ M *X*X*X*X",
"*X*X*X*X*Xc.z.q.L A A S z u z x m T [ +.$.%.' l m Q ' k *X*X*X*X",
"*X*X*X*X*X+XU.k.B.0.k.8.Z i # # # o 6 l  .[ d d u c s a *X*X*X*X",
"*X*X*X*X*XL.'._.{.!.{.V.Z x # 8 8 8 6 4 k a f G 4 a 6 & *X*X*X*X",
"*X*X*X*X*X*XA.m.n.n.b./ 9 9 o & - o & 4 4 4 ; ; f F e *X*X*X*X*X",
"*X*X*X*X*X*X*X*X*X*X*X*X*X*X*X*X*X*X% & 6 ; * ; d { k *X*X*X*X*X",
"*X*X*X*X*X*X*X*X*X*X*X*X*X*X*X*X*X*X6 * p a e p d { *X*X*X*X*X*X",
"*X*X*X*X*X*X*X*X*X*X*X*X*X*X*X*X*X& & 4 B n z a v V *X*X*X*X*X*X",
"*X*X*X*X*X*X*X*X*X*X*X*X*X*X*X*X*X= s n / ^ B d d *X*X*X*X*X*X*X",
"*X*X*X*X*X*X*X*X*X*X*X*X*X*X*X*X& = c ! ^ ^ ' D D *X*X*X*X*X*X*X",
"*X*X*X*X*X*X*X*X*X*X*X*X*X*X*X*X& = 3 Q 7.e...*.&.*X*X*X*X*X*X*X",
"*X*X*X*X*X*X*X*X*X*X*X*X*X*X*X2 $ @ l } } X.*.-.*X*X*X*X*X*X*X*X",
"*X*X*X*X*X*X*X*X*X*X*X*X*X*X*Xm $ 3 [ r.s.>.,.2.*X*X*X*X*X*X*X*X",
"*X*X*X*X*X*X*X*X*X*X*X*X*X*XU b # N s. .s.o.:.*X*X*X*X*X*X*X*X*X",
"*X*X*X*X*X*X*X*X*X*X*X*X*X*Xt 9 < ' ] u F D _ *X*X*X*X*X*X*X*X*X",
"*X*X*X*X*X*X*X*X*X*X*X*X*X2 9 r t ] ' t d G *X*X*X*X*X*X*X*X*X*X",
"*X*X*X*X*X*X*X*X*X*X*X*X*X5 < 9 I U J s p 7 *X*X*X*X*X*X*X*X*X*X",
"*X*X*X*X*X*X*X*X*X*X*X*X2 5 t j Y e v 4 t *X*X*X*X*X*X*X*X*X*X*X",
"*X*X*X*X*X*X*X*X*X*X*X*Xr r r U T @ v d 2 *X*X*X*X*X*X*X*X*X*X*X",
"*X*X*X*X*X*X*X*X*X*X*X1 h 3 5 ' t = H J *X*X*X*X*X*X*X*X*X*X*X*X",
"*X*X*X*X*X*X*X*X*X*X*Xb g < N N X & v c *X*X*X*X*X*X*X*X*X*X*X*X",
"*X*X*X*X*X*X*X*X*X*X1 M h r Y > . o B *X*X*X*X*X*X*X*X*X*X*X*X*X",
"*X*X*X*X*X*X*X*X*X*Xg y h j N X . 3 B *X*X*X*X*X*X*X*X*X*X*X*X*X",
"*X*X*X*X*X*X*X*X*X2 h y b 0 $   X @ *X*X*X*X*X*X*X*X*X*X*X*X*X*X",
"*X*X*X*X*X*X*X*X*Xa m M R Z : + ,   *X*X*X*X*X*X*X*X*X*X*X*X*X*X",
"*X*X*X*X*X*X*X*X*X) / ~ 4.E q : : *X*X*X*X*X*X*X*X*X*X*X*X*X*X*X",
"*X*X*X*X*X*X*X*X<.d.Z.b.N.4.0 : , *X*X*X*X*X*X*X*X*X*X*X*X*X*X*X",
"*X*X*X*X*X*X*X*X$XOX(._.I.5.w , *X*X*X*X*X*X*X*X*X*X*X*X*X*X*X*X",
"*X*X*X*X*X*X*X#X%X/.XX~.P.9.R , *X*X*X*X*X*X*X*X*X*X*X*X*X*X*X*X",
"*X*X*X*X*X*X*X>.F.S.A.v.( R q *X*X*X*X*X*X*X*X*X*X*X*X*X*X*X*X*X",
"*X*X*X*X*X*X*X*X*X*X*X*X*X*X*X*X*X*X*X*X*X*X*X*X*X*X*X*X*X*X*X*X",
"*X*X*X*X*X*X*X*X*X*X*X*X*X*X*X*X*X*X*X*X*X*X*X*X*X*X*X*X*X*X*X*X"
};
