/* XPM */
static char *result[] = {
/* columns rows colors chars-per-pixel */
"32 40 214 2 ",
"   c #17152C",
".  c #18172B",
"X  c #1C1B36",
"o  c #2B1D35",
"O  c #2C1E3A",
"+  c #221B36",
"@  c #1D2236",
"#  c #182C32",
"$  c #24233C",
"%  c #282638",
"&  c #32233D",
"*  c #21373F",
"=  c #522C3D",
"-  c #1D1F41",
";  c #221F40",
":  c #1D3944",
">  c #0F3951",
",  c #232345",
"<  c #252B44",
"1  c #2C2B4A",
"2  c #282D47",
"3  c #342645",
"4  c #3A2743",
"5  c #322B44",
"6  c #342B4B",
"7  c #3B2C4B",
"8  c #372B46",
"9  c #283649",
"0  c #32314A",
"q  c #3B334B",
"w  c #343043",
"e  c #2E2C50",
"r  c #322D52",
"t  c #392F58",
"y  c #253256",
"u  c #2D3554",
"i  c #2D375B",
"p  c #3B3553",
"a  c #3C3C55",
"s  c #3B345A",
"d  c #323B5B",
"f  c #3B3D5B",
"g  c #343557",
"h  c #3D3C61",
"j  c #383A64",
"k  c #283C68",
"l  c #40314B",
"z  c #4C374D",
"x  c #583346",
"c  c #433B53",
"v  c #453657",
"b  c #543A59",
"n  c #432E4E",
"m  c #623548",
"M  c #7A3A43",
"N  c #473C66",
"B  c #1F494C",
"V  c #264754",
"C  c #3B425D",
"Z  c #384354",
"A  c #244D50",
"S  c #105167",
"D  c #294966",
"F  c #324163",
"G  c #394362",
"H  c #39486A",
"J  c #2A586B",
"K  c #3B5263",
"L  c #3D5477",
"P  c #335073",
"I  c #0A6E6D",
"U  c #2C687E",
"Y  c #386877",
"T  c #3C706C",
"R  c #47445D",
"E  c #5A4658",
"W  c #684659",
"Q  c #434A62",
"!  c #4B446C",
"~  c #454E6A",
"^  c #484966",
"/  c #52476A",
"(  c #4A546C",
")  c #455568",
"_  c #52526B",
"`  c #505A6F",
"'  c #4C4776",
"]  c #464D73",
"[  c #584B79",
"{  c #4A5372",
"}  c #4D5B73",
"|  c #485877",
" . c #535B73",
".. c #5B5E74",
"X. c #5A5875",
"o. c #625976",
"O. c #664777",
"+. c #48657B",
"@. c #5B637C",
"#. c #55637C",
"$. c #60667B",
"%. c #884444",
"&. c #8A4E54",
"*. c #BE7E5D",
"=. c #AE6553",
"-. c #8B5C68",
";. c #10857D",
":. c #5D857F",
">. c #AD8D72",
",. c #CD9261",
"<. c #3E5482",
"1. c #385B81",
"2. c #3C6181",
"3. c #29788D",
"4. c #3A7797",
"5. c #2C7592",
"6. c #367DA3",
"7. c #5F4E83",
"8. c #4A5982",
"9. c #585989",
"0. c #585793",
"q. c #49538B",
"w. c #674D81",
"e. c #655D84",
"r. c #675C8A",
"t. c #6F5490",
"y. c #724C88",
"u. c #466B87",
"i. c #556382",
"p. c #5C6482",
"a. c #526983",
"s. c #5B688A",
"d. c #497686",
"f. c #5F7086",
"g. c #556996",
"h. c #547C95",
"j. c #557599",
"k. c #457392",
"l. c #646C84",
"z. c #6B6E8E",
"x. c #686486",
"c. c #676D93",
"v. c #63769D",
"b. c #637998",
"n. c #7B759D",
"m. c #7A7294",
"M. c #527BA1",
"N. c #6878A6",
"B. c #706EAD",
"V. c #895E98",
"C. c #877996",
"Z. c #956DB4",
"A. c #A772B4",
"S. c #119685",
"D. c #128B8C",
"F. c #388595",
"G. c #1EBBB2",
"H. c #28B0AA",
"J. c #478B94",
"K. c #5D829E",
"L. c #4F929B",
"P. c #7A878D",
"I. c #658398",
"U. c #4A89A6",
"Y. c #5A9FAE",
"T. c #578EB7",
"R. c #5A8DB5",
"E. c #7B88AA",
"W. c #6789B6",
"Q. c #718AA5",
"!. c #4FAFA9",
"~. c #4FAFB9",
"^. c #4BBAB8",
"/. c #54A0B5",
"(. c #0FEEBD",
"). c #7894C8",
"_. c #659ECD",
"`. c #59B2C3",
"'. c #52BAD0",
"]. c #6BB5CF",
"[. c #5EAAE6",
"{. c #7FB9E9",
"}. c #1AD6D6",
"|. c #2FC2C2",
" X c #14E8C9",
".X c #16F8C6",
"XX c #24EBD7",
"oX c #1BEAE3",
"OX c #30F9F1",
"+X c #53CDC7",
"@X c #64DCDE",
"#X c #58EADA",
"$X c #49D6E8",
"%X c #74DAF5",
"&X c #57EBE9",
"*X c #4EFFFB",
"=X c #5CFAFA",
"-X c #55EEE5",
";X c #69FEFF",
":X c #A98D90",
">X c #8C88BB",
",X c #9485B4",
"<X c #A894AB",
"1X c #C7B5A2",
"2X c #E9D09B",
"3X c #8F9CC2",
"4X c #9596C3",
"5X c #9399D4",
"6X c #83B1DF",
"7X c #9BBBDB",
"8X c #C3ADCF",
"9X c #CDC7D5",
"0X c #EADBD4",
"qX c None",
/* pixels */
"qXqXqXqXqXqXqXqXqXqXqXqXqXqXqXqXqXqXqXqXqXqXqXqXqXqXqXqXqXqXqXqX",
"qXqXqXqXqXqXqXqXqXqXqXqXqXqXqXqXqXqXqXqXqXqXqXqXqXqXqXqXqXqXqXqX",
"qXqXqXqXqXqXqXqXqXqXqXqXqXqXqXqXqXqXqXqXqXqXqXqXqXqXqXqXqXqXqXqX",
"qXqXqXqXqXqXqXqXqXqXI.].@X&X&X&X-X#X+X!.d.qXqXqXqXqXqXqXqXqXqXqX",
"qXqXqXqXqXqXqXqX:X5X6X%X;X;X=X=X&X-X#X+XY.K.d.+.qXqXqXqXqXqXqXqX",
"qXqXqXqXqXqXqX0X8X4X)._.].`.`./.U.L.L.d.) K K K qXqXqXqXqXqXqXqX",
"qXqXqXqXqXqX9X9X<X>X3XW._.T.T.M.h.I.I.b.#.) Z 9 * A qXqXqXqXqXqX",
"qXqXqXqXqXP.7X,Xn.n.E.M.q.D k y y H } f.f.` +.) V qXqXqXqXqXqXqX",
"qXqXqXqXqX@XW.r.o.z.c.s , , - X X o & q .... .] L V A qXqXqXqXqX",
"qXqXqXqXE.6Xg.' ! x.q.i , , X X X o o o q @.o.v H J : qXqXqXqXqX",
"qXqXqXqX3X5X0.N j 0.q.y @ qXqXqXqXqXqX% w ( ..c f H qXqXqXqXqXqX",
"qXqXqXqXZ.5XB.O.q.N.q.@ qXqXqXqXqXqXqXqXu C @.q f 8.F y qXqXqXqX",
"qXqXqXqXn.,Xw.y.0.B.H qXqXqXqXqXqXqXqXqX1 C @.8 n ' L G qXqXqXqX",
"qXqXqXqX/ / N t.Z.0.1 X qXqXqXqXqXqXqXqX$ Z  .1 n 6 h 0 qXqXqXqX",
"qXqXqXqXN [ v N A.c.{ s qXqXqXqXqXqXqX% q ..! 3 3 4 p qXqXqXqXqX",
"qXqXqXqXqX! [ O.V.c.v.i.| ~ qXqXqXR _ _ _ @.s 3 3 3 5 qXqXqXqXqX",
"qXqXqXqXqXc [ w.w.8.N.N.i.i.s.@.@.p.@.@.l.X.& n n l qXqXqXqXqXqX",
"qXqXqXqXqXqX5 / [ H v.N.f.i.f.p.#.@.$.l.l.c & b b qXqXqXqXqXqXqX",
"qXqXqXqXqXqXqXqXo.N 9.j.| {  .| ( ~ R ..$.n z E qXqXqXqXqXqXqXqX",
"qXqXqXqXqXqX_ ! ' s ' j e , , X . o & l R l z W -.qXqXqXqXqXqXqX",
"qXqXqXqXqXX.[ r s t s t , ; ;     O & 8 z z z W &.,.qXqXqXqXqXqX",
"qXqXqXqXqXx.h 1 1 r r r , @ , + . 3 4 o & 5 n x M =.,.qXqXqXqXqX",
"qXqXqXqXe.[ 0 < s g r 6 6 % qXqXqXqX% & & 3 v E x M %.%.qXqXqXqX",
"qXqXqXqXn./ 0 C l.0 % % qXqXqXqXqXqXqXqX% 3 X.x.n = m x qXqXqXqX",
"qXqXqXR r.X.6 } f.d 2 qXqXqXqXqXqXqXqXqX+ 1 _ z.l l v l qXqXqXqX",
"qXqXqXa 9.e.1 } s.i : qXqXqXqXqXqXqXqXqX$ i { @.4 p h s qXqXqXqX",
"qXqXqXC g.g.g ^ b.F : qXqXqXqXqXqXqXqXqX9 i { ! 6 j <.L qXqXqXqX",
"qXqXqXqXk.T.| G v.L F 9 qXqXqXqXqXqXqXqXd d H p s 1.4.D qXqXqXqX",
"qXqXqXqX~.'.4.d { ( K H K qXqXqXqXqXC Q Q ^ p v L F.U . qXqXqXqX",
"qXqXqXqX^.'.U.] ] f ~ | a.+.} } ) z.N.@. .f 1 G 1.F.A B qXqXqXqX",
"qXqXqXqXT ^.h.9.s.F D 2.K.h.a.+.a.Q.).j.H u ] <.4.J qXqXqXqXqXqX",
"qXqXqXqXqX:.I.:Xm.i.4.3.5.4.2.u.L M.[.6.D D D P J : qXqXqXqXqXqX",
"qXqXqXqXqXqX>.1X<XI.F.H.|.D.S > > 3.$X$X3.U D D # qXqXqXqXqXqXqX",
"qXqXqXqXqXqXqX2X>.>X`.OXOX XS.I S.G.OX*X+X4.J qXqXqXqXqXqXqXqXqX",
"qXqXqXqXqXqXqXqXqXqXJ.G.}.oX X X(..XOXXX|.U qXqXqXqXqXqXqXqXqXqX",
"qXqXqXqXqXqXqXqXqXqXqXqXqXqXD.S.S.;.D.qXqXqXqXqXqXqXqXqXqXqXqXqX",
"qXqXqXqXqXqXqXqXqXqXqXqXqXqXqXqXqXqXqXqXqXqXqXqXqXqXqXqXqXqXqXqX",
"qXqXqXqXqXqXqXqXqXqXqXqXqXqXqXqXqXqXqXqXqXqXqXqXqXqXqXqXqXqXqXqX",
"qXqXqXqXqXqXqXqXqXqXqXqXqXqXqXqXqXqXqXqXqXqXqXqXqXqXqXqXqXqXqXqX",
"qXqXqXqXqXqXqXqXqXqXqXqXqXqXqXqXqXqXqXqXqXqXqXqXqXqXqXqXqXqXqXqX"
};
