/* XPM */
static char *result[] = {
/* columns rows colors chars-per-pixel */
"64 64 47 1 ",
"  c #010000",
". c #0A0103",
"X c #0D0F0F",
"o c #100305",
"O c #1C0408",
"+ c #0E100F",
"@ c #0F1010",
"# c #101010",
"$ c #26040A",
"% c #2A060C",
"& c #34080F",
"* c #360810",
"= c #390911",
"- c #3A161C",
"; c #2F3030",
": c #313131",
"> c #3D3234",
", c #450B14",
"< c #4A0B16",
"1 c #4F0D18",
"2 c #500814",
"3 c #540D19",
"4 c #5A0E1B",
"5 c #620F1D",
"6 c #64101E",
"7 c #69101F",
"8 c #6E1121",
"9 c #731222",
"0 c #7C1325",
"q c #5B383E",
"w c #434444",
"e c #6D4A50",
"r c #831427",
"t c #881327",
"y c #871528",
"u c #8A1629",
"i c #8E182B",
"p c #90172B",
"a c #94182D",
"s c #9B1A2F",
"d c #9E1A30",
"f c #A21B31",
"g c #969797",
"h c #A4999B",
"j c #CECFCF",
"k c #DCD1D3",
"l c None",
/* pixels */
"llllllllllllllllllllllllllllllllllllllllllllllllllllllllllllllll",
"llllllllllllllllllllllllllllllllllllllllllllllllllllllllllllllll",
"llllllllllllllllllllllllllllllllllllllllllllllllllllllllllllllll",
"llllllllllllllllllllllllllllllllllllllllllllllllllllllllllllllll",
"llllllllllllllllllllllllllllllllllllllllllllllllllllllllllllllll",
"llllllllllllllllllllllllllllllllllllllllllllllllllllllllllllllll",
"llllllllllllllllllllllllllllllllllllllllllllllllllllllllllllllll",
"llllllllllllllllllllllllllllllllllllllllllllllllllllllllllllllll",
"llllllllllllllllllllllllllllllllllllllllllllllllllllllllllllllll",
"llllllllllllllllllllllllllllllllllllllllllllllllllllllllllllllll",
"llllllllllllllllllllll======****====llllllllllllllllllllllllllll",
"llllllllllllllllllllll<<131334333331llllllllllllllllllllllllllll",
"llllllllllllllllllll*,890uuuuuuuuuy01*llllllllllllllllllllllllll",
"llllllllllllllllllll,49ifffdiuuuuiu041llllllllllllllllllllllllll",
"llllllllllllllllll*,89iffffa83443338001&llllllllllllllllllllllll",
"llllllllllllllllll,40idfffa9=$%%%%%-008<llllllllllllllllllllllll",
"llllllllllllllll=<50psfffp8,O......O,6001*llllllllllllllllllllll",
"llllllllllllllll*<9usffdi9=O.      .O,0061llllllllllllllllllllll",
"llllllllllllllll*<7udffp8=O.        .O,6003*llllllllllllllllllll",
"llllllllllllllll<39idffu3$.          .$3uu3*llllllllllllllllllll",
"llllllllllllll=<690usffu3$.          .$3uu3*llllllllllllllllllll",
"llllllllllllll=<9rrupdfu3%.+;:#    @;>-3uu3*llllllllllllllllllll",
"llllllllllllll=<9rrryidu3$.:gg:    :ghq2uu3=llllllllllllllllllll",
"llllllllllllll=<80990udu2$.wjjw    wjke<yu3*llllllllllllllllllll",
"llllllllllllll=<99439usu3$.wjjw    wjke1yu3*llllllllllllllllllll",
"llllllllllllll*<98<<8udu3$.;gg:    :ghq1r03*llllllllllllllllllll",
"llllllllllllll=<99<,8udu3$.X;;#    @;>-100<*llllllllllllllllllll",
"llllllllllllll=<55,<9uau6,O          .$199<*llllllllllllllllllll",
"llllllllllllllll<<=<9ruuu9,O         .$<88<*llllllllllllllllllll",
"llllllllllllllll=*=<690uau6=O.     ..O=388<*llllllllllllllllllll",
"llllllllllllllllllll<39ruu06=O.    .O=573<llllllllllllllllllllll",
"llllllllllllllllllll*<5989094=O....O=477<=llllllllllllllllllllll",
"llllllllllllllllllllll,<<39r04=%%%$=683,llllllllllllllllllllllll",
"llllllllllllllllllllll<,<49ru0633336004,llllllllllllllllllllllll",
"llllllllllllllllllll*<59890raapuuuuiap05,*llllllllllllllllllllll",
"llllllllllllllllllll<40uuuupdffffffffdi04<llllllllllllllllllllll",
"llllllllllllllllll=<50pssssssfffffffffdp06,=llllllllllllllllllll",
"llllllllllllllllll*<8psffffdfffffffffffdi9<=llllllllllllllllllll",
"llllllllllllllllll=<7usffdfffffffffffffdu7<*llllllllllllllllllll",
"llllllllllllllllll*<9psfffffffdfffffdfddi91=llllllllllllllllllll",
"llllllllllllllllll*30dffffffffffffffffffsr1*llllllllllllllllllll",
"llllllllllllllllll,5ifffffdfdfffdffffffffu3*llllllllllllllllllll",
"llllllllllllllll=<60afffdfffffffffdffffffy2*llllllllllllllllllll",
"llllllllllllllll*<8udffffffdffddssdffffffu6,llllllllllllllllllll",
"llllllllllllllll=<8usffffffffffsupsffffffs06<*llllllllllllllllll",
"llllllllllllllll=<7usffffffffffsyusfffffddi8<=llllllllllllllllll",
"llllllllllllllll=<8usfdffffffffsuusffffffsu8<=llllllllllllllllll",
"llllllllllllllll*<8usfffsfffffsu09usfffsday8<*llllllllllllllllll",
"llllllllllllllll*<8usffffffffsp0440psffsprr8<*llllllllllllllllll",
"llllllllllllllll,49upsffssfdspu8<<7uasfsurr8<=llllllllllllllllll",
"llllllllllllll=<590ruidsupssuur8<<9rupssurr8<=llllllllllllllllll",
"llllllllllllll=<9rrr0taauuaau005==490uaarrr9<=llllllllllllllllll",
"llllllllllllll=<7ttr0ruusauur04=OO=39rurrrr9<=llllllllllllllllll",
"llllllllllllll=<9r990rruaar094=O..%<9rr09908<=llllllllllllllllll",
"llllllllllllll=<99439rrryrr94=$. .%<9yr93409<=llllllllllllllllll",
"llllllllllllll=<55,<8r99rtt9<%.  .O,40003266<=llllllllllllllllll",
"llllllllllllllll<<=<90439rr9<$.   .O=400063<llllllllllllllllllll",
"llllllllllllllll===<56<,6896<&o    o%<5996,*llllllllllllllllllll",
"llllllllllllllllll==,<ll<<<,==llll .%=<1<<llllllllllllllllllllll",
"llllllllllllllllll==**ll==*&&&llll .%=%%&=llllllllllllllllllllll",
"llllllllllllllllllllllllllllo.lllllllloollllllllllllllllllllllll",
"llllllllllllllllllllllllllll  llllllll .llllllllllllllllllllllll",
"llllllllllllllllllllllllll  llllllll  llllllllllllllllllllllllll",
"llllllllllllllllllllllllll  llllllll  llllllllllllllllllllllllll"
};
