/* XPM */
static char *result[] = {
/* columns rows colors chars-per-pixel */
"64 64 47 1 ",
"  c #010000",
". c #0B0103",
"X c #0D0F0F",
"o c #100305",
"O c #1C0408",
"+ c #0E100F",
"@ c #0F1010",
"# c #101010",
"$ c #26050A",
"% c #2A060C",
"& c #34080F",
"* c #360810",
"= c #390910",
"- c #3A161C",
"; c #2F3030",
": c #313131",
"> c #3D3234",
", c #440B14",
"< c #4A0B16",
"1 c #4F0D18",
"2 c #500814",
"3 c #540D19",
"4 c #5A0E1B",
"5 c #620F1D",
"6 c #64101E",
"7 c #69101F",
"8 c #6E1121",
"9 c #731222",
"0 c #7C1325",
"q c #5B383E",
"w c #434444",
"e c #6D4A50",
"r c #831427",
"t c #881327",
"y c #871528",
"u c #8A1629",
"i c #8E182B",
"p c #90172B",
"a c #94182D",
"s c #9B1A2F",
"d c #9E1A30",
"f c #A21B31",
"g c #969797",
"h c #A4999B",
"j c #CECFCF",
"k c #DCD1D3",
"l c None",
/* pixels */
"llllllllllllllllllllllllllllllllllllllllllllllllllllllllllllllll",
"llllllllllllllllllllllllllllllllllllllllllllllllllllllllllllllll",
"llllllllllllllllllllllllllllllllllllllllllllllllllllllllllllllll",
"llllllllllllllllllllllllllllllllllllllllllllllllllllllllllllllll",
"llllllllllllllllllllllllllllllllllllllllllllllllllllllllllllllll",
"llllllllllllllllllllllllllllllllllllllllllllllllllllllllllllllll",
"llllllllllllllllllllllllllllllllllllllllllllllllllllllllllllllll",
"llllllllllllllllllllllllllllllllllllllllllllllllllllllllllllllll",
"llllllllllllllllllllll==********=***llllllllllllllllllllllllllll",
"llllllllllllllllllllll<<133133333333llllllllllllllllllllllllllll",
"llllllllllllllllllll*,59ruuuuuuuuuu01&llllllllllllllllllllllllll",
"llllllllllllllllllll,40adffdauuuuui053llllllllllllllllllllllllll",
"llllllllllllllllll*<50adfffs81333338091*llllllllllllllllllllllll",
"llllllllllllllllll,49adffdi9,$%%%%%,0063llllllllllllllllllllllll",
"llllllllllllllll*<60addffp8-O......O-6r03&llllllllllllllllllllll",
"llllllllllllllll=<8ysffda8,O.      .O,9051llllllllllllllllllllll",
"llllllllllllllll*<9usffp6,O.        .O,6003=llllllllllllllllllll",
"llllllllllllllll<49ysffu3%.          .$3uu3*llllllllllllllllllll",
"llllllllllllll=<690ysffi3$.          .$4uu3*llllllllllllllllllll",
"llllllllllllll=<8rruadfu3$.X;;#    +;>-3uu3=llllllllllllllllllll",
"llllllllllllll=<9ryrypsu3$.;gg:    :ghq2uu3*llllllllllllllllllll",
"llllllllllllll=<90990usu2$.wjjw    wjke2ru3=llllllllllllllllllll",
"llllllllllllll=<89339usu3$.wjjw    wjke2yu3*llllllllllllllllllll",
"llllllllllllll=<99<<8idu3$.:gg:    :ghq<rr3*llllllllllllllllllll",
"llllllllllllll=<97<<7ufu3%.X;:@    @;>-<90<=llllllllllllllllllll",
"llllllllllllll*<66<<9uay8=O.         .$<99<=llllllllllllllllllll",
"llllllllllllllll<,=<9ryuu9,O         .$399<*llllllllllllllllllll",
"llllllllllllllll===<59rydy5=O.      .O=476<=llllllllllllllllllll",
"llllllllllllllllllll<39yyy04=$.    .O=583<llllllllllllllllllllll",
"llllllllllllllllllll*<5889r94=O....O=385<*llllllllllllllllllllll",
"llllllllllllllllllllll<<<39r05=$%%%=573<llllllllllllllllllllllll",
"llllllllllllllllllllll,<<39yy0633335004,llllllllllllllllllllllll",
"llllllllllllllllllll&<59990yaspyyuiisp05,&llllllllllllllllllllll",
"llllllllllllllllllll,40uyuyudffffffffdi04<llllllllllllllllllllll",
"llllllllllllllllll=<50asssssdffffffffddi06<=llllllllllllllllllll",
"llllllllllllllllll&<9usffffffffffffffffdy8<*llllllllllllllllllll",
"llllllllllllllllll=<9ysffffffffdfffffffsy9<=llllllllllllllllllll",
"llllllllllllllllll*<9usffffffdffffdffffsa9<=llllllllllllllllllll",
"llllllllllllllllll*1rdfffdffffdffdffffffd03*llllllllllllllllllll",
"llllllllllllllllll<4uffffffffffffffdfffffy3*llllllllllllllllllll",
"llllllllllllllll=<50sfffffffdfffffdffffffy3&llllllllllllllllllll",
"llllllllllllllll=<9usfffdffffffsdsdffffffu5<llllllllllllllllllll",
"llllllllllllllll*<8usffffffffffspusffffffs05<=llllllllllllllllll",
"llllllllllllllll=<8ysfffffdffffsuysffffffsu8<=llllllllllllllllll",
"llllllllllllllll=<9ysfdffffffffsyysffffffsu7<=llllllllllllllllll",
"llllllllllllllll=<7usfffffffffsu00usffffsau9<=llllllllllllllllll",
"llllllllllllllll&<8usffffffffsp0349psffsuur8<=llllllllllllllllll",
"llllllllllllllll<49yasfdsssfday8<<9yasfsyrr8<=llllllllllllllllll",
"llllllllllllll=<590ryiddupddpyy9<<9ruussrrr8<=llllllllllllllllll",
"llllllllllllll*<9ryr0yaauuaay004==490uaayrr8<=llllllllllllllllll",
"llllllllllllll=<8yrrrryuasuty94=OO=49tyurrr9<=llllllllllllllllll",
"llllllllllllll=<90990rryaat004=O..%<8tr09909<=llllllllllllllllll",
"llllllllllllll=<89439rrrttr94=O. .%19rr94399<=llllllllllllllllll",
"llllllllllllll=<85,<90980yr9<%.  .$=50094376<=llllllllllllllllll",
"llllllllllllllll<,=<99449yy9<%.   .O=49r963<llllllllllllllllllll",
"llllllllllllllll===,58<<6995<%o.   .$<6996<&llllllllllllllllllll",
"llllllllllllllllll==<<ll<11<=*llll .%=<<<<llllllllllllllllllllll",
"llllllllllllllllll====ll%%%%==llll .$**===llllllllllllllllllllll",
"llllllllllllllllllllllll..oollllllll.ollllllllllllllllllllllllll",
"llllllllllllllllllllllll    llllllll  llllllllllllllllllllllllll",
"llllllllllllllllllllllllll  llllllll  llllllllllllllllllllllllll",
"llllllllllllllllllllllllll  llllllll  llllllllllllllllllllllllll",
"llllllllllllllllllllllllll  llllllll  llllllllllllllllllllllllll",
"llllllllllllllllllllllllll  llllllll  llllllllllllllllllllllllll"
};
