/* XPM */
static char *result[] = {
/* columns rows colors chars-per-pixel */
"64 64 138 2 ",
"   c #E1E1E1",
".  c gray88",
"X  c #E3E3E4",
"o  c #D7D7D7",
"O  c #C2C2BF",
"+  c #AEAEA6",
"@  c #ABABA3",
"#  c #B4B4AD",
"$  c #C5C5BE",
"%  c #D6D6CF",
"&  c #D9D9D2",
"*  c #D7D7D0",
"=  c #D4D4CD",
"-  c #C2C2BB",
";  c #AFAFA8",
":  c #ADADA6",
">  c #B1B1AA",
",  c #BFBFB8",
"<  c #D5D5CE",
"1  c #D8D8D1",
"2  c #D7D7CF",
"3  c #D9D9D5",
"4  c #DEDEDD",
"5  c #E1E1E0",
"6  c #E0E0E1",
"7  c #D7D7D6",
"8  c #C2C2BE",
"9  c #C4C4BD",
"0  c #C1C1BA",
"q  c #D6D6CE",
"w  c #D9D9D4",
"e  c #C3C3BE",
"r  c #D6D6D0",
"t  c #E1E1E2",
"y  c #E2E2E3",
"u  c gray89",
"i  c #E6E6E6",
"p  c #D9D9D8",
"a  c #C3C3BF",
"s  c #AAAAA3",
"d  c #DADAD3",
"f  c #C0C0B9",
"g  c #D8D8D2",
"h  c #DBDBD6",
"j  c #DCDCDB",
"k  c #DBDBDA",
"l  c gray86",
"z  c gray87",
"x  c #D3D3D1",
"c  c #C1C1BC",
"v  c #ADADA7",
"b  c #ABABA4",
"n  c #D2D2CB",
"m  c #D3D3CC",
"M  c #D0D0C9",
"N  c #B0B0A9",
"B  c #BDBDB6",
"V  c #D1D1CA",
"C  c #D5D5D0",
"Z  c #DADAD8",
"A  c gainsboro",
"S  c #C9C9C5",
"D  c #C8C8C4",
"F  c #C8C8C5",
"G  c #CACAC7",
"H  c #C4C4C0",
"J  c #B9B9B3",
"K  c #AEAEA7",
"L  c #B2B2AB",
"P  c #BABAB3",
"I  c #C3C3BC",
"U  c #B8B8B1",
"Y  c #B7B7B0",
"T  c #C3C3BD",
"R  c #C4C4BF",
"E  c #C7C7C3",
"W  c #C9C9C6",
"Q  c #ACACA4",
"!  c #ACACA5",
"~  c #B1B1AB",
"^  c #BCBCB5",
"/  c #B5B5AE",
"(  c #B9B9B2",
")  c #B6B6AF",
"_  c #BEBEB7",
"`  c #CDCDC6",
"'  c #BBBBB4",
"]  c #C6C6BF",
"[  c #DBDBD4",
"{  c #C7C7C0",
"}  c #C9C9C2",
"|  c #C8C8C1",
" . c #CFCFC8",
".. c #DCDCD5",
"X. c #CCCCC5",
"o. c #CECEC7",
"O. c #CBCBC4",
"+. c #B3B3AC",
"@. c #CACAC3",
"#. c #C5C5BF",
"$. c #B2B2AA",
"%. c #AFAFA7",
"&. c #AEAEA8",
"*. c #B7B7B1",
"=. c #BEBEBA",
"-. c #C0C0BB",
";. c #BFBFBA",
":. c #BEBEB9",
">. c #DADAD9",
",. c #B0B0AA",
"<. c #BDBDB7",
"1. c #B5B5AF",
"2. c #DFDFDF",
"3. c #E2E2E2",
"4. c #DFDFE0",
"5. c #B0B0A8",
"6. c #B1B1A9",
"7. c #BEBEB8",
"8. c #DDDDDD",
"9. c #C6C6C3",
"0. c #DFDFDE",
"q. c #DDDDDC",
"w. c #C6C6C2",
"e. c #E4E4E4",
"r. c #B5B5B0",
"t. c #CBCBC8",
"y. c #E4E4E5",
"u. c #C7C7C4",
"i. c #B4B4AE",
"p. c #D8D8D6",
"a. c #D8D8D7",
"s. c #D9D9D7",
"d. c #D6D6D5",
"f. c #C2C2BD",
"g. c #C0C0BC",
"h. c #B7B7B2",
"j. c #ADADA5",
"k. c white",
/* pixels */
"                .   X o O + @ # $ % & % * * * * * * * * * * * * * * * * * * * * * % % * = - ; : > , < 1 * % * % 2 3 4   . 5 5   ",
"                .   X o O + @ # $ % & % * * * * * * * * * * * * * * * * * * * * * % % * = - ; : > , < 1 * % * % 2 3 4   . 5 5   ",
"                .   X o O + @ # $ % & % * * * * * * * * * * * * * * * * * * * * * % % * = - ; : > , < 1 * % * % 2 3 4   . 5 5   ",
"                .   X o O + @ # $ % & % * * * * * * * * * * * * * * * * * * * * * % % * = - ; : > , < 1 * % * % 2 3 4   . 5 5   ",
"                .   X o O + @ # $ % & % * * * * * * * * * * * * * * * * * * * * * % % * = - ; : > , < 1 * % * % 2 3 4   . 5 5   ",
"                .   X o O + @ # $ % & % * * * * * * * * * * * * * * * * * * * * * % % * = - ; : > , < 1 * % * % 2 3 4   . 5 5   ",
"                .   X o O + @ # $ % & % * * * * * * * * * * * * * * * * * * * * * % % * = - ; : > , < 1 * % * % 2 3 4   . 5 5   ",
"                .   X o O + @ # $ % & % * * * * * * * * * * * * * * * * * * * * * % % * = - ; : > , < 1 * % * % 2 3 4   . 5 5   ",
". . . . . . . . . 6 X 7 8 + @ # 9 < 1 % % % % % % % % % % % % % % % % % % % % % % % % % = 0 ; : > , < * % % % q % w 4 6 . . . . ",
"                .   X 7 e + @ # $ < 1 % * * * * * * * * * * * * * * * * * * * * * % * * = - ; : > , < * * * * % r w 4 t         ",
"y y y y y y y u y u i p a : s # $ * d 1 1 & & & & & & & & & & & & & & & & & & & 1 1 1 & % - ; : > f * & & & & 1 g h 5 X u y y y ",
"j j j j j j j j k l z x c v b # - n < n n m m m m m m m m m m m m m m m m m m m n n m m M f ; : N B V m m m m n m C Z A j j j j ",
"S S S S S S S S D F G H J K : L P I 9 I I I I I I I I I I I I I I I I I I I I I I I I I - U ; K ; Y - I I I I I T R E W S S S S ",
"; ; ; ; ; ; ; ; ; ; ; ; ; ; ; ; ; ; ; ; ; ; ; ; ; ; ; ; ; ; ; ; ; ; ; ; ; ; ; ; ; ; ; ; ; K K ; ; K ; ; ; ; ; ; ; ; ; ; ; ; ; ; ",
"b b b b b b b b b b b Q : ; ; ; : ! ! ! ! ! ! ! ! ! ! ! ! ! ! ! ! ! ! ! ! ! ! ! ! ! ! ! ! : K ; K : b b b b b b b b b b b b b b ",
"> > > > > > > > > ~ L > N ; ; ; ; N N N N N N N N N N N N N N N N N N N N N N N N N N N N ; K ; ; N > > > > > > > > > > > > > > ",
", , , , , , , , , , f ^ / K K N # U ( U ( ( ( ( ( ( ( ( ( ( ( ( ( ( ( ( ( ( ( ( ( U U ( U # ; K N ) _ , , , , , , , , , , , , , ",
"= = = = = = = = m = % ` B K ! L ' 9 ] $ $ $ $ $ $ $ $ $ $ $ $ $ $ $ $ $ $ $ $ $ $ $ $ $ 9 P ; K N _ n = = = = = = = = = = = = = ",
"1 1 1 1 1 1 1 1 1 1 [ V , K ! L ^ { } | | | | | | | | | | | | | | | | | | | | | | | | | { ' ; : > f * & 1 1 1 1 1 1 1 1 1 1 1 1 ",
"% % % % % % % % % % 1  ._ K ! L ' $ { ] ] ] ] ] ] ] ] ] ] ] ] ] ] ] ] ] ] ] ] ] ] ] ] { $ P ; : > , = * % % % % % % % % % % % % ",
"* * * * * * * * % * 1  ._ K ! L ' $ { ] { { { { { { { { { { { { { { { { { { { { { ] ] { $ P ; : > , < 1 % % * * * * * * * * * * ",
"* * * * * * * * % * 1  ._ K ! L ' $ { ] { { { { { { { { { { { { { { { { { { { { { ] ] { $ P ; : > , < 1 * % * * * * * * * * * * ",
"* * * * * * * * % * 1  ._ K ! L ' $ { ] { { { { { { { { { { { { { { { { { { { { { ] ] { $ P ; : > , < 1 * % * * * * * * * * * * ",
"* * * * * * * * % * 1  ._ K ! L ' $ { ] { { { { { { { { { { { { { { { { { { { { { ] ] { $ P ; : > , < 1 * % * * * * * * * * * * ",
"* * * * * * * * % * 1  ._ K ! L ' $ { ] { { { { { { { { { { { { { { { { { { { { { ] ] { $ P ; : > , < 1 * % * * * * * * * * * * ",
"% % % % % % % * % % 1  ._ K ! L ' $ { ] ] { { { { { { { { { { { { { { { { { { { ] ] ] { $ P ; : > , < * % % % * % % % % % % % % ",
"* * * * * * * * % * &  ._ K ! L ^ ] | ] ] ] ] ] ] ] ] ] ] ] ] ] ] ] ] ] ] ] ] ] ] ] { { $ P ; : > , < * * * * * * * * * * * * * ",
"& & & & & & & & 1 & ..V , K ! L ^ { } | | | | | | | | | | | | | | | | | | | | | | | | | { ' ; : N f 1 d & & & & & & & & & & & & ",
"X.X.X.X.X.X.X.X.X.X.o.] P K : > U , 0 f f f f f f f f f f f f f f f f f f f f f f f f 0 f Y ; K N ' O.X.X.X.X.X.X.X.X.X.X.X.X.X.",
"P P P P P P P P P P ' U +.K K ; L / ) / / / / / / / / / / / / / / / / / / / / / / / / ) / L ; K ; +.( P P P P P P P P P P P P P ",
"K K K K K K K K K K K K K ; ; ; K K K K K K K K K K K K K K K K K K K K K K K K K K K K K K K ; ; K K K K K K K K K K K K K K K ",
"! ! ! ! ! ! ! ! ! ! ! : K ; ; K : b b b b b b b b b b b b b b b b b b b b b b b b b b b ! : K ; K : ! ! ! ! ! ! ! ! ! ! ! ! ! ! ",
"+.+.+.+.+.+.+.+.+.+.# +.> ; K ; L / ) / / / / / / / / / / / / / / / / / / / / / / / ) ) ) L ; ; ; N +.# # +.+.+.+.+.+.+.+.+.+.+.",
"_ _ _ _ _ _ _ _ _ , f ^ / ; : L B } O.} } } } } } } } } } } } } } } } } } } } } } } @.@.| ^ ; K ; / , f , _ _ _ _ _ _ _ _ _ _ _ ",
"] ] ] ] ] ] ] ] ] ] | - U K ! # 9 = * < % % % % % % % % % % % % % % % % % % % % % % % % = 0 ; K N ( $ { ] ] ] ] ] ] ] ] ] ] ] ] ",
"{ { { { { { { { { | } I ( K b # $ * d * 1 1 1 1 1 1 1 1 1 1 1 1 1 1 1 1 1 1 1 1 1 1 & & % - ; : N ( ] | { { { { { { { { { { { { ",
"] ] ] ] ] ] ] ] ] ] | - U K b # 9 < 1 < % % % % % % % % % % % % % % % % % % % % % % % * = 0 ; : ; U $ { ] ] ] ] ] ] ] ] ] ] ] ] ",
"{ { { { { { { { ] ] | - U K b # $ % & % * * * * * * * * * * * * * * * * * * * * * % % * = - ; : ; U ] { ] ] { { { { { { { { { { ",
"{ { { { { { { { ] ] | - U K b # $ % & % * * * * * * * * * * * * * * * * * * * * * % % * = - ; : ; U ] { { ] { { { { { { { { { { ",
"{ { { { { { { { ] ] | - U K b # $ % & % * * * * * * * * * * * * * * * * * * * * * % % * = - ; : ; U ] { { ] { { { { { { { { { { ",
"{ { { { { { { { ] ] | - U K b # $ % & % * * * * * * * * * * * * * * * * * * * * * % % * = - ; : ; U ] { { ] { { { { { { { { { { ",
"] ] ] ] ] ] ] ] ] ] | - U K b # 9 < 1 % % % % % % % % % % % % % % % % % % % % % % % % * = - ; : ; U ] { ] ] ] ] ] ] ] ] ] ] ] ] ",
"] ] ] ] ] ] ] ] ] ] | - U K b # 9 < 1 % % % % % % % % % % % % % % % % % % % % % % % * * < - ; : ; U ] { ] ] ] ] ] ] ] ] ] ] ] ] ",
"{ { { { { { { { ] ] | - U K b # $ % & % * * * * * * * * * * * * * * * * * * * * * * * * < - ; : ; U ] { { { { { { { { { { { { { ",
"{ { { { { { { { ] { | - U K b # $ % & % * * * * * * * * * * * * * * * * * * * * * * * * = - ; : ; U $ { { { { { { { { { { { { { ",
"^ ^ ^ ^ ^ ^ ^ ^ ^ ^ B P # K : L ' $ ] $ $ #.#.#.#.#.#.#.#.#.#.#.#.#.#.#.#.#.#.#.#.$ $ ] 9 ( ; K ; # ^ B ^ ^ ^ ^ ^ ^ ^ ^ ^ ^ ^ ^ ",
"> > > > > > > > N N > N ; K K ; N L L > ~ ~ ~ ~ ~ ~ ~ ~ ~ ~ ~ ~ ~ ~ ~ ~ ~ ~ ~ ~ ~ > $.L L N ; K K ; > > > > > > > > > > > > > > ",
"K K K K K K K K K : K K K ; ; %.+ : : + + + + + + + + + + + + + + + + + + + + + + + : : K K K ; K K K K K K K K K K K K K K K K ",
"K K K K K K K K K K K K K K &.K K K K K K K K K K K K K K K K K K K K K K K K K K K K K K %.; K K K K K K K K K K K K K K K K K ",
"' ' ' ' ' ' ' ' ' ' ^ ( # K : > *.=.-.;.;.;.;.;.;.;.;.;.;.;.;.;.;.;.;.;.;.;.;.;.;.;.;.;.:.*.; K ; # ' ^ ' ' ' ' ' ' ' ' ' ' ' ' ",
"n n n n n n n n n n < X.B K @ / E >.4 k l l l l l l l l l l l l l l l l l l l l l l j j p H ; : ,.<.V m n n n n n n n n n n n n ",
"* * * * * * * * * * & M , K s 1.G 2.X .                                             3.3.z E ; : N , < * * * * * * * * * * * * * ",
"* * * * * * * * * * &  ., K s 1.G 4.X .                                             3.3.z E 5.: 6., < * * * * * * * * * * * * * ",
"% % % % % % % % % * 1  .7.v s 1.G 2.y 2.. . . . . . . . . . . . . . . . . . . . . .     8.9.5.: 6., < * % % % % % % % % % % % % ",
"* * * * * * * * % * 1  .7.v s 1.G 2.u .                                           .     4 E 5.: 6., < 1 % % * * * * * * * * * * ",
"* * * * * * * * % * 1  .7.v s 1.G 2.X .                                           .     4 E 5.: 6., < 1 * % * * * * * * * * * * ",
"* * * * * * * * % * 1  .7.v s 1.G 2.X .                                           .     4 E 5.: 6., < 1 * % * * * * * * * * * * ",
"* * * * * * * * % * 1  .7.v s 1.G 2.X .                                           .     4 E 5.: 6., < 1 * % * * * * * * * * * * ",
"% % % % % % % % % % 1  ._ v s 1.W 0.u 2.. . . . . . . . . . . . . . . . . . . . . .     q.w.; : 6., < * % % % % % % % % % % % % ",
"* * * * * * * * * * d M , K s 1.G . e.6 t t t t t t t t t t t t t t t t t t t t t   3.3.z E ; : N , < 1 * * * * * * * * * * * * ",
"1 1 1 1 1 1 1 1 * 1 d M , K s r.t.. y.t 3.y 3.3.3.3.3.3.3.3.3.3.3.3.3.3.3.3.3.y 3.3.3.y 2.u.; : N , % & 1 1 1 1 1 1 1 1 1 1 1 1 ",
"M M M M M M M M M M n @.^ K b i.w.p.k a.p p p p p p p p p p p p p p p p p p p p p s.p p d.e ; : N ^  .V M M M M M M M M M M M M ",
"B B B B B B B B B _ _ ' / K : ~ J c 8 c f.f.f.f.f.f.f.f.f.f.f.f.f.f.f.f.f.f.f.f.f.f.f.f.g.h.; K ; # B _ B B B B B B B B B B B B ",
": : : : : : : : : : : K K ; ; ; K j.j.j.j.j.j.j.j.j.j.j.j.j.j.j.j.j.j.j.j.j.j.j.j.j.j.j.: : K ; K K : : : : : : : : : : : : : : "
};
