/* XPM */
static char *result[] = {
/* columns rows colors chars-per-pixel */
"64 64 187 2 ",
"   c #1E2933",
".  c #232D36",
"X  c #252F38",
"o  c #263039",
"O  c #2B333B",
"+  c #3E3639",
"@  c #3F393C",
"#  c #33363C",
"$  c #4E3837",
"%  c #4E3A39",
"&  c #46383A",
"*  c #593A36",
"=  c #593D39",
"-  c #513D3C",
";  c #6A3E35",
":  c #55403E",
">  c #7B493D",
",  c #2D3740",
"<  c #2E3A43",
"1  c #343D45",
"2  c #353E45",
"3  c #403E42",
"4  c #36424B",
"5  c #39434B",
"6  c #3C4C54",
"7  c #3D4F58",
"8  c #43464B",
"9  c #424247",
"0  c #574747",
"q  c #434D55",
"w  c #42525A",
"e  c #49585F",
"r  c #485259",
"t  c #595356",
"y  c #60595B",
"u  c #4A5B62",
"i  c #505F66",
"p  c #585D62",
"a  c #625F62",
"s  c #596066",
"d  c #5B656B",
"f  c #58696F",
"g  c #516167",
"h  c #5A6A71",
"j  c #646569",
"k  c #656D72",
"l  c #677278",
"z  c #677177",
"x  c #70787D",
"c  c #844A3C",
"v  c #8E4D3D",
"b  c #824638",
"n  c #A1523D",
"m  c #B95A3F",
"M  c #C45B3D",
"N  c #CA5D3E",
"B  c #8D4F40",
"V  c #854D40",
"C  c #8F5141",
"Z  c #87564A",
"A  c #915749",
"S  c #8A5F56",
"D  c #A35642",
"F  c #A45B48",
"G  c #BA5D43",
"H  c #946357",
"J  c #8B655C",
"K  c #BC634B",
"L  c #A76757",
"P  c #B26652",
"I  c #967168",
"U  c #9D7B73",
"Y  c #917872",
"T  c #926B62",
"R  c #AC7769",
"E  c #C55E41",
"W  c #CA5E40",
"Q  c #C66145",
"!  c #CB6245",
"~  c #C6654A",
"^  c #C9664A",
"/  c #CA694D",
"(  c #CB6D53",
")  c #C76D54",
"_  c #CB735B",
"`  c #C87259",
"'  c #D1765C",
"]  c #D1755A",
"[  c #D36B4E",
"{  c #CD7B64",
"}  c #C67D68",
"|  c #D27D65",
" . c #D87F65",
".. c #93837F",
"X. c #A9867E",
"o. c #CF816B",
"O. c #D2826A",
"+. c #C98977",
"@. c #D18771",
"#. c #D58B75",
"$. c #D28D79",
"%. c #D4917E",
"&. c #D8917C",
"*. c #777E82",
"=. c #7C8589",
"-. c #83898D",
";. c #998C8A",
":. c #898E91",
">. c #848C90",
",. c #94999B",
"<. c #9A9A9C",
"1. c #A0928F",
"2. c #A29795",
"3. c #AD9088",
"4. c #B9A39D",
"5. c #9CA2A5",
"6. c #9EA9AD",
"7. c #9DA6A9",
"8. c #A1A5A5",
"9. c #A3A6A8",
"0. c #A5A9AA",
"q. c #A8AAAB",
"w. c #A9AFB1",
"e. c #AAB2B5",
"r. c #ACB6BA",
"t. c #B5B9B9",
"y. c #BBBCBD",
"u. c #B6B6B6",
"i. c #BAABA7",
"p. c #D49482",
"a. c #DA9985",
"s. c #D59B89",
"d. c #DB9C8A",
"f. c #CC9F91",
"g. c #DCA493",
"h. c #DAAB9C",
"j. c #D6A495",
"k. c #E0AD9D",
"l. c #DFAFA0",
"z. c #DCB2A5",
"x. c #DDB7AA",
"c. c #DEB9AD",
"v. c #D1B1A6",
"b. c #DBBDB4",
"n. c #E0AFA0",
"m. c #E1B3A4",
"M. c #E2BAAD",
"N. c #E2B6A8",
"B. c #E3BEB2",
"V. c #DAC2B9",
"C. c #E2C0B5",
"Z. c #E2C4BA",
"A. c #E4C9BE",
"S. c #E8C8BD",
"D. c #BDC0C0",
"F. c #C2C5C4",
"G. c #C6CACA",
"H. c #CACDCB",
"J. c #CDD0CE",
"K. c #CFD1D0",
"L. c #D3D5D4",
"P. c #DBDCDA",
"I. c #DCD7D4",
"U. c #D3CFCE",
"Y. c #E3CCC4",
"T. c #EACDC3",
"R. c #E6D3CC",
"E. c #EAD5CC",
"W. c #F1D6CC",
"Q. c #E6D7D0",
"!. c #EADCD6",
"~. c #EADFD9",
"^. c #E6DAD5",
"/. c #F3DDD4",
"(. c #EBE2DD",
"). c #E7E3DF",
"_. c #DFE2E1",
"`. c #E2E6E5",
"'. c #EBE6E2",
"]. c #EBE9E6",
"[. c #EDEEEB",
"{. c #F1EAE6",
"}. c #F1EDE9",
"|. c #F0E7E2",
" X c #EEF0EE",
".X c #F3F1EE",
"XX c None",
/* pixels */
"XXXXXXXXXXXXXXXXXXXXXXXXXXXXXXXXXXXXXXXXXXXXXXXXXXXXXXXXXXXXXXXXXXXXXXXXXXXXXXXXXXXXXXXXXXXXXXXXXXXXXXXXXXXXXXXXXXXXXXXXXXXXXXXX",
"XXXXXXXXXXXXXXXXXXXXXXXXXXXXXXXXXXXXXXXXXXXXXXXXXXXXXXXXXXXXXXXXXXXXXXXXXXXXXXXXXXXXXXXXXXXXXXXXXXXXXXXXXXXXXXXXXXXXXXXXXXXXXXXX",
"XXXXXXXXXXXXXXXXXXXXXXXXXXXXXXXXXXXXXXXXXXXXXXXXXXXXXXXXXXXXXXXXXXXXXXXXXXXXXXXXXXXXXXXXXXXXXXXXXXXXXXXXXXXXXXXXXXXXXXXXXXXXXXXX",
"XXXXXXXXXXXXXXXXXXXXXXXXXXXXXXXXXXXXXXXXXXXXXXXXXXXXXXXXXXXXXXXXXXXXXXXXXXXXXXXXXXXXXXXXXXXXXXXXXXXXXXXXXXXXXXXXXXXXXXXXXXXXXXXX",
"XXXXXXXXXXXXXXXXXXXXXXXXXXXXXXXXXXXXXXXXXXXXXXXXXXXXXXXXXXXXXXXXXXXXXXXXXXXXXXXXXXXXXXXXXXXXXXXXXXXXXXXXXXXXXXXXXXXXXXXXXXXXXXXX",
"XXXXXXXXXXXXXXXXXXXXXXXXXXXXXXXXXXXXXXXXXXXXXXXXXXXXXXXXXXXXXXXXXXXXXXXXXXXXXXXXXXXXXXXXXXXXXXXXXXXXXXXXXXXXXXXXXXXXXXXXXXXXXXXX",
"XXXXXXXXXXXXXXXXXXXXXXXXXXXXXXXXXXXXXXXXXXXXXXXXXXXXXXXXXXXXXXXXXXXXXXXXXXXXXXXXXXXXXXXXXXXXXXXXXXXXXXXXXXXXXXXXXXXXXXXXXXXXXXXX",
"XXXXXXXXXXXXXXXXXXXXXXXXXXXXXXXXXXXXXXXXXXXXXXXXXXXXXXXXXXXXXXXXXXXXXXXXXXXXXXXXXXXXXXXXXXXXXXXXXXXXXXXXXXXXXXXXXXXXXXXXXXXXXXXX",
"XXXXXXXXXXXXXXXXXXXXXXXXXXXXXXXXXXXXXXXXXXXXXXXXXXXXXXXXXXXXXXXXXXXXXXXXXXXXXXXXXXXXXXXXXXXXXXXXXXXXXXXXXXXXXXXXXXXXXXXXXXXXXXXX",
"XXXXXXXXXXXXXXXXXXXXXXXXXXXXXXXXXXXXXXXXXXXXXXXXXXXXXXXXXXXXXXXXXXXXXXXXXXXXXXXXXXXXXXXXXXXXXXXXXXXXXXXXXXXXXXXXXXXXXXXXXXXXXXXX",
"XXXXXXXXXXXXXXXXXXXXXXXXXXXXXXXXXXXXXXXXXXXXXXXXXXXXXXXXXXXXXXXXXXXXXXXXXXXXXXXXXXXXXXXXXXXXXXXXXXXXXXXXXXXXXXXXXXXXXXXXXXXXXXXX",
"XXXXXXXXXXXXXXXXXXXXXXXXXXXXXXXXXXXXXXXXXXXXXXXXXXXXXXXXXXXXXXXXXXXXXXXXXXXXXXXXXXXXXXXXXXXXXXXXXXXXXXXXXXXXXXXXXXXXXXXXXXXXXXXX",
"XXXXXXXXXXXXXXXXXXXXXXXXXXXXXXXXXXXXXXXXXXXXXXXXXXXXXXXXXXXXXXXXXXXXXXXXXXXXXXXXXXXXXXXXXXXXXXXXXXXXXXXXXXXXXXXXXXXXXXXXXXXXXXXX",
"XXXXXXXXXXXXXXXXXXXXXXXXXXXXXXXXXXXXXXXXXXXXXXXXXXXXXXXXXXXXXXXXXXXXXXXXXXXXXXXXXXXXXXXXXXXXXXXXXXXXXXXXXXXXXXXXXXXXXXXXXXXXXXXX",
"XXXXXXXXXXXXXXXXXXXXXXXXXXXXXXXXXXXXXXXXXXXXXXXXXXXXXXXXXXXXXXXXXXXXXXXXXXXXXXXXXXXXXXXXXXXXXXXXXXXXXXXXXXXXXXXXXXXXXXXXXXXXXXXX",
"XXXXXXXXXXXXXXXXXXXXXXXXXXXXXXXXXXXXXXXXXXXXXXXXXXXXXXXXXXXXXXXXXXXXXXXXXXXXXXXXXXXXXXXXXXXXXXXXXXXXXXXXXXXXXXXXXXXXXXXXXXXXXXXX",
"XXXXXXXXXXXXXXXXXXXXXXXXo o o o o o o o o o o o X X X X X o o o o o o o o o o o o o o X o o X X o O o o XXXXXXXXXXXXXXXXXXXXXXXX",
"XXXXXXXXXXXXXXXXXXXXXXX r g i i i i i i i i i i i g g g g g i g i i i i i i i u i i i g i i i i g u i r X XXXXXXXXXXXXXXXXXXXXXX",
"XXXXXXXXXXXXXXXXXXXXXXX 4 7 6 6 6 q 6 7 6 6 6 6 7 7 6 5 6 6 6 6 6 6 5 6 7 7 7 6 6 6 6 6 6 6 6 6 7 7 7 4 X XXXXXXXXXXXXXXXXXXXXXX",
"XXXXXXXXXXXXXXXXXXXXXXX & = 0 k k 0 = = 0 j k t * * : j z y * = = a z j = = * y k j = * * y k k : = = & X XXXXXXXXXXXXXXXXXXXXXX",
"XXXXXXXXXXXXXXXXXXXXXXX C / s.[.!.o.M ^ #.'.(.%.M ^ o.(.].d.E ~ { R.[.l.! Q _ B.[.b./ Q ( z. XY.( Q [ H o XXXXXXXXXXXXXXXXXXXXXX",
"XXXXXXXXXXXXXXXXXXXXXXX C g.[.^.{ Q Q %.'.'.@.! Q O.(.].p.~ Q _ R.[.h.Q E ( Y.[.M./ Q ^ c. XY.( ~ Q n.q.X XXXXXXXXXXXXXXXXXXXXXX",
"XXXXXXXXXXXXXXXXXXXXXXX 2.{.R.| Q E s.(.(.@.~ M $.!.].%./ M o.R.[.g.) M _ Y.[.z._ E / b.[.C._ E Q z.}.e.X XXXXXXXXXXXXXXXXXXXXXX",
"XXXXXXXXXXXXXXXXXXXXXXX r.W.#.! ! g.|.~.&.! ! a.!.{.d./ W $.T..Xg.( N | S..Xm.] N ' B..XB.| N ] N.}.T.I X XXXXXXXXXXXXXXXXXXXXXX",
"XXXXXXXXXXXXXXXXXXXXXXXX>.Y > c V ;.6.;.> c c ;.7.;.c c c Y 6.,.Z c c T 6.<.S > c S 7.5.J b V Z <.7.I ; XXXXXXXXXXXXXXXXXXXXXXXX",
"XXXXXXXXXXXXXXXXXXXXXXXX, < 1 < 1 < o O q o , 1 O < 4 < < 1 , < , 1 < < < < < < 1 , X 6 1 o < < < < < < XXXXXXXXXXXXXXXXXXXXXXXX",
"XXXXXXXXXXXXXXXXXXXXXXX e f f f f h 4 g 0.1 u h f f f f f f f f f f f h f h f f h u 1 8.p 4 h h f f h e X XXXXXXXXXXXXXXXXXXXXXX",
"XXXXXXXXXXXXXXXXXXXXXXX O 1 , , < < O , 5 o O 1 < < , < , < < O , < < , < < , , , , X 8 , o < < < < < O X XXXXXXXXXXXXXXXXXXXXXX",
"XXXXXXXXXXXXXXXXXXXXXXX ; U e.q.A C v H e.w.H v c H q.e.I v v A 8.r.U v v v 2.r.;.v C v ;.r.2.C v v X.=.X XXXXXXXXXXXXXXXXXXXXXX",
"XXXXXXXXXXXXXXXXXXXXXXX U W.{.k.( W O.S..XN.] N ' N..XC.| N ] k..XT.@.N / g..XW.&.! ! d./.(.d.! ! %./.e.X XXXXXXXXXXXXXXXXXXXXXX",
"XXXXXXXXXXXXXXXXXXXXXXX w.{.h.E Q { Z.[.N.^ E _ c. XZ.` M ( h.[.Y.' M / s.].R.@.M ^ $.'.(.p.M ~ @.!.'.1.X XXXXXXXXXXXXXXXXXXXXXX",
"XXXXXXXXXXXXXXXXXXXXXXX 9.k.E ^ _ Y.[.x.^ Q ( b. XZ./ Q / h. XR._ Q / s.[.^.o.Q ~ $.'.'.$.E ~ { (.].d.v X XXXXXXXXXXXXXXXXXXXXXX",
"XXXXXXXXXXXXXXXXXXXXXXX A ( W ( Y.[.h.^ Q ^ V.[.b.) Q Q z.[.Y.` Q E j.].^.{ K M p.`.).o.~ G o.^.].p.~ c o XXXXXXXXXXXXXXXXXXXXXX",
"XXXXXXXXXXXXXXXXXXXXXXXX% % - 3 p g t & % - p d t % % % e d t % % % t d p % % $ 0 f s % % - 0 d s 0 - & XXXXXXXXXXXXXXXXXXXXXXXX",
"XXXXXXXXXXXXXXXXXXXXXXXX6 w w w 7 w < 7 *.o 5 q 7 7 w w q q q r w 7 w 6 q w w 7 w 5 X x q < 7 7 7 w w 6 XXXXXXXXXXXXXXXXXXXXXXXX",
"XXXXXXXXXXXXXXXXXXXXXXX 6 u u u u u < e =.< 7 u e u u u u u e e u u u u e u u u u w O -.r 4 u u e e u 6 o XXXXXXXXXXXXXXXXXXXXXX",
"XXXXXXXXXXXXXXXXXXXXXXX 5 8 + + + 6 q 8 @ @ + 8 q q + + + 9 q q @ + & 5 q q & @ # @ q q 2 + + @ q q 8 # X XXXXXXXXXXXXXXXXXXXXXX",
"XXXXXXXXXXXXXXXXXXXXXXX 7.j.G G K b.`.v.G G K v.`.V.K G G f.`.U.K G G +._.I.R G G o.P.).+.m K ` I.).s.c X XXXXXXXXXXXXXXXXXXXXXX",
"XXXXXXXXXXXXXXXXXXXXXXX H | ! _ A.[.B._ ! Q M.[.A.{ Q Q h.].E.O./ E s.(.(.@.[ N #.!.].p./ M | R.[.g.] v X XXXXXXXXXXXXXXXXXXXXXX",
"XXXXXXXXXXXXXXXXXXXXXXX v W _ V. Xx._ M ( z.[.V.| E Q h.'.R.@.E Q s.(.!.%.! M $.^.'.s.^ M O.Y.[.g./ E v X XXXXXXXXXXXXXXXXXXXXXX",
"XXXXXXXXXXXXXXXXXXXXXXX v O.V..XB.' N ' n.}.T.| M [ g.[.E.@.N / d.(.~.a.N ^ &.!.'.k.W ! #.T.[.z.^ ! [ > X XXXXXXXXXXXXXXXXXXXXXX",
"XXXXXXXXXXXXXXXXXXXXXXX b 3.D.v.F D D R G.D.L n n R F.F.R n n L y.G.X.n D F i.H.3.D D D 4.G.4.D D D v XXX XXXXXXXXXXXXXXXXXXXXXX",
"XXXXXXXXXXXXXXXXXXXXXXXXO # O , 2 2 O O , , 2 2 # O , , O O # O O 1 # O O O O 2 2 1 O O O 1 5 1 O O O X XXXXXXXXXXXXXXXXXXXXXXXX",
"XXXXXXXXXXXXXXXXXXXXXXXXXXXXXX2 9.y.k . . O ,.y.*.. XXXXXXXXXXXXXXXXXXXXXXXX. *.y.,.O .   k t.0.2 XXXXXXXXXXXXXXXXXXXXXXXXXXXXXX",
"XXXXXXXXXXXXXXXXXXXXXXXXXXXXXX5 D.L.u.,.,.,.G.P.:.. XXXXXXXXXXXXXXXXXXXXXXXX. -.P.F.<.,.,.u.L.D.5 XXXXXXXXXXXXXXXXXXXXXXXXXXXXXX",
"XXXXXXXXXXXXXXXXXXXXXXXXXXXXXX5 y.K.K.L.L.L.K.L.:.  XXXXXXXXXXXXXXXXXXXXXXXX. :.L.U.L.L.L.K.K.y.5 XXXXXXXXXXXXXXXXXXXXXXXXXXXXXX",
"XXXXXXXXXXXXXXXXXXXXXXXXXXXXXX5 t.H.G.G.G.G.G.J.-.. XXXXXXXXXXXXXXXXXXXXXXXX. -.J.G.G.G.G.G.H.t.4 XXXXXXXXXXXXXXXXXXXXXXXXXXXXXX",
"XXXXXXXXXXXXXXXXXXXXXXXXXXXXXX2 ,.9.8.8.8.5.8.0.x X XXXXXXXXXXXXXXXXXXXXXXXX. x 0.8.8.8.5.8.9.,.2 XXXXXXXXXXXXXXXXXXXXXXXXXXXXXX",
"XXXXXXXXXXXXXXXXXXXXXXXXXXXXXXXX2 2 4 2 2 2 2 2 1 XXXXXXXXXXXXXXXXXXXXXXXXXXXX1 2 2 2 2 2 2 2 2 XXXXXXXXXXXXXXXXXXXXXXXXXXXXXXXX",
"XXXXXXXXXXXXXXXXXXXXXXXXXXXXXXXXXXXXXXXXXXXXXXXXXXXXXXXXXXXXXXXXXXXXXXXXXXXXXXXXXXXXXXXXXXXXXXXXXXXXXXXXXXXXXXXXXXXXXXXXXXXXXXXX",
"XXXXXXXXXXXXXXXXXXXXXXXXXXXXXXXXXXXXXXXXXXXXXXXXXXXXXXXXXXXXXXXXXXXXXXXXXXXXXXXXXXXXXXXXXXXXXXXXXXXXXXXXXXXXXXXXXXXXXXXXXXXXXXXX",
"XXXXXXXXXXXXXXXXXXXXXXXXXXXXXXXXXXXXXXXXXXXXXXXXXXXXXXXXXXXXXXXXXXXXXXXXXXXXXXXXXXXXXXXXXXXXXXXXXXXXXXXXXXXXXXXXXXXXXXXXXXXXXXXX",
"XXXXXXXXXXXXXXXXXXXXXXXXXXXXXXXXXXXXXXXXXXXXXXXXXXXXXXXXXXXXXXXXXXXXXXXXXXXXXXXXXXXXXXXXXXXXXXXXXXXXXXXXXXXXXXXXXXXXXXXXXXXXXXXX",
"XXXXXXXXXXXXXXXXXXXXXXXXXXXXXXXXXXXXXXXXXXXXXXXXXXXXXXXXXXXXXXXXXXXXXXXXXXXXXXXXXXXXXXXXXXXXXXXXXXXXXXXXXXXXXXXXXXXXXXXXXXXXXXXX",
"XXXXXXXXXXXXXXXXXXXXXXXXXXXXXXXXXXXXXXXXXXXXXXXXXXXXXXXXXXXXXXXXXXXXXXXXXXXXXXXXXXXXXXXXXXXXXXXXXXXXXXXXXXXXXXXXXXXXXXXXXXXXXXXX",
"XXXXXXXXXXXXXXXXXXXXXXXXXXXXXXXXXXXXXXXXXXXXXXXXXXXXXXXXXXXXXXXXXXXXXXXXXXXXXXXXXXXXXXXXXXXXXXXXXXXXXXXXXXXXXXXXXXXXXXXXXXXXXXXX",
"XXXXXXXXXXXXXXXXXXXXXXXXXXXXXXXXXXXXXXXXXXXXXXXXXXXXXXXXXXXXXXXXXXXXXXXXXXXXXXXXXXXXXXXXXXXXXXXXXXXXXXXXXXXXXXXXXXXXXXXXXXXXXXXX",
"XXXXXXXXXXXXXXXXXXXXXXXXXXXXXXXXXXXXXXXXXXXXXXXXXXXXXXXXXXXXXXXXXXXXXXXXXXXXXXXXXXXXXXXXXXXXXXXXXXXXXXXXXXXXXXXXXXXXXXXXXXXXXXXX",
"XXXXXXXXXXXXXXXXXXXXXXXXXXXXXXXXXXXXXXXXXXXXXXXXXXXXXXXXXXXXXXXXXXXXXXXXXXXXXXXXXXXXXXXXXXXXXXXXXXXXXXXXXXXXXXXXXXXXXXXXXXXXXXXX",
"XXXXXXXXXXXXXXXXXXXXXXXXXXXXXXXXXXXXXXXXXXXXXXXXXXXXXXXXXXXXXXXXXXXXXXXXXXXXXXXXXXXXXXXXXXXXXXXXXXXXXXXXXXXXXXXXXXXXXXXXXXXXXXXX",
"XXXXXXXXXXXXXXXXXXXXXXXXXXXXXXXXXXXXXXXXXXXXXXXXXXXXXXXXXXXXXXXXXXXXXXXXXXXXXXXXXXXXXXXXXXXXXXXXXXXXXXXXXXXXXXXXXXXXXXXXXXXXXXXX",
"XXXXXXXXXXXXXXXXXXXXXXXXXXXXXXXXXXXXXXXXXXXXXXXXXXXXXXXXXXXXXXXXXXXXXXXXXXXXXXXXXXXXXXXXXXXXXXXXXXXXXXXXXXXXXXXXXXXXXXXXXXXXXXXX",
"XXXXXXXXXXXXXXXXXXXXXXXXXXXXXXXXXXXXXXXXXXXXXXXXXXXXXXXXXXXXXXXXXXXXXXXXXXXXXXXXXXXXXXXXXXXXXXXXXXXXXXXXXXXXXXXXXXXXXXXXXXXXXXXX",
"XXXXXXXXXXXXXXXXXXXXXXXXXXXXXXXXXXXXXXXXXXXXXXXXXXXXXXXXXXXXXXXXXXXXXXXXXXXXXXXXXXXXXXXXXXXXXXXXXXXXXXXXXXXXXXXXXXXXXXXXXXXXXXXX"
};
